<ttFont>
          <CharString index="0">
            524 511 rmoveto
            -34 -91 -38 -57 -46 -10 rrcurveto
            27 callgsubr
            -105 callsubr
            return
          </CharString>
          <CharString index="1">
            -16 -19 -4 -24 -27 -44 5 1 -17 vhcurveto
            191 423 rlineto
            -275 hlineto
            -63 -33 -51 -39 -37 30 -18 27 22 22 13 29 hvcurveto
            40 -17 -15 10 vvcurveto
            return
          </CharString>
          <CharString index="2">
            -173 -41 -171 -114 -169 89 -57 98 144 51 123 154 hvcurveto
            11 -1 10 10 vvcurveto
            55 20 44 46 33 71 rrcurveto
            54 -188 31 -33 -89 vvcurveto
            -41 -16 -15 -33 -38 -26 28 -76 callsubr
            23 16 17 21 31 -20 18 -41 -29 -26 -28 -45 -83 51 -72 119 return
          </CharString>
          <CharString index="3">
            12 22 2 29 vhcurveto
            74 hlineto
            -196 -446 rlineto
            276 hlineto
            68 33 51 42 hvcurveto
            return
          </CharString>
          <CharString index="4">
            47 -17 -44 6 -33 hhcurveto
            -139 -52 -157 -122 -174 92 -58 84 71 37 46 46 21 hvcurveto
            -57 14 35 -35 70 hhcurveto
            54 94 22 163 22 hvcurveto
            -44 callgsubr
            -84 callsubr
            return
          </CharString>
          <CharString index="5">
            4 -21 -11 1 -17 hhcurveto
            -178 -147 -109 -128 -86 50 -34 80 hvcurveto
            -11 17 -24 19 81 vvcurveto
            92 50 65 86 25 vhcurveto
            -482 vlineto
            -145 119 -72 120 119 120 72 145 vhcurveto
            return
          </CharString>
          <CharString index="6">
            -19 callsubr
            -20 81 189 hstemhm
            17 95 136 143 193 142 hintmask 11011110
            -81 callgsubr
            hintmask 10111110
            -102 callsubr
            hintmask 11011110
            538 vlineto
            return
          </CharString>
          <CharString index="7">
            -83 callsubr
            -29 -48 return
          </CharString>
          <CharString index="8">
            -28 19 -20 25 -15 vhcurveto
            8 -5 4 -6 -6 vvcurveto
            -49 -70 rlineto
            -5 2 -5 7 -4 vhcurveto
            76 49 45 67 52 vvcurveto
            38 -23 28 -41 -41 -32 -32 -38 vhcurveto
            return
          </CharString>
          <CharString index="9">
            180 rmoveto
            -64 -21 -78 -38 -65 hhcurveto
            -84 -36 65 72 83 46 100 86 20 hvcurveto
            -90 23 -43 69 74 vvcurveto
            57 25 52 59 24 40 -9 -51 return
          </CharString>
          <CharString index="10">
            rmoveto
            -105 callgsubr
            -180 -69 callgsubr
          </CharString>
          <CharString index="11">
            32 36 23 45 19 vhcurveto
            -29 vlineto
            -59 -16 -30 -24 -18 -23 18 26 vhcurveto
            endchar
          </CharString>
          <CharString index="12">
            36 -97 -92 33 -90 hhcurveto
            -65 -79 -26 -141 hvcurveto
            -574 vlineto
            -79 -26 -65 -27 -74 vvcurveto
            -79 75 -52 69 66 78 26 141 vhcurveto
            543 93 40 -94 110 vlineto
            64 28 12 23 13 44 -5 -11 29 vhcurveto
            return
          </CharString>
          <CharString index="13">
            -73 callgsubr
            0 123 hintmask 11110000
            47 -60 callgsubr
            -351 vlineto
            -56 callsubr
            hintmask 11101000
            -89 callsubr
            hintmask 11110000
            return
          </CharString>
          <CharString index="14">
            -38 -73 vvcurveto
            -70 62 -43 77 62 77 28 142 -57 callgsubr
            464 vlineto
            return
          </CharString>
          <CharString index="15">
            -58 -41 33 -73 hhcurveto
            -76 -52 -34 -64 -18 hvcurveto
            6 -2 rlineto
            17 15 20 9 26 hhcurveto
            return
          </CharString>
          <CharString index="16">
            hstemhm
            33 118 -81 81 -81 135 158 93 -93 157 hintmask 1101101001000000
            456 624 rmoveto
            121 -132 5 -38 -133 -83 -63 -115 vhcurveto
            -217 293 19 -210 vvcurveto
            -74 -36 -28 -64 -64 -48 28 69 72 53 18 48 vhcurveto
            52 -19 -49 14 -31 hhcurveto
            hintmask 1110110001000000
            -64 -56 -57 -92 -137 123 -47 123 138 103 60 150 hvcurveto
            hintmask 1101100110000000
            263 -315 -42 194 vvcurveto
            55 25 37 60 54 27 -30 -41 -26 -10 -29 -19 -13 vhcurveto
            hintmask 1110110010000000
            -15 16 16 -6 18 hhcurveto
            41 23 35 50 hvcurveto
            return
          </CharString>
          <CharString index="17">
            -15 callsubr
            59 189 hstemhm
            41 -13 callgsubr
            147 72 hintmask 10110110
            496 -98 callsubr
            -28 -12 -33 -19 -6 vhcurveto
            hintmask 11010110
            -82 callgsubr
            hintmask 11011010
            -74 callgsubr
            return
          </CharString>
          <CharString index="18">
            -44 callgsubr
            1 callgsubr
            return
          </CharString>
          <CharString index="19">
            -85 callgsubr
            vhcurveto
            return
          </CharString>
          <CharString index="20">
            -47 callsubr
            -9 -43 15 -30 callgsubr
            return
          </CharString>
          <CharString index="21">
            47 -17 -44 6 -33 hhcurveto
            -139 -52 -157 -122 -174 92 -58 84 71 37 46 46 21 hvcurveto
            -56 13 33 -36 66 hhcurveto
            56 16 26 75 12 hvcurveto
            return
          </CharString>
          <CharString index="22">
            302 302 rmoveto
            -26 32 callgsubr
            68 42 callgsubr
            -12 -37 -46 hhcurveto
            -41 -8 29 57 hvcurveto
            34 4 74 35 vvcurveto
            140 -64 44 -76 -34 -42 -9 -47 -31 vhcurveto
            return
          </CharString>
          <CharString index="23">
            -39 -13 13 56 hvcurveto
            return
          </CharString>
          <CharString index="24">
            -24 callgsubr
            1 -5 0 -4 -5 vvcurveto
            -39 return
          </CharString>
          <CharString index="25">
            555 180 rmoveto
            -63 -33 -65 -42 -75 hhcurveto
            -96 -76 69 222 167 43 170 90 42 28 -38 -43 -28 -12 -34 -17 -10 hvcurveto
            return
          </CharString>
          <CharString index="26">
            94 6 callsubr
            22 return
          </CharString>
          <CharString index="27">
            -13 8 -12 16 -1 vhcurveto
            return
          </CharString>
          <CharString index="28">
            13 -30 -27 1 -16 hhcurveto
            -171 -84 -115 -109 -96 45 -37 87 hvcurveto
            -12 20 -24 18 85 vvcurveto
            79 35 54 61 29 vhcurveto
            -678 96 498 vlineto
            226 -498 rlineto
            138 hlineto
            return
          </CharString>
          <CharString index="29">
            -41 15 -43 11 -41 8 31 111 43 93 51 33 rrcurveto
            return
          </CharString>
          <CharString index="30">
            6 callgsubr
            109 126 -86 86 return
          </CharString>
          <CharString index="31">
            47 -10 vhcurveto
            -10 7 13 -3 10 hhcurveto
            return
          </CharString>
          <CharString index="32">
            -32 callgsubr
            220 hmoveto
            -99 callsubr
            endchar
          </CharString>
          <CharString index="33">
            -42 -5 -27 -32 -43 hhcurveto
            -15 -51 4 125 91 27 112 66 hvcurveto
            -33 -572 rmoveto
            32 35 24 46 19 vhcurveto
            -29 vlineto
            -59 -17 -30 -24 -18 -22 18 25 vhcurveto
            endchar
          </CharString>
          <CharString index="34">
            -84 213 -28 callsubr
            124 -315 rlineto
            -54 -32 -57 -39 -50 hhcurveto
            -36 -19 19 49 hvcurveto
            -13 callsubr
            return
          </CharString>
          <CharString index="35">
            99 23 120 54 24 17 -23 -54 -13 -1 -6 -2 -11 return
          </CharString>
          <CharString index="36">
            77 -77 97 -97 161 -134 -21 355 return
          </CharString>
          <CharString index="37">
            rmoveto
            43 46 27 45 16 vhcurveto
            -58 vlineto
            -59 -20 -19 -21 -19 -31 16 34 vhcurveto
            endchar
          </CharString>
          <CharString index="38">
            33 callgsubr
            hintmask 11001100
            -100 callsubr
            -48 -66 vhcurveto
            hintmask 10111100
            -73 callsubr
            return
          </CharString>
          <CharString index="39">
            28 -19 20 -25 15 vhcurveto
            -8 5 -4 6 6 vvcurveto
            49 70 rlineto
            5 -2 5 -7 4 vhcurveto
            -76 -49 -45 -67 -52 vvcurveto
            -38 23 -28 41 41 32 32 38 vhcurveto
            return
          </CharString>
          <CharString index="40">
            -131 52 40 -54 73 36 callsubr
            -43 -18 48 40 -16 hvcurveto
            -23 57 rlineto
            60 83 46 90 66 vvcurveto
            61 -39 28 -37 -32 -30 -21 -34 -28 20 -29 42 8 -2 1 1 9 vhcurveto
            1 -5 0 -4 -5 vvcurveto
            -37 -26 -45 -44 -61 vhcurveto
            return
          </CharString>
          <CharString index="41">
            -38 -73 vvcurveto
            -70 62 -43 77 return
          </CharString>
          <CharString index="42">
            52 -144 -500 144 321 vlineto
            return
          </CharString>
          <CharString index="43">
            16 42 4 45 vhcurveto
            34 85 -2 21 hhcurveto
            -282 -696 rlineto
            401 hlineto
            71 35 54 47 hvcurveto
            return
          </CharString>
          <CharString index="44">
            rmoveto
            65 hlineto
            81 189 rlineto
            -95 hlineto
            return
          </CharString>
          <CharString index="45">
            -103 callgsubr
            vlineto
            407 vmoveto
            -78 callsubr
            return
          </CharString>
          <CharString index="46">
            hstemhm
            -58 callsubr
            return
          </CharString>
          <CharString index="47">
            37 52 17 66 6 0 7 -1 7 hvcurveto
            -3 -6 -8 -3 -17 hhcurveto
            return
          </CharString>
          <CharString index="48">
            hhcurveto
            54 90 6 callsubr
            23 hvcurveto
            -42 hlineto
            return
          </CharString>
          <CharString index="49">
            30 146 139 144 return
          </CharString>
          <CharString index="50">
            57 17 56 65 32 25 -14 -26 6 vhcurveto
            -24 -4 -10 -16 -17 vvcurveto
            9 -118 rmoveto
            return
          </CharString>
          <CharString index="51">
            -58 callgsubr
            54 -81 callsubr
            vhcurveto
            return
          </CharString>
          <CharString index="52">
            -51 callgsubr
            endchar
          </CharString>
          <CharString index="53">
            -193 -57 rmoveto
            32 13 -27 -11 4 hvcurveto
            -227 vlineto
            -58 -36 -29 -88 callsubr
            return
          </CharString>
          <CharString index="54">
            98 -21 -58 53 -75 hhcurveto
            -23 -19 -5 -25 -36 hvcurveto
            225 -10 callsubr
            return
          </CharString>
          <CharString index="55">
            vlineto
            -56 callsubr
            hintmask 11010000
            -44 callgsubr
            -84 callsubr
            return
          </CharString>
          <CharString index="56">
            47 144 return
          </CharString>
          <CharString index="57">
            rmoveto
            45 39 25 53 19 vhcurveto
            -58 vlineto
            -59 -23 -19 -20 51 callsubr
            return
          </CharString>
          <CharString index="58">
            -129 60 -56 77 92 80 64 72 50 vhcurveto
            -96 43 40 -40 63 hhcurveto
            54 90 6 callsubr
            22 hvcurveto
            -42 hlineto
            -33 callgsubr
            49 39 -15 hvcurveto
            -19 47 rlineto
            64 85 50 96 66 vvcurveto
            return
          </CharString>
          <CharString index="59">
            89 155 97 369 40 return
          </CharString>
          <CharString index="60">
            -94 callgsubr
            23 return
          </CharString>
          <CharString index="61">
            -28 -11 27 -41 hhcurveto
            -19 -8 -16 -16 -6 hvcurveto
            -15 32 30 -13 51 hhcurveto
            51 48 32 58 hvcurveto
            endchar
          </CharString>
          <CharString index="62">
            56 -56 -27 -20 -14 -25 -24 13 -40 47 5 6 1 1 6 vhcurveto
            return
          </CharString>
          <CharString index="63">
            -14 callsubr
            -42 hlineto
            return
          </CharString>
          <CharString index="64">
            -79 hhcurveto
            -132 -34 -177 -149 hvcurveto
            42 hlineto
            165 44 79 39 18 13 -16 -67 24 vhcurveto
            40 -112 -153 -228 rlineto
            72 hlineto
            103 168 rlineto
            hintmask 10101100
            -122 46 return
          </CharString>
          <CharString index="65">
            -33 callgsubr
            50 38 -15 hvcurveto
            return
          </CharString>
          <CharString index="66">
            rmoveto
            -15 -11 -22 -8 -25 hhcurveto
            return
          </CharString>
          <CharString index="67">
            rlineto
            -56 -44 -50 -74 -61 vvcurveto
            -49 26 -40 57 28 19 13 28 37 -20 26 -34 -4 -4 0 -1 -4 vhcurveto
            -1 4 0 4 4 vvcurveto
            36 31 36 36 27 vhcurveto
            3 -6 rlineto
            return
          </CharString>
          <CharString index="68">
            rmoveto
            -55 -28 -39 -41 -41 28 -40 52 53 25 40 43 37 -19 41 -56 hvcurveto
            38 -81 rmoveto
            -28 -12 -17 -27 -31 -11 22 24 32 19 15 23 30 9 -24 -24 vhcurveto
            endchar
          </CharString>
          <CharString index="69">
            101 186 103 return
          </CharString>
          <CharString index="70">
            -35 50 46 -13 30 hhcurveto
            119 78 213 181 199 -95 166 -241 -194 -133 -107 -132 -82 51 -36 80 hvcurveto
            -5 9 -30 25 76 vvcurveto
            return
          </CharString>
          <CharString index="71">
            rmoveto
            175 195 -219 185 -31 -44 167 -140 -143 -151 rlineto
            return
          </CharString>
          <CharString index="72">
            24 callgsubr
            22 hvcurveto
            -42 hlineto
            return
          </CharString>
          <CharString index="73">
            75 -31 callgsubr
            return
          </CharString>
          <CharString index="74">
            -6 97 -70 -21 return
          </CharString>
          <CharString index="75">
            vvcurveto
            79 36 58 64 31 vhcurveto
            -678 return
          </CharString>
          <CharString index="76">
            11 callsubr
            222 return
          </CharString>
          <CharString index="77">
            59 69 42 callgsubr
            -9 -37 -46 hhcurveto
            -41 -11 29 57 hvcurveto
            34 4 74 35 vvcurveto
            140 -64 44 -76 -34 -42 -9 -47 -31 vhcurveto
            return
          </CharString>
          <CharString index="78">
            rmoveto
            -38 -37 15 129 90 27 123 54 19 22 -8 -44 14 hvcurveto
            -16 -6 return
          </CharString>
          <CharString index="79">
            rlineto
            -141 hlineto
            return
          </CharString>
          <CharString index="80">
            -6 52 callsubr
            return
          </CharString>
          <CharString index="81">
            vlineto
            -58 callgsubr
            return
          </CharString>
          <CharString index="82">
            -174 171 193 hstem
            42 193 vstem
            42 267 rmoveto
            -53 43 -43 53 53 44 43 53 53 -44 44 -53 -53 -43 -44 -53 vhcurveto
            endchar
          </CharString>
          <CharString index="83">
            hhcurveto
            56 16 26 75 12 hvcurveto
            -56 callgsubr
            return
          </CharString>
          <CharString index="84">
            71 -71 155 200 145 -54 54 return
          </CharString>
          <CharString index="85">
            -16 -6 -10 -14 -22 vvcurveto
            return
          </CharString>
          <CharString index="86">
            -49 26 -40 57 28 18 13 28 37 -19 26 -34 -4 -4 0 -1 -5 vhcurveto
            -1 4 0 4 4 vvcurveto
            37 32 36 36 27 vhcurveto
            3 -7 rlineto
            return
          </CharString>
          <CharString index="87">
            738 20 callsubr
            -8 12 -27 29 72 vvcurveto
            82 36 59 63 31 vhcurveto
            return
          </CharString>
          <CharString index="88">
            320 -7 98 657 -20 22 return
          </CharString>
          <CharString index="89">
            -22 24 34 -4 16 hhcurveto
            40 15 27 41 114 -115 44 -104 -189 -98 -143 -187 -195 106 -116 136 hvcurveto
            return
          </CharString>
          <CharString index="90">
            41 21 23 33 34 vvcurveto
            45 -42 46 -82 -68 -38 -31 -41 -32 24 -24 28 14 15 6 13 12 vhcurveto
            -20 5 -11 25 18 vvcurveto
            return
          </CharString>
          <CharString index="91">
            -52 -52 30 60 hvcurveto
            -79 hlineto
            -90 91 -45 91 91 90 45 90 vhcurveto
            return
          </CharString>
          <CharString index="92">
            -4 -18 23 callsubr
            return
          </CharString>
          <CharString index="93">
            -81 callsubr
            hvcurveto
            return
          </CharString>
          <CharString index="94">
            340 vlineto
            return
          </CharString>
          <CharString index="95">
            13 19 -2 -19 18 hvcurveto
            97 -63 5 -24 -91 -31 -75 -58 -72 49 -70 125 157 46 109 100 vhcurveto
            416 vlineto
            return
          </CharString>
          <CharString index="96">
            9 callgsubr
            145 return
          </CharString>
          <CharString index="97">
            vlineto
            -144 -20 rlineto
            return
          </CharString>
          <CharString index="98">
            -5 callsubr
            vhcurveto
            return
          </CharString>
          <CharString index="99">
            -6 82 -82 97 111 48 202 53 -53 112 -64 -20 return
          </CharString>
          <CharString index="100">
            rmoveto
            -39 -62 -44 -3 -32 hhcurveto
            -2 -25 rlineto
            55 -337 85 hlineto
            return
          </CharString>
          <CharString index="101">
            -321 vlineto
            return
          </CharString>
          <CharString index="102">
            -57 callsubr
            44 callsubr
            return
          </CharString>
          <CharString index="103">
            -70 callgsubr
            endchar
          </CharString>
          <CharString index="104">
            21 -21 745 -20 25 -20 return
          </CharString>
          <CharString index="105">
            rmoveto
            29 15 -22 -13 4 hvcurveto
            return
          </CharString>
          <CharString index="106">
            -351 -55 callgsubr
            return
          </CharString>
          <CharString index="107">
            -680 144 223 vlineto
            33 10 21 27 41 hhcurveto
            43 return
          </CharString>
          <CharString index="108">
            -12 -6 94 357 60 return
          </CharString>
          <CharString index="109">
            131 87 70 130 169 37 -118 -172 -168 -35 -171 -86 -16 -20 6 13 -22 vhcurveto
            return
          </CharString>
          <CharString index="110">
            45 -17 -42 5 -33 hhcurveto
            -142 -53 -151 -116 -166 91 -58 84 58 33 30 36 21 hvcurveto
            return
          </CharString>
          <CharString index="111">
            -42 35 -52 61 53 28 39 23 16 vhcurveto
            -4 31 rlineto
            return
          </CharString>
          <CharString index="112">
            581 748 rmoveto
            -542 vlineto
            -233 530 rlineto
            return
          </CharString>
          <CharString index="113">
            22 163 return
          </CharString>
          <CharString index="114">
            63 callsubr
            -4 -18 -38 -39 hhcurveto
            -38 -4 46 23 hvcurveto
            340 -144 -6 callsubr
            -131 return
          </CharString>
          <CharString index="115">
            213 636 rmoveto
            -636 144 return
          </CharString>
          <CharString index="116">
            54 -16 91 449 226 -47 47 return
          </CharString>
          <CharString index="117">
            -67 -6 84 255 172 -53 53 return
          </CharString>
          <CharString index="118">
            17 95 47 149 return
          </CharString>
          <CharString index="119">
            69 51 30 55 31 hvcurveto
            -248 vlineto
            -72 -32 -31 -44 -52 -28 43 40 31 17 30 52 vhcurveto
            return
          </CharString>
          <CharString index="120">
            -250 -48 callsubr
            161 88 hstem
            -96 53 90 144 123 144 return
          </CharString>
          <CharString index="121">
            -6 -71 callsubr
            return
          </CharString>
          <CharString index="122">
            54 35 33 49 7 -1 7 -1 7 hvcurveto
            -3 -5 -7 -3 -18 hhcurveto
            -84 callsubr
            return
          </CharString>
          <CharString index="123">
            748 20 callsubr
            return
          </CharString>
          <CharString index="124">
            -59 callsubr
            -50 -5 return
          </CharString>
          <CharString index="125">
            68 -20 31 -53 -51 vvcurveto
            -35 -14 -36 -50 -22 -31 7 49 25 8 20 32 3 vhcurveto
            return
          </CharString>
          <CharString index="126">
            -33 callsubr
            423 82 -53 112 hstemhm
            46 42 269 138 hintmask 10011100
            return
          </CharString>
          <CharString index="127">
            rmoveto
            1 -13 -14 1 -15 hhcurveto
            -152 -145 -106 -135 -79 50 -37 80 hvcurveto
            return
          </CharString>
          <CharString index="128">
            -250 78 186 97 332 62 -5 -20 return
          </CharString>
          <CharString index="129">
            46 4 15 46 40 hhcurveto
            33 19 -31 -80 hvcurveto
            return
          </CharString>
          <CharString index="130">
            96 463 211 -59 59 return
          </CharString>
          <CharString index="131">
            -84 214 -28 callsubr
            124 -315 rlineto
            -51 -30 -57 -43 -52 hhcurveto
            return
          </CharString>
          <CharString index="132">
            -28 callsubr
            121 -307 -63 -93 -58 -37 -64 -25 rlinecurve
            462 vlineto
            return
          </CharString>
          <CharString index="133">
            24 116 82 146 return
          </CharString>
          <CharString index="134">
            21 vhcurveto
            -42 hlineto
            -51 -11 return
          </CharString>
          <CharString index="135">
            -89 callgsubr
            23 return
          </CharString>
          <CharString index="136">
            520 rmoveto
            -33 -17 -18 -24 -26 20 -37 28 8 20 3 7 2 hvcurveto
            return
          </CharString>
          <CharString index="137">
            -14 -18 -19 -20 -24 hhcurveto
            -33 -18 36 28 return
          </CharString>
          <CharString index="138">
            54 41 callsubr
            return
          </CharString>
          <CharString index="139">
            -2 callsubr
            -223 vlineto
            return
          </CharString>
          <CharString index="140">
            -250 89 621 40 161 88 hstem
            return
          </CharString>
          <CharString index="141">
            rlineto
            6 9 14 6 26 hhcurveto
            33 15 -23 -22 -17 -8 -16 -14 hvcurveto
            return
          </CharString>
          <CharString index="142">
            25 32 5 12 40 hvcurveto
            -35 13 -22 33 65 31 5 78 38 vvcurveto
            return
          </CharString>
          <CharString index="143">
            17 callsubr
            -28 -38 -39 hhcurveto
            return
          </CharString>
          <CharString index="144">
            53 92 146 119 129 -129 144 -144 228 return
          </CharString>
          <CharString index="145">
            142 -207 50 144 81 41 87 328 226 -53 53 return
          </CharString>
          <CharString index="146">
            1 -12 1 -12 -13 vvcurveto
            endchar
          </CharString>
          <CharString index="147">
            25 56 -16 48 hhcurveto
            38 19 10 43 14 -2 13 -4 26 hvcurveto
            return
          </CharString>
          <CharString index="148">
            -33 callsubr
            413 91 -4 -20 return
          </CharString>
          <CharString index="149">
            198 -3 callsubr
            return
          </CharString>
          <CharString index="150">
            -229 -21 1000 -20 hstem
            return
          </CharString>
          <CharString index="151">
            -351 -26 callsubr
            return
          </CharString>
          <CharString index="152">
            122 58 122 return
          </CharString>
          <CharString index="153">
            83 46 100 86 20 hvcurveto
            -92 23 -41 73 68 vvcurveto
            58 28 return
          </CharString>
          <CharString index="154">
            -23 hvcurveto
            75 vlineto
            44 -461 rmoveto
            -15 -15 0 -1 -14 hvcurveto
            return
          </CharString>
          <CharString index="155">
            -73 callgsubr
            -144 228 -12 -38 callsubr
            return
          </CharString>
          <CharString index="156">
            vlineto
            -131 64 -54 74 54 95 6 callsubr
            22 vhcurveto
            return
          </CharString>
          <CharString index="157">
            -11 callgsubr
            endchar
          </CharString>
          <CharString index="158">
            -23 -26 21 26 vhcurveto
            return
          </CharString>
          <CharString index="159">
            97 352 62 return
          </CharString>
          <CharString index="160">
            hhcurveto
            143 41 142 114 195 -80 60 return
          </CharString>
          <CharString index="161">
            -166 -243 58 414 50 414 58 hstemhm
            return
          </CharString>
          <CharString index="162">
            750 rmoveto
            -72 -322 -146 -112 146 return
          </CharString>
          <CharString index="163">
            -80 callsubr
            endchar
          </CharString>
          <CharString index="164">
            hstemhm
            31 142 118 return
          </CharString>
          <CharString index="165">
            159 -73 callgsubr
            return
          </CharString>
          <CharString index="166">
            -20 -73 callgsubr
            0 123 hintmask 11100000
            47 return
          </CharString>
          <CharString index="167">
            346 -6 79 -79 94 47 87 223 60 return
          </CharString>
          <CharString index="168">
            90 37 hvcurveto
            -34 hlineto
            -61 -42 -30 -40 -96 hhcurveto
            return
          </CharString>
          <CharString index="169">
            -218 33 -33 60 51 49 return
          </CharString>
          <CharString index="170">
            -6 callsubr
            -50 return
          </CharString>
          <CharString index="171">
            161 -134 -21 135 87 133 return
          </CharString>
          <CharString index="172">
            -29 -27 12 -37 hhcurveto
            155 423 rlineto
            return
          </CharString>
        <CharString name=".notdef">
          -66 endchar
        </CharString>
        <CharString name="A">
          -76 callgsubr
          -20 -11 callsubr
          hintmask 11101111
          -102 callgsubr
          hintmask 11011111
          -62 callsubr
          endchar
        </CharString>
        <CharString name="A.salt">
          79 -93 -21 135 -21 366 52 333 -20 hstem
          27 125 188 144 vstem
          484 hmoveto
          737 vlineto
          9 -26 -34 5 -22 hhcurveto
          -216 -159 -482 -219 -151 85 -9 79 -4 hvcurveto
          -16 15 -23 36 126 vvcurveto
          86 11 111 22 106 vhcurveto
          155 -366 hlineto
          -143 418 rmoveto
          32 124 47 106 64 34 rrcurveto
          -264 vlineto
          endchar
        </CharString>
        <CharString name="AE">
          390 0 106 171 178 -110 74 -19 55 185 91 -91 111 hstemhm
          10 125 18 127 186 144 hintmask 1010101110000000
          833 hmoveto
          106 -223 239 150 vlineto
          5 74 rlineto
          -155 253 hlineto
          -15 41 40 -17 50 hhcurveto
          83 -5 67 43 5 hvcurveto
          -14 -41 -37 -5 -35 hhcurveto
          hintmask 1100011110000000
          -70 -59 20 -55 hhcurveto
          -114 -99 -138 -161 -68 hvcurveto
          2 -23 -22 1 -19 hhcurveto
          -96 -76 -48 -56 -50 37 -24 35 38 15 15 18 16 -14 21 -6 hvcurveto
          hintmask 1001101110000000
          7 37 42 12 62 4 rrcurveto
          -47 -127 -26 -132 -88 vvcurveto
          -159 77 -2 87 -5 vhcurveto
          -6 17 -31 -25 164 vvcurveto
          99 17 135 31 122 vhcurveto
          42 -4 43 -10 53 -22 rrcurveto
          -363 vlineto
          407 vmoveto
          -41 15 -44 10 -42 8 32 111 43 94 52 34 rrcurveto
          endchar
        </CharString>
        <CharString name="Aacute">
          -76 callgsubr
          -20 81 189 -11 callsubr
          hintmask 1110111110000000
          -102 callgsubr
          hintmask 1101111110000000
          -62 callsubr
          -15 133 -101 callgsubr
        </CharString>
        <CharString name="Acircumflex">
          -76 callgsubr
          61 189 -20 -11 callsubr
          hintmask 1110111110000000
          -102 callgsubr
          hintmask 1101111110000000
          -103 callgsubr
          vlineto
          160 811 rmoveto
          -100 189 rlineto
          -21 hlineto
          -172 -189 rlineto
          44 hlineto
          140 80 77 -80 rlineto
          -128 -404 rmoveto
          -78 callsubr
          endchar
        </CharString>
        <CharString name="Adieresis">
          -76 callgsubr
          -20 93 122 -3 callgsubr
          82 122 -19 145 -68 122 hintmask 1110111101000000
          -102 callgsubr
          hintmask 1101111101000000
          -62 callsubr
          hintmask 1110111110100000
          77 206 -97 callsubr
        </CharString>
        <CharString name="Agrave">
          -76 callgsubr
          -20 81 189 -11 callsubr
          hintmask 1110111110000000
          -102 callgsubr
          hintmask 1101111110000000
          -62 callsubr
          -17 133 rmoveto
          75 hlineto
          -69 -43 callgsubr
        </CharString>
        <CharString name="Aogonek">
          152 -193 59 -59 193 277 181 -58 58 292 -20 9 callgsubr
          70 -70 145 hintmask 0110111010000000
          528 5 rmoveto
          -9 -5 rlineto
          38 736 hlineto
          10 -27 -33 4 -20 hhcurveto
          -116 -100 -136 -159 -67 hvcurveto
          2 -23 -21 1 -15 hhcurveto
          -106 -72 -47 -63 -46 37 -25 39 28 21 13 20 16 -15 21 -6 hvcurveto
          hintmask 0101111100000000
          -103 callgsubr
          41 vlineto
          5 5 rlineto
          -46 402 rmoveto
          -78 callsubr
          -7 -777 rmoveto
          4 callsubr
          hintmask 1010111100000000
          30 callsubr
          hvcurveto
          hintmask 0110111100000000
          28 17 29 20 13 vhcurveto
          -66 hlineto
          -32 -32 -16 -38 -29 vvcurveto
          endchar
        </CharString>
        <CharString name="Aring">
          -76 callgsubr
          -20 72 35 93 33 -3 callgsubr
          122 40 23 145 -87 37 hintmask 1110111111100000
          -102 callgsubr
          hintmask 1101111111100000
          -103 callgsubr
          vlineto
          20 963 rmoveto
          -55 -28 -39 -41 -41 28 -40 52 hvcurveto
          hintmask 1110111111010000
          53 25 40 43 37 -19 41 -56 hvcurveto
          hintmask 1110111111100000
          -20 -556 rmoveto
          -78 callsubr
          hintmask 1110111111010000
          58 204 rmoveto
          -28 -12 -17 -27 -31 -11 22 24 32 19 15 23 30 9 -24 -24 vhcurveto
          endchar
        </CharString>
        <CharString name="Atilde">
          -76 callgsubr
          -20 89 78 -41 41 -41 74 -11 callsubr
          hintmask 1110110011100000
          -102 callgsubr
          hintmask 1101101011100000
          -103 callgsubr
          vlineto
          217 920 -41 callsubr
          hintmask 1110100111100000
          -92 callsubr
          hintmask 1110110011100000
          -63 callgsubr
          -224 -512 rmoveto
          -78 callsubr
          endchar
        </CharString>
        <CharString name="B">
          228 -17 96 -58 -21 386 48 270 46 hstemhm
          2 callgsubr
          119 103 -46 136 hintmask 01111101
          8 callsubr
          383 vlineto
          2 18 20 1 8 hhcurveto
          112 18 -103 -63 hvcurveto
          hintmask 10111101
          -67 -18 -74 -51 -23 -21 10 26 -31 vhcurveto
          -6 -20 -3 -17 -14 vvcurveto
          -61 52 -20 71 130 36 146 100 98 -48 90 -116 16 vhcurveto
          hintmask 10111110
          49 34 25 54 53 vvcurveto
          87 -81 89 -160 -179 -141 -111 -125 -87 50 -34 80 vhcurveto
          -8 15 -27 18 82 vvcurveto
          132 107 64 108 105 43 -61 -62 -71 -43 -76 -69 vhcurveto
          -7 222 hlineto
          endchar
        </CharString>
        <CharString name="B.salt">
          222 -28 92 -43 -21 393 41 270 46 hstemhm
          18 96 99 144 117 107 -67 149 hintmask 01111110
          8 callsubr
          29 vlineto
          hintmask 10111101
          -40 47 45 -17 38 hhcurveto
          107 69 139 122 96 -50 89 -109 15 hvcurveto
          hintmask 10111110
          50 35 27 54 50 vvcurveto
          95 -96 83 -158 -170 -139 -107 -134 -80 50 -36 80 vhcurveto
          -3 11 -31 18 79 vvcurveto
          133 88 70 123 131 18 -80 -49 -74 -40 -67 -70 vhcurveto
          -7 222 hlineto
          66 -592 rmoveto
          -19 -22 8 21 -25 hvcurveto
          290 vlineto
          2 18 19 1 8 hhcurveto
          hintmask 10111101
          85 27 -80 -74 -82 -32 -86 -59 hvcurveto
          endchar
        </CharString>
        <CharString name="C">
          9 callsubr
          hstemhm
          47 163 203 88 hintmask 10111000
          -82 callsubr
          hintmask 11011000
          -86 callgsubr
          endchar
        </CharString>
        <CharString name="Cacute">
          9 callsubr
          61 189 hstemhm
          47 163 203 88 hintmask 10111100
          -82 callsubr
          hintmask 11011100
          -86 callgsubr
          -282 641 -101 callgsubr
        </CharString>
        <CharString name="Ccaron">
          9 callsubr
          250 -20 hstemhm
          47 163 203 88 hintmask 10111100
          -82 callsubr
          hintmask 11011100
          -86 callgsubr
          -378 830 rmoveto
          100 -189 rlineto
          21 hlineto
          172 189 rlineto
          -44 hlineto
          -140 -80 -77 80 rlineto
          endchar
        </CharString>
        <CharString name="Ccedilla">
          56 62 callsubr
          42 91 449 226 -47 47 hstemhm
          48 163 189 77 -63 88 hintmask 1011011100000000
          477 -128 23 callgsubr
          9 53 108 13 87 63 26 107 rlinecurve
          -25 10 rlineto
          -63 -33 -65 -42 -75 hhcurveto
          -96 -76 69 222 167 43 170 90 hvcurveto
          hintmask 1011101010000000
          42 28 -38 -43 -28 -12 -34 -17 -10 hvcurveto
          -22 24 23 -4 16 hhcurveto
          41 13 28 40 107 -92 51 -100 -206 -56 -219 -181 -243 100 -122 169 -1 hvcurveto
          -14 -103 rlineto
          6 9 14 6 26 hhcurveto
          hintmask 1011101100000000
          33 15 -23 -22 -17 -8 -16 -14 hvcurveto
          hintmask 0111101100000000
          -46 callsubr
        </CharString>
        <CharString name="Ccircumflex">
          9 callsubr
          0 61 189 -20 hstemhm
          47 163 203 88 hintmask 10101110
          -82 callsubr
          hintmask 11001110
          -86 callgsubr
          hintmask 10011110
          -124 641 rmoveto
          -100 189 rlineto
          -21 hlineto
          -172 -189 rlineto
          44 hlineto
          140 80 77 -80 rlineto
          endchar
        </CharString>
        <CharString name="D">
          256 -9 84 -54 -21 704 61 callgsubr
          hintmask 01111100
          213 636 rmoveto
          -636 145 39 vlineto
          hintmask 10111100
          -37 callsubr
          2 callsubr
          562 vlineto
          endchar
        </CharString>
        <CharString name="E">
          -15 callsubr
          hstemhm
          41 -13 callgsubr
          147 72 hintmask 10101100
          496 -98 callsubr
          -28 -12 -33 -19 -6 vhcurveto
          hintmask 11001100
          -82 callgsubr
          hintmask 11010100
          -74 callgsubr
          endchar
        </CharString>
        <CharString name="E.salt">
          135 0 101 244 74 215 104 -70 82 hstemhm
          21 94 95 146 hintmask 11101100
          356 419 rmoveto
          226 vlineto
          -6 34 36 -5 32 hhcurveto
          70 42 29 67 hvcurveto
          hintmask 11011100
          6 0 7 -1 7 vhcurveto
          hintmask 11101100
          -9 -26 -31 -3 -31 hhcurveto
          hintmask 11011100
          -63 -65 12 -40 21 callgsubr
          95 38 31 57 4 vhcurveto
          -668 368 101 -222 244 153 74 vlineto
          endchar
        </CharString>
        <CharString name="E_x">
          336 -16 93 -93 107 -76 -21 459 103 -28 224 -59 59 hstemhm
          42 -13 callgsubr
          0 144 0 80 0 186 0 137 -55 55 hintmask 1001010010010000
          431 462 rmoveto
          109 -278 rlineto
          -66 -43 -84 -41 -72 hhcurveto
          -70 -58 40 98 46 callsubr
          53 48 32 37 -19 -56 -29 -9 -33 -19 -6 vhcurveto
          hintmask 1000100100101000
          -19 18 20 -3 10 hhcurveto
          44 16 53 39 97 -82 35 -91 -112 -65 -92 -91 -58 27 -54 64 -40 hvcurveto
          hintmask 0101011001010000
          -91 -23 -45 -101 -90 vvcurveto
          -155 111 -64 122 114 116 59 85 59 vhcurveto
          hintmask 0011011001010000
          -94 43 39 -40 63 hhcurveto
          54 90 6 callsubr
          22 hvcurveto
          -42 hlineto
          hintmask 0101011001010000
          -42 callsubr
          -20 49 rlineto
          65 90 31 67 57 vvcurveto
          58 -34 -45 callsubr
          hintmask 1001011001001000
          1 -4 4 -4 -16 vvcurveto
          -36 -23 -54 -40 -57 vhcurveto
          -70 178 rlineto
          endchar
        </CharString>
        <CharString name="Eacute">
          -90 callsubr
          -268 641 -101 callgsubr
        </CharString>
        <CharString name="Ecircumflex">
          -15 callsubr
          0 59 189 -20 hstemhm
          41 -13 callgsubr
          147 72 hintmask 10101011
          496 -98 callsubr
          -28 -12 -33 -19 -6 vhcurveto
          hintmask 11001011
          -82 callgsubr
          hintmask 10011101
          -74 callgsubr
          -95 641 rmoveto
          -100 189 rlineto
          -21 hlineto
          -172 -189 rlineto
          44 hlineto
          140 80 77 -80 rlineto
          endchar
        </CharString>
        <CharString name="Edieresis">
          -15 callsubr
          71 122 hstemhm
          41 -13 callgsubr
          -64 45 callsubr
          -91 72 hintmask 1011010010000000
          496 -98 callsubr
          vhcurveto
          hintmask 1101100100000000
          -28 -12 -33 -19 -6 vhcurveto
          -18 19 17 -7 15 hhcurveto
          hintmask 1101010010000000
          35 17 41 46 91 -68 33 -77 -129 -71 -92 -92 -57 27 -54 64 -40 hvcurveto
          hintmask 1101100100000000
          -74 callgsubr
          hintmask 1101001100000000
          -373 714 rmoveto
          -105 callgsubr
          180 -69 callgsubr
        </CharString>
        <CharString name="Egrave">
          -90 callsubr
          -280 641 rmoveto
          75 hlineto
          -69 -43 callgsubr
        </CharString>
        <CharString name="Eogonek">
          -2 -193 59 116 23 callsubr
          hstemhm
          42 -13 callgsubr
          31 77 39 72 hintmask 11010111
          497 -98 callsubr
          -28 -12 -33 -19 -6 vhcurveto
          hintmask 11100111
          -82 callgsubr
          hintmask 11101011
          -91 -23 -45 -102 -88 vvcurveto
          -114 75 -108 151 vhcurveto
          8 hlineto
          -21 -27 -11 -30 -24 vvcurveto
          4 callsubr
          30 callsubr
          24 12 24 16 15 hvcurveto
          84 24 67 61 22 92 rrcurveto
          endchar
        </CharString>
        <CharString name="Eth">
          256 -9 84 -54 -21 345 74 285 61 callgsubr
          hintmask 10111110
          114 503 rmoveto
          2 callsubr
          251 74 vlineto
          4 74 rlineto
          -78 237 hlineto
          -145 -20 rlineto
          -217 -34 vlineto
          -4 -74 rlineto
          38 hlineto
          hintmask 01111110
          -345 145 39 vlineto
          hintmask 10111110
          -37 callsubr
          endchar
        </CharString>
        <CharString name="Euro">
          167 -6 90 200 50 65 50 75 226 -47 47 hstemhm
          96 160 220 88 hintmask 11101110
          255 334 rmoveto
          -1 13 0 13 15 vvcurveto
          24 199 vlineto
          3 50 rlineto
          -200 hlineto
          148 11 47 106 80 hhcurveto
          59 23 -57 -31 -20 -10 -39 -19 -6 hvcurveto
          hintmask 11110110
          -22 24 23 -4 16 hhcurveto
          40 14 26 41 110 -99 49 -105 -172 -74 -132 -169 -15 hvcurveto
          -70 hlineto
          -3 -50 rlineto
          70 -19 hlineto
          -16 0 -15 1 -15 vhcurveto
          -69 hlineto
          -3 -50 rlineto
          77 hlineto
          -230 30 141 -60 119 hhcurveto
          80 82 27 74 41 hvcurveto
          -8 29 rlineto
          -32 -32 -58 -8 -46 hhcurveto
          -105 -70 41 159 -18 hvcurveto
          194 hlineto
          3 50 rlineto
          endchar
        </CharString>
        <CharString name="F">
          107 21 -21 376 74 180 108 -70 82 hstemhm
          21 93 96 146 hintmask 11101100
          356 450 rmoveto
          198 vlineto
          -9 45 45 -9 37 hhcurveto
          hintmask 11011100
          46 39 14 106 1 hvcurveto
          hintmask 11101100
          -9 -26 -30 -3 -33 hhcurveto
          hintmask 11011100
          -67 -46 12 -68 hhcurveto
          -195 -83 -99 -126 -92 44 -40 90 hvcurveto
          -14 15 -27 34 88 vvcurveto
          104 37 30 59 4 vhcurveto
          -668 146 376 146 74 vlineto
          endchar
        </CharString>
        <CharString name="F_i">
          372 -33 callsubr
          376 74 50 -20 114 136 -62 82 hstemhm
          81 94 115 146 126 41 0 144 0 123 hintmask 1011101101000000
          436 450 rmoveto
          200 vlineto
          -22 88 52 -34 82 hhcurveto
          81 10 84 71 hvcurveto
          -14 -51 -47 -5 -43 hhcurveto
          hintmask 0111011110100000
          -90 -77 20 -68 21 callgsubr
          101 43 29 63 vhcurveto
          9 -668 146 376 126 74 hlineto
          41 50 rmoveto
          -351 vlineto
          hintmask 1011101110100000
          -55 callsubr
        </CharString>
        <CharString name="G">
          38 callsubr
          hstemhm
          33 154 -7 90 -90 209 37 131 -118 100 hintmask 1110110001000000
          -21 callgsubr
          hintmask 1111010001000000
          -18 callsubr
          hintmask 1111001010000000
          12 callsubr
          hintmask 1111000110000000
          -12 callsubr
          endchar
        </CharString>
        <CharString name="Gbreve">
          38 callsubr
          68 45 -45 135 hstemhm
          33 154 -85 85 -7 90 -90 209 0 76 -39 131 -118 100 hintmask 1110110100000100
          -21 callgsubr
          hintmask 1111010100000100
          -18 callsubr
          hintmask 1111010001001000
          12 callsubr
          hintmask 1111010000101000
          -12 callsubr
          hintmask 1111001100000100
          hintmask 1111001100010000
          -168 535 rmoveto
          hintmask 1111010100010000
          -60 -52 -30 -52 vhcurveto
          hintmask 1111001010010000
          -16 callsubr
          endchar
        </CharString>
        <CharString name="H">
          243 21 -21 376 74 298 -20 22 -20 hstemhm
          2 callgsubr
          147 144 hintmask 11101110
          357 748 rmoveto
          hintmask 11011110
          1 -13 -14 1 -15 hhcurveto
          -152 -145 -109 -127 -87 50 -34 80 hvcurveto
          -8 16 -27 17 84 -32 callsubr
          144 376 147 -376 144 vlineto
          hintmask 11101110
          748 -144 -298 -147 vlineto
          endchar
        </CharString>
        <CharString name="I">
          63 callgsubr
          -20 hstem
          2 callgsubr
          vstem
          357 748 rmoveto
          1 -13 -14 1 -15 hhcurveto
          -152 -145 -109 -127 -87 50 -34 80 hvcurveto
          -8 15 -27 20 82 -32 callsubr
          144 vlineto
          endchar
        </CharString>
        <CharString name="IJ">
          229 -207 50 178 -21 750 -20 hstemhm
          2 callgsubr
          -115 90 -90 197 46 149 hintmask 11111001
          357 748 rmoveto
          1 -13 -14 1 -15 hhcurveto
          -152 -145 -109 -127 -87 50 -34 80 hvcurveto
          -8 15 -27 20 82 -32 callsubr
          40 vlineto
          hintmask 11110101
          -8 -18 -3 -22 -22 vvcurveto
          -85 55 -60 123 161 53 104 143 vhcurveto
          710 vlineto
          -149 -33 rlineto
          -751 vlineto
          -99 -37 -24 -37 -37 -42 23 51 35 20 30 33 15 18 -6 -15 19 vhcurveto
          hintmask 11110011
          1 6 1 8 7 vvcurveto
          hintmask 11111001
          42 -37 29 -45 5 vhcurveto
          endchar
        </CharString>
        <CharString name="Iacute">
          63 callgsubr
          -20 81 189 hstem
          2 callgsubr
          vstem
          357 748 rmoveto
          1 -13 -14 1 -15 hhcurveto
          -152 -145 -109 -127 -87 50 -34 80 hvcurveto
          -8 15 -27 20 82 -32 callsubr
          144 vlineto
          -106 811 -101 callgsubr
        </CharString>
        <CharString name="Icircumflex">
          63 callgsubr
          61 189 -20 hstem
          2 callgsubr
          vstem
          357 748 rmoveto
          1 -13 -14 1 -15 hhcurveto
          -152 -145 -109 -127 -87 50 -34 80 hvcurveto
          -8 15 -27 20 82 -32 callsubr
          144 vlineto
          69 811 rmoveto
          -100 189 rlineto
          -21 hlineto
          -172 -189 rlineto
          44 hlineto
          140 80 77 -80 rlineto
          endchar
        </CharString>
        <CharString name="Idieresis">
          63 callgsubr
          -20 93 122 hstemhm
          18 95 21 122 -43 144 -43 122 hintmask 11110100
          357 748 rmoveto
          1 -13 -14 1 -15 hhcurveto
          -152 -145 -109 -127 -87 50 -34 80 hvcurveto
          -8 15 -27 20 82 -32 callsubr
          144 vlineto
          hintmask 11111010
          -43 884 -97 callsubr
        </CharString>
        <CharString name="Igrave">
          63 callgsubr
          -20 81 189 hstem
          2 callgsubr
          vstem
          357 748 rmoveto
          1 -13 -14 1 -15 hhcurveto
          -152 -145 -109 -127 -87 50 -34 80 hvcurveto
          -8 15 -27 20 82 -32 callsubr
          144 vlineto
          -111 811 rmoveto
          75 hlineto
          -69 -43 callgsubr
        </CharString>
        <CharString name="J">
          -17 -207 50 144 81 682 -20 hstemhm
          -3 90 -90 212 -159 95 102 141 hintmask 11100110
          348 750 rmoveto
          -153 -145 -106 -135 -79 50 -37 80 hvcurveto
          -5 10 -30 24 78 vvcurveto
          92 41 55 61 28 vhcurveto
          -714 vlineto
          -104 -32 -19 -38 vhcurveto
          hintmask 11110010
          -50 -40 32 54 35 17 23 49 hvcurveto
          hintmask 11101010
          21 14 -4 -17 21 hvcurveto
          95 -54 7 -31 -108 -19 -83 -49 -89 62 -54 123 151 55 82 155 vhcurveto
          720 vlineto
          endchar
        </CharString>
        <CharString name="K">
          198 4 -21 38 -21 381 45 319 -20 25 -20 hstemhm
          2 callgsubr
          112 128 hintmask 01101111
          357 16 callsubr
          -7 12 -28 27 73 vvcurveto
          83 36 59 64 31 vhcurveto
          -678 144 377 vlineto
          2 9 13 2 12 hhcurveto
          61 17 -50 -72 hvcurveto
          -47 -7 -81 -37 vvcurveto
          hintmask 10101111
          -77 30 -34 65 vhcurveto
          hintmask 01110111
          35 callsubr
          123 -54 45 -102 vhcurveto
          -15 -6 -1 -14 hhcurveto
          213 320 rlineto
          -93 hlineto
          -174 -317 rlineto
          endchar
        </CharString>
        <CharString name="L">
          2 -250 141 849 -20 hstem
          17 95 99 145 vstem
          356 -20 callsubr
          -692 -39 callgsubr
          endchar
        </CharString>
        <CharString name="Lslash">
          43 -250 141 849 -20 hstem
          18 95 99 145 vstem
          357 -20 callsubr
          -312 vlineto
          -63 -47 9 -53 54 39 rlineto
          -319 -39 callgsubr
          382 vlineto
          112 82 -9 61 -103 -78 rlineto
          endchar
        </CharString>
        <CharString name="M">
          337 21 -21 750 -20 hstem
          21 94 482 134 vstem
          205 hmoveto
          71 449 76 -449 rlineto
          137 hlineto
          93 449 31 -449 rlineto
          144 hlineto
          -51 736 rlineto
          -144 hlineto
          -108 -527 -89 527 rlineto
          9 -26 -26 5 -29 hhcurveto
          -137 -126 -121 -118 -85 53 -33 77 hvcurveto
          -8 15 -28 21 81 vvcurveto
          85 43 61 74 29 vhcurveto
          -107 -685 rlineto
          endchar
        </CharString>
        <CharString name="N">
          41 callgsubr
          51 callgsubr
          hintmask 11011100
          5 callsubr
          hintmask 10111100
          -79 callsubr
          hintmask 11011100
          748 vlineto
          endchar
        </CharString>
        <CharString name="N.salt">
          252 -33 callsubr
          659 91 hstemhm
          18 95 87 157 147 128 hintmask 01111100
          357 748 rmoveto
          1 -13 -14 1 -15 hhcurveto
          -152 -145 -109 -127 -87 50 -34 80 hvcurveto
          -5 15 -30 8 94 vvcurveto
          73 31 56 56 32 vhcurveto
          -671 157 546 vlineto
          50 37 63 41 23 46 -19 -134 vhcurveto
          -76 -6 -158 -80 vvcurveto
          hintmask 10111100
          -124 46 -74 101 53 73 21 164 21 vhcurveto
          -42 hlineto
          -52 -11 -11 -36 -44 hhcurveto
          -37 -15 26 66 hvcurveto
          75 10 170 92 vvcurveto
          152 -67 78 -91 -59 -44 -36 -60 -24 vhcurveto
          endchar
        </CharString>
        <CharString name="Nacute">
          41 callgsubr
          81 189 51 callgsubr
          hintmask 11011110
          5 callsubr
          hintmask 10111110
          -79 callsubr
          hintmask 11011110
          748 vlineto
          -258 63 -101 callgsubr
        </CharString>
        <CharString name="Ntilde">
          41 callgsubr
          89 78 -41 41 -41 74 51 callgsubr
          hintmask 1101001110000000
          5 callsubr
          hintmask 1011001110000000
          -79 callsubr
          hintmask 1100101110000000
          748 vlineto
          -43 172 -41 callsubr
          hintmask 1010011110000000
          -92 callsubr
          hintmask 1011001110000000
          -63 callgsubr
          endchar
        </CharString>
        <CharString name="O">
          -2 callgsubr
          hstem
          -31 callsubr
          140 vstem
          -106 callgsubr
          endchar
        </CharString>
        <CharString name="OE">
          419 0 83 -83 106 -91 -21 351 74 211 108 -34 46 hstemhm
          -31 callsubr
          139 hintmask 1001101110000000
          669 419 rmoveto
          -4 97 -24 88 -55 61 rrcurveto
          -9 65 66 -26 74 hhcurveto
          hintmask 1001011110000000
          67 -2 78 42 5 hvcurveto
          hintmask 1001101110000000
          -9 -26 -31 -3 -31 hhcurveto
          hintmask 1001011110000000
          -63 -65 12 -40 hhcurveto
          -56 -36 -6 -12 -31 hvcurveto
          12 -34 -38 6 -45 hhcurveto
          -192 -156 -114 -136 -74 46 -33 76 hvcurveto
          -14 21 -13 22 49 vvcurveto
          140 106 79 129 99 84 -47 -244 -171 -41 -159 -80 -38 -63 36 193 127 27 179 56 38 vhcurveto
          6 -19 -18 2 -14 hhcurveto
          -139 -42 -208 -145 hvcurveto
          hintmask 0011101110000000
          -239 113 -78 128 vhcurveto
          hintmask 1001101110000000
          23 22 3 3 19 hvcurveto
          386 hlineto
          hintmask 0101101110000000
          106 -246 vlineto
          42 67 18 88 5 84 rrcurveto
          132 74 hlineto
          endchar
        </CharString>
        <CharString name="Oacute">
          -2 callgsubr
          61 189 hstem
          -31 callsubr
          140 vstem
          -106 callgsubr
          -21 155 -101 callgsubr
        </CharString>
        <CharString name="Ocircumflex">
          246 -6 89 581 40 0 46 0 61 189 -20 hstemhm
          -31 callsubr
          140 hintmask 11011111
          391 656 rmoveto
          6 -19 -18 2 -14 hhcurveto
          -139 -42 -208 -145 -239 113 -78 128 213 57 218 175 hvcurveto
          hintmask 10101111
          20 callgsubr
          vhcurveto
          -14 21 -13 22 49 vvcurveto
          140 106 79 129 99 84 -47 -244 -171 -41 -159 -80 -38 -63 36 193 127 27 179 56 38 vhcurveto
          hintmask 11011111
          168 155 rmoveto
          -100 189 rlineto
          -21 hlineto
          -172 -189 rlineto
          44 hlineto
          140 80 77 -80 rlineto
          endchar
        </CharString>
        <CharString name="Odieresis">
          -2 callgsubr
          73 122 hstemhm
          11 callsubr
          -57 45 callsubr
          -23 140 hintmask 11111001
          -106 callgsubr
          hintmask 11110110
          -140 228 rmoveto
          -105 callgsubr
          180 -69 callgsubr
        </CharString>
        <CharString name="Ograve">
          -2 callgsubr
          61 189 hstem
          -31 callsubr
          140 vstem
          -106 callgsubr
          -16 155 rmoveto
          75 hlineto
          -69 -43 callgsubr
        </CharString>
        <CharString name="Ohungarumlaut">
          -2 callgsubr
          61 189 hstem
          -31 callsubr
          140 vstem
          -106 callgsubr
          -63 155 -63 callsubr
          79 -189 -63 callsubr
          endchar
        </CharString>
        <CharString name="Oslash">
          209 -50 -21 86 -21 665 43 48 -20 hstem
          16 92 44 144 83 52 80 134 vstem
          431 -71 rmoveto
          71 vlineto
          159 33 55 184 146 vvcurveto
          157 -50 142 -164 33 vhcurveto
          55 -52 -49 vlineto
          -8 -9 1 -8 hhcurveto
          -188 -150 -110 -121 -75 45 -28 73 hvcurveto
          -2 11 -24 8 72 vvcurveto
          123 101 77 131 13 13 -1 -3 13 vhcurveto
          -40 vlineto
          5 -17 -15 2 -15 hhcurveto
          -133 -47 -198 -141 -214 97 -75 130 hvcurveto
          -65 vlineto
          -83 354 rmoveto
          122 29 162 54 44 vhcurveto
          -541 vlineto
          -59 8 -24 96 109 vvcurveto
          215 103 rmoveto
          -120 -31 -127 -49 -49 vhcurveto
          545 vlineto
          49 -33 31 -73 -143 vvcurveto
          endchar
        </CharString>
        <CharString name="Otilde">
          -2 callgsubr
          69 -14 callgsubr
          -31 callsubr
          61 -61 140 hintmask 1101011010000000
          -106 callgsubr
          193 264 -41 callsubr
          hintmask 1100111100000000
          -92 callsubr
          hintmask 1110011100000000
          -63 callgsubr
          endchar
        </CharString>
        <CharString name="P">
          151 21 -21 704 46 hstem
          2 callgsubr
          128 115 vstem
          8 callsubr
          285 5 vlineto
          158 80 130 110 135 -110 90 -162 -169 -141 -106 -135 -80 50 -36 80 hvcurveto
          -13 18 -22 20 71 vvcurveto
          140 84 62 119 150 19 -98 -65 -101 -46 -109 -82 -9 vhcurveto
          334 vlineto
          endchar
        </CharString>
        <CharString name="Q">
          246 -113 84 23 89 -89 163 547 46 hstemhm
          -31 callsubr
          140 hintmask 10111110
          391 656 rmoveto
          6 -19 -18 2 -14 hhcurveto
          -139 -42 -208 -145 -239 113 -78 128 32 28 5 9 25 hvcurveto
          -60 30 36 -61 86 hhcurveto
          47 28 18 68 12 hvcurveto
          -1 -8 -6 -1 -10 hhcurveto
          -62 -39 39 42 -39 hvcurveto
          83 77 27 139 119 vvcurveto
          20 callgsubr
          vhcurveto
          -14 21 -13 22 49 vvcurveto
          140 106 79 129 99 84 -47 -244 -114 -18 -108 -36 -60 vhcurveto
          16 -24 -27 10 -33 hhcurveto
          -18 -20 -3 -7 -22 hvcurveto
          -14 35 -10 52 78 vvcurveto
          127 27 179 56 38 vhcurveto
          -16 -536 rmoveto
          26 20 -12 -18 16 hvcurveto
          hintmask 11011110
          -5 -9 -9 -2 -10 hhcurveto
          -18 -22 7 27 -19 hvcurveto
          2 9 8 1 8 hhcurveto
          endchar
        </CharString>
        <CharString name="R">
          203 4 -21 38 -21 381 44 279 46 hstemhm
          18 96 99 144 112 112 -112 128 hintmask 01111101
          8 callsubr
          377 vlineto
          3 12 11 1 10 hhcurveto
          62 17 -49 -73 hvcurveto
          -47 -7 -81 -37 vvcurveto
          hintmask 10111110
          -77 30 -34 65 vhcurveto
          hintmask 01111101
          35 callsubr
          97 -33 48 -65 16 vhcurveto
          hintmask 01111110
          51 35 26 57 58 vvcurveto
          116 -102 65 -143 -188 -130 -111 -130 -80 50 -36 80 vhcurveto
          -5 10 -29 25 75 vvcurveto
          131 89 70 122 131 18 -80 -51 -75 -39 -73 -70 vhcurveto
          -8 231 hlineto
          endchar
        </CharString>
        <CharString name="S">
          17 callgsubr
          hstemhm
          33 118 -81 81 -81 135 158 93 -93 157 hintmask 1101010010000000
          456 624 rmoveto
          121 -132 5 -38 -133 -83 -63 -115 vhcurveto
          -217 293 19 -210 vvcurveto
          -74 -36 -28 -64 -64 -48 28 69 72 53 18 48 vhcurveto
          52 -19 -49 14 -31 hhcurveto
          hintmask 1110100010000000
          -64 -56 -57 -92 -137 123 -47 123 138 103 60 150 hvcurveto
          hintmask 1101001100000000
          263 -315 -42 194 vvcurveto
          55 25 37 60 54 27 -30 -41 -26 -10 -29 -19 -13 vhcurveto
          hintmask 1110100100000000
          -15 16 16 -6 18 hhcurveto
          41 23 35 50 hvcurveto
          endchar
        </CharString>
        <CharString name="Sacute">
          17 callgsubr
          61 189 -91 callsubr
          -224 187 -101 callgsubr
        </CharString>
        <CharString name="Scaron">
          17 callgsubr
          250 -20 -91 callsubr
          -287 376 rmoveto
          100 -189 rlineto
          21 hlineto
          172 189 rlineto
          -44 hlineto
          -140 -80 -77 80 rlineto
          endchar
        </CharString>
        <CharString name="T">
          221 21 -21 620 106 -64 87 hstemhm
          20 97 165 145 hintmask 11011000
          582 620 rmoveto
          76 30 32 60 11 -1 11 -2 13 hvcurveto
          -11 -25 -38 -10 -55 hhcurveto
          hintmask 10111000
          -83 -59 23 -107 hhcurveto
          -218 -80 -97 -126 -100 50 -34 84 hvcurveto
          -10 13 -27 16 87 vvcurveto
          97 34 57 121 vhcurveto
          10 -662 145 642 hlineto
          hintmask 11011000
          -12 57 55 -10 43 hhcurveto
          endchar
        </CharString>
        <CharString name="T_h">
          558 0 91 -76 -21 419 91 160 85 hstemhm
          20 97 163 146 134 135 111 132 hintmask 10111111
          117 514 rmoveto
          111 71 35 92 4 vhcurveto
          -664 146 655 vlineto
          47 -6 46 -8 41 -3 rrcurveto
          -638 135 326 vlineto
          48 6 18 39 35 hhcurveto
          33 19 -31 -78 hvcurveto
          -32 -2 -60 -36 vvcurveto
          hintmask 01111111
          -107 43 -75 105 53 72 21 164 21 vhcurveto
          -42 hlineto
          hintmask 10111111
          -52 -11 -10 -36 -44 hhcurveto
          -40 callgsubr
          -32 -42 -9 -49 -33 vhcurveto
          82 vlineto
          154 8 27 13 38 vhcurveto
          -18 -25 -42 -6 -49 -102 -128 26 -46 hhcurveto
          -215 -87 -104 -115 -101 45 -37 88 hvcurveto
          -5 15 -31 9 98 vvcurveto
          endchar
        </CharString>
        <CharString name="T_i">
          332 -33 callsubr
          500 -20 101 152 -59 75 hstemhm
          20 95 166 146 0 136 0 144 0 123 hintmask 0111011010000000
          281 hmoveto
          146 637 hlineto
          -29 91 63 -27 45 hhcurveto
          33 53 15 65 16 -3 28 -23 42 hvcurveto
          -11 -24 -44 -3 -46 hhcurveto
          hintmask 0110110110000000
          -106 -94 16 -76 hhcurveto
          -192 -84 -102 -123 -95 51 -37 83 hvcurveto
          -3 10 -36 20 100 vvcurveto
          116 49 36 78 13 13 -1 -2 14 vhcurveto
          281 -171 rmoveto
          -351 vlineto
          hintmask 1011011001000000
          -55 callsubr
        </CharString>
        <CharString name="Thorn">
          153 21 -21 175 37 382 45 111 -20 hstem
          19 95 77 145 151 114 vstem
          191 730 rmoveto
          -116 vlineto
          -98 -40 -74 -81 -87 vvcurveto
          -86 43 -37 88 vhcurveto
          -5 15 -31 9 96 vvcurveto
          70 26 54 51 32 vhcurveto
          -559 145 175 28 vlineto
          157 80 115 113 115 -87 114 -178 7 hvcurveto
          111 vlineto
          -538 vmoveto
          382 vlineto
          104 -4 47 -85 -92 vvcurveto
          -96 -49 -105 -89 vhcurveto
          endchar
        </CharString>
        <CharString name="U">
          -19 callsubr
          -20 hstemhm
          17 95 136 143 193 142 hintmask 11011100
          -81 callgsubr
          hintmask 10111100
          -102 callsubr
          hintmask 11011100
          538 vlineto
          endchar
        </CharString>
        <CharString name="Uacute">
          -101 callsubr
          -298 63 -101 callgsubr
        </CharString>
        <CharString name="Ucircumflex">
          -19 callsubr
          61 189 -20 hstem
          17 95 136 143 193 142 vstem
          -81 callgsubr
          -102 callsubr
          538 vlineto
          -115 63 rmoveto
          -100 189 rlineto
          -21 hlineto
          -172 -189 rlineto
          44 hlineto
          140 80 77 -80 rlineto
          endchar
        </CharString>
        <CharString name="Udieresis">
          -19 callsubr
          -20 93 122 hstemhm
          17 95 136 143 -57 45 callsubr
          -52 142 hintmask 1101110010000000
          -81 callgsubr
          hintmask 1011110010000000
          -102 callsubr
          hintmask 1101110010000000
          538 vlineto
          hintmask 1011101100000000
          -212 136 -97 callsubr
        </CharString>
        <CharString name="Ugrave">
          -101 callsubr
          -274 63 rmoveto
          75 hlineto
          -69 -43 callgsubr
        </CharString>
        <CharString name="Uhungarumlaut">
          -101 callsubr
          -201 63 -63 callsubr
          -181 -189 -63 callsubr
          endchar
        </CharString>
        <CharString name="V">
          262 31 callgsubr
          hintmask 10110000
          356 748 rmoveto
          1 -13 -14 1 -15 hhcurveto
          -152 -145 -109 -127 -87 50 -34 80 hvcurveto
          -8 15 -27 21 81 vvcurveto
          82 39 63 70 28 vhcurveto
          181 -683 rlineto
          148 hlineto
          hintmask 11010000
          168 745 rlineto
          -74 hlineto
          -132 -612 rlineto
          endchar
        </CharString>
        <CharString name="W">
          558 31 callgsubr
          hintmask 10110000
          356 16 callsubr
          -5 11 -30 23 79 vvcurveto
          88 38 60 71 29 vhcurveto
          141 -683 rlineto
          144 hlineto
          102 509 100 -509 rlineto
          151 hlineto
          hintmask 11010000
          139 745 rlineto
          -77 hlineto
          -99 -612 -120 612 rlineto
          -127 hlineto
          -99 -612 rlineto
          endchar
        </CharString>
        <CharString name="X">
          42 callsubr
          hstemhm
          18 95 hintmask 11010000
          651 hmoveto
          -152 384 150 361 rlineto
          -65 hlineto
          -118 -276 -109 279 rlineto
          hintmask 10110000
          1 -13 -14 1 -15 hhcurveto
          -152 -145 -109 -127 -87 50 -34 80 hvcurveto
          -8 16 -27 17 84 vvcurveto
          82 39 63 70 28 vhcurveto
          129 -327 -165 -356 rlineto
          65 hlineto
          133 272 108 -272 rlineto
          endchar
        </CharString>
        <CharString name="Y">
          198 31 callgsubr
          260 160 hintmask 11011000
          -38 callgsubr
          hintmask 10111000
          1 -13 -14 1 -15 hhcurveto
          -152 -145 -109 -127 -87 50 -34 80 hvcurveto
          -8 16 -27 17 84 vvcurveto
          82 39 63 70 28 vhcurveto
          151 -375 rlineto
          -308 vlineto
          endchar
        </CharString>
        <CharString name="Yacute">
          42 callsubr
          81 189 hstemhm
          17 95 260 160 hintmask 11011100
          -38 callgsubr
          hintmask 10111100
          1 -13 -14 1 -15 hhcurveto
          -152 -145 -109 -127 -87 50 -34 80 hvcurveto
          -8 16 -27 17 84 vvcurveto
          82 39 63 70 28 vhcurveto
          151 -375 rlineto
          -308 vlineto
          58 811 -101 callgsubr
        </CharString>
        <CharString name="Ydieresis">
          42 callsubr
          93 122 hstemhm
          17 95 222 122 -84 160 -18 122 hintmask 11011010
          -38 callgsubr
          hintmask 10111010
          1 -13 -14 1 -15 hhcurveto
          -152 -145 -109 -127 -87 50 -34 80 hvcurveto
          -8 16 -27 17 84 vvcurveto
          82 39 63 70 28 vhcurveto
          151 -375 rlineto
          -308 vlineto
          hintmask 11011101
          142 884 -97 callsubr
        </CharString>
        <CharString name="Z">
          -19 callgsubr
          hstemhm
          18 112 314 115 hintmask 10101100
          470 85 -87 callgsubr
          hintmask 10011100
          -64 callsubr
          hintmask 01101100
          -27 callgsubr
          endchar
        </CharString>
        <CharString name="Zacute">
          -19 callgsubr
          61 189 -80 callgsubr
          -206 726 -101 callgsubr
        </CharString>
        <CharString name="Zcaron">
          -19 callgsubr
          250 -20 -80 callgsubr
          -285 915 rmoveto
          100 -189 rlineto
          21 hlineto
          172 189 rlineto
          -44 hlineto
          -140 -80 -77 80 rlineto
          endchar
        </CharString>
        <CharString name="Zdotaccent">
          -19 callgsubr
          70 127 hstemhm
          18 112 84 127 103 115 hintmask 10101111
          214 883 25 callgsubr
          256 -798 -87 callgsubr
          hintmask 10011111
          -64 callsubr
          hintmask 01101111
          -27 callgsubr
          endchar
        </CharString>
        <CharString name="a">
          -34 callsubr
          hstemhm
          30 146 0 139 0 144 0 123 hintmask 10110100
          315 -60 callgsubr
          -48 vlineto
          hintmask 11010010
          -103 callsubr
          hintmask 10110100
          -23 callgsubr
          hintmask 11001010
          -35 callgsubr
          endchar
        </CharString>
        <CharString name="a.end">
          84 -31 callgsubr
          -61 callsubr
          hintmask 10111000
          315 -60 callgsubr
          -48 vlineto
          hintmask 11011000
          -86 callsubr
          -3 -6 -5 -1 -9 hhcurveto
          -39 -13 13 56 hvcurveto
          hintmask 10111000
          -13 callsubr
          hintmask 11011000
          -54 callsubr
          endchar
        </CharString>
        <CharString name="a_x">
          448 -6 97 362 52 -52 103 -62 callgsubr
          -94 42 39 -40 63 36 callsubr
          -44 -18 49 39 -15 hvcurveto
          -20 50 rlineto
          64 90 32 67 56 vvcurveto
          hintmask 10101110
          58 -35 -45 callsubr
          hintmask 10011101
          3 -4 2 -4 -16 vvcurveto
          -36 -23 -54 -39 -56 vhcurveto
          -85 215 -28 callsubr
          124 -314 rlineto
          -51 -31 -57 -44 -52 hhcurveto
          -50 -4 37 32 hvcurveto
          -13 callsubr
          -8 callgsubr
          endchar
        </CharString>
        <CharString name="a_x.end">
          462 -27 callsubr
          -62 113 -62 callgsubr
          -95 42 39 -39 63 hhcurveto
          49 40 26 57 6 0 7 -1 7 hvcurveto
          -3 -5 -8 -3 -18 hhcurveto
          -45 -13 29 59 -23 hvcurveto
          -20 50 rlineto
          64 90 32 67 56 vvcurveto
          hintmask 10101110
          58 -35 -45 callsubr
          hintmask 10011101
          3 -4 2 -4 -16 vvcurveto
          -36 -23 -54 -39 -56 vhcurveto
          -85 215 -28 callsubr
          124 -314 rlineto
          -51 -31 -57 -44 -52 hhcurveto
          -50 -4 37 32 hvcurveto
          -23 callgsubr
          hintmask 11001110
          -35 callgsubr
          endchar
        </CharString>
        <CharString name="a_z">
          455 14 callsubr
          57 callgsubr
          -61 callsubr
          73 -38 callsubr
          hintmask 1000001111100000
          315 -60 callgsubr
          -48 vlineto
          hintmask 1000100111100000
          -86 callsubr
          hintmask 0100001111100000
          -56 callgsubr
          340 vlineto
          384 -409 rmoveto
          hintmask 1000001111100000
          -16 -19 -4 -24 -27 -44 5 1 -17 vhcurveto
          48 callgsubr
          hintmask 1000100111100000
          -77 callgsubr
          hintmask 0001010111100000
          -104 callsubr
          hintmask 0010100111100000
          -92 callgsubr
          vhcurveto
          hintmask 0100100111100000
          -80 callsubr
          -577 352 -4 callsubr
        </CharString>
        <CharString name="aacute">
          -34 callsubr
          81 189 -61 callsubr
          0 123 hintmask 10111100
          315 -60 callgsubr
          -48 vlineto
          hintmask 11011010
          -103 callsubr
          hintmask 10111100
          -13 callsubr
          hintmask 11011100
          -8 callgsubr
          -45 118 -101 callgsubr
        </CharString>
        <CharString name="aacute.end">
          85 -31 callgsubr
          81 189 -61 callsubr
          hintmask 10111100
          315 -60 callgsubr
          -48 vlineto
          hintmask 11011100
          -86 callsubr
          -3 -6 -5 -1 -9 hhcurveto
          -39 -13 13 56 hvcurveto
          hintmask 10111100
          -13 callsubr
          hintmask 11011100
          -54 callsubr
          -46 118 -101 callgsubr
        </CharString>
        <CharString name="acircumflex">
          -34 callsubr
          25 56 189 -20 -61 callsubr
          0 123 hintmask 10111110
          315 -60 callgsubr
          -48 vlineto
          hintmask 11001101
          -103 callsubr
          hintmask 10111110
          -13 callsubr
          hintmask 11001110
          -54 callsubr
          hintmask 10111110
          160 118 rmoveto
          -100 189 rlineto
          -21 hlineto
          -172 -189 rlineto
          44 hlineto
          140 80 77 -80 rlineto
          endchar
        </CharString>
        <CharString name="acute">
          -135 561 189 hstem
          1 561 -101 callgsubr
        </CharString>
        <CharString name="adieresis">
          -34 callsubr
          93 122 hstemhm
          30 146 -31 122 0 48 0 132 12 123 hintmask 1011100110000000
          315 -60 callgsubr
          -48 vlineto
          hintmask 1101100110000000
          -103 callsubr
          hintmask 1011100110000000
          -23 callgsubr
          hintmask 1101101010000000
          -35 callgsubr
          hintmask 1101010110000000
          -170 230 rmoveto
          -105 callgsubr
          180 -69 callgsubr
        </CharString>
        <CharString name="ae">
          195 -4 82 -82 95 -76 -21 208 48 -21 61 155 64 -4 -20 hstemhm
          46 140 110 146 115 78 hintmask 0011010111000000
          205 -6 rmoveto
          80 26 45 51 16 hvcurveto
          hintmask 1001010111000000
          -67 33 61 -27 73 hhcurveto
          136 64 93 61 callsubr
          -36 -27 17 75 -16 hvcurveto
          -2 10 -2 11 -1 11 rrcurveto
          106 6 84 77 96 vvcurveto
          82 -45 46 -89 -54 -42 -17 -27 -30 vhcurveto
          hintmask 1001001111000000
          28 -40 -48 12 -50 hhcurveto
          -56 -52 -2 -76 -58 hvcurveto
          34 -29 rlineto
          hintmask 0010110111000000
          26 24 27 21 60 hhcurveto
          52 28 -44 -58 -18 -2 -23 -4 -16 hvcurveto
          2 -12 -17 2 -24 hhcurveto
          -110 -81 -35 -97 -132 90 -32 69 hvcurveto
          352 393 rmoveto
          hintmask 1001010111000000
          -68 -48 -65 -67 -4 vhcurveto
          96 1 25 110 52 hhcurveto
          18 19 -16 -53 hvcurveto
          hintmask 0100110111000000
          -279 -158 rmoveto
          6 5 0 -1 7 hvcurveto
          -109 -1 -17 -28 -33 hhcurveto
          -14 -45 5 60 44 35 29 57 hvcurveto
          endchar
        </CharString>
        <CharString name="agrave">
          -34 callsubr
          81 189 -61 callsubr
          0 123 hintmask 10111100
          315 -60 callgsubr
          -48 vlineto
          hintmask 11011010
          -103 callsubr
          hintmask 10111100
          -13 callsubr
          hintmask 11011100
          -54 callsubr
          -25 118 rmoveto
          75 hlineto
          -69 -43 callgsubr
        </CharString>
        <CharString name="ampersand">
          219 -18 96 200 97 152 225 -56 56 hstemhm
          36 -13 callgsubr
          124 206 -183 74 hintmask 11010110
          656 413 rmoveto
          -30 -10 -38 -13 -37 -25 -24 5 -28 hhcurveto
          -103 -58 -59 -82 -2 hvcurveto
          7 -1 rlineto
          30 12 29 15 43 hhcurveto
          25 27 -5 -1 28 hvcurveto
          -131 -12 -51 -63 -111 hhcurveto
          -85 -36 64 73 46 callsubr
          56 48 vhcurveto
          hintmask 11100101
          32 40 -12 -65 -29 -7 -30 -19 -10 hvcurveto
          -19 17 14 -4 15 hhcurveto
          34 20 45 46 65 -45 69 -123 -112 -67 -92 -91 -58 27 -54 64 -40 hvcurveto
          hintmask 11101010
          -91 -23 -45 -101 -90 vvcurveto
          -113 75 -108 152 169 102 130 162 3 vhcurveto
          74 11 53 59 53 vvcurveto
          5 -1 6 -1 5 vhcurveto
          endchar
        </CharString>
        <CharString name="aogonek">
          75 -193 59 128 91 358 62 -5 -20 -61 callsubr
          -63 77 hintmask 11011100
          315 -60 callgsubr
          -52 vlineto
          hintmask 11101010
          29 -7 -23 28 -64 hhcurveto
          -139 -52 -157 -122 -174 92 -58 84 70 38 45 46 21 hvcurveto
          16 -55 38 -30 50 -5 rrcurveto
          -28 -31 -15 -35 -29 vvcurveto
          -40 35 -53 63 52 23 39 23 21 vhcurveto
          -3 12 -1 7 -1 12 rrcurveto
          -13 -17 -20 -21 -24 hhcurveto
          -33 -18 37 26 35 22 32 17 9 hvcurveto
          42 21 45 43 16 110 rrcurveto
          -42 hlineto
          -50 -5 -17 -44 -39 hhcurveto
          hintmask 11011100
          -41 -12 26 49 hvcurveto
          -13 callsubr
          hintmask 11101100
          -193 -57 rmoveto
          30 14 -22 -13 5 hvcurveto
          -229 vlineto
          -58 -36 -30 -88 callsubr
          endchar
        </CharString>
        <CharString name="aring">
          -34 callsubr
          72 35 93 33 hstemhm
          30 146 22 40 77 41 103 123 hintmask 1011111110000000
          315 -60 callgsubr
          -48 vlineto
          hintmask 1101111110000000
          -103 callsubr
          hintmask 1011111110000000
          -23 callgsubr
          hintmask 1101111110000000
          -35 callgsubr
          -34 309 -39 callsubr
        </CharString>
        <CharString name="asciicircum">
          -30 44 callgsubr
          224 561 rmoveto
          -100 189 rlineto
          -21 hlineto
          -172 -189 rlineto
          44 hlineto
          140 80 77 -80 rlineto
          endchar
        </CharString>
        <CharString name="asciitilde">
          -13 569 -14 callgsubr
          hintmask 01000000
          405 670 -41 callsubr
          hintmask 00100000
          -92 callsubr
          hintmask 10000000
          -63 callgsubr
          endchar
        </CharString>
        <CharString name="asterisk">
          -51 397 -21 376 -20 hstem
          166 65 vstem
          166 752 rmoveto
          -137 vlineto
          -113 64 -25 -52 112 -63 -105 -63 35 -52 96 57 rlineto
          -130 65 136 vlineto
          113 -63 25 52 -109 61 108 65 -35 52 -102 -61 rlineto
          134 vlineto
          endchar
        </CharString>
        <CharString name="at">
          113 -38 81 77 70 -54 54 203 39 72 53 hstemhm
          34 100 62 58 -58 246 33 58 hintmask 1101110110000000
          238 -38 rmoveto
          124 80 46 63 16 -5 19 -18 8 hvcurveto
          -42 -33 -49 -29 -70 hhcurveto
          -101 -32 61 80 138 97 182 141 79 24 -57 -56 -87 -59 -114 -28 -6 -6 5 14 7 2 8 2 8 hvcurveto
          45 192 -55 6 -4 -15 rlineto
          9 -7 -13 8 -19 hhcurveto
          -82 -49 -136 -88 -60 23 -28 36 29 18 18 24 16 hvcurveto
          hintmask 1011111010000000
          -15 7 14 -11 24 hhcurveto
          85 85 134 130 138 -97 19 -61 -186 -155 -175 -218 -154 110 -48 94 hvcurveto
          77 254 rmoveto
          -2 -6 -1 -6 -6 vvcurveto
          -11 -14 -14 -8 -9 hhcurveto
          -16 -5 26 19 51 36 118 47 9 7 -4 -6 5 hvcurveto
          endchar
        </CharString>
        <CharString name="atilde">
          -34 callsubr
          89 78 -41 41 -41 74 -61 callsubr
          0 123 hintmask 1011001100000000
          315 -60 callgsubr
          -48 vlineto
          hintmask 1101001010000000
          -103 callsubr
          hintmask 1011001100000000
          -13 callsubr
          hintmask 1100101100000000
          -8 callgsubr
          193 227 -41 callsubr
          hintmask 1100011100000000
          -92 callsubr
          hintmask 1101001100000000
          -63 callgsubr
          endchar
        </CharString>
        <CharString name="b">
          -7 -6 97 341 73 195 -20 hstem
          46 145 137 103 vstem
          38 callgsubr
          153 -67 84 -95 -23 -19 -5 -25 -36 vhcurveto
          225 -10 callsubr
          281 -421 rmoveto
          -41 callgsubr
          12 10 26 6 16 hhcurveto
          52 33 -66 -107 hvcurveto
          endchar
        </CharString>
        <CharString name="b_s">
          335 45 callgsubr
          210 73 195 -20 -73 callgsubr
          108 132 -103 103 40 -26 callgsubr
          hintmask 1011110111000000
          846 179 rmoveto
          -15 -15 -22 -19 -23 -15 -1 103 -38 40 -66 258 -144 -20 rcurveline
          -33 -89 -37 -55 -44 -13 rrcurveto
          -53 callsubr
          -531 vlineto
          -94 53 -91 callgsubr
          51 54 18 49 25 hvcurveto
          37 27 43 36 37 55 rrcurveto
          -560 80 rmoveto
          hintmask 0111111011000000
          -68 callgsubr
          hintmask 1011110111000000
          39 callsubr
        </CharString>
        <CharString name="b_s.end">
          359 45 callgsubr
          210 73 195 -20 hstemhm
          46 145 108 132 -103 103 40 -26 callgsubr
          hintmask 1011110111000000
          46 149 rmoveto
          -94 54 -91 callgsubr
          71 74 35 100 28 callgsubr
          hvcurveto
          -144 -20 -33 -89 -37 -55 -44 -13 rlinecurve
          -53 callsubr
          281 -421 rmoveto
          hintmask 0111111011000000
          -68 callgsubr
          hintmask 1011110111000000
          39 callsubr
        </CharString>
        <CharString name="b_s_x">
          714 45 callgsubr
          210 73 -53 112 -64 -20 220 -20 -73 callgsubr
          108 132 -103 103 40 -26 callgsubr
          215 138 hintmask 1010011110111000
          774 -60 callgsubr
          120 -305 -27 -29 -44 -26 -37 -17 rlinecurve
          6 vlineto
          28 callgsubr
          vhcurveto
          -144 -20 -33 -89 -37 -55 -44 -13 rlinecurve
          hintmask 1011001101111000
          -53 callsubr
          -531 vlineto
          -94 53 -91 callgsubr
          51 52 18 47 26 hvcurveto
          38 21 64 26 44 37 rrcurveto
          -105 45 39 -44 66 -59 callsubr
          hintmask 0110101110111000
          -50 -5 -28 -38 -39 hhcurveto
          -52 -10 49 39 -15 hvcurveto
          -18 45 rlineto
          64 86 51 96 67 vvcurveto
          -24 callgsubr
          1 -5 0 -4 -5 vvcurveto
          -40 -30 -48 -49 -67 vhcurveto
          hintmask 0110011101111000
          -85 215 rlineto
          -587 -241 rmoveto
          -41 callgsubr
          hintmask 1011001110111000
          12 10 26 6 16 hhcurveto
          27 22 -19 -33 15 hvcurveto
          -5 -7 -3 -10 -12 vvcurveto
          -27 9 -19 18 -9 vhcurveto
          hintmask 1011001101111000
          39 callsubr
        </CharString>
        <CharString name="b_s_z">
          707 -6 79 -79 97 -97 64 callsubr
          145 -68 68 -54 54 5 -20 215 -20 hstemhm
          46 145 137 103 36 -26 callgsubr
          2 -38 callsubr
          hintmask 1000100011111111
          38 callgsubr
          12 0 12 -1 12 vhcurveto
          57 20 50 45 34 70 rrcurveto
          47 -175 19 -43 -68 vvcurveto
          -55 -12 -25 -37 -38 -26 28 -76 callsubr
          23 16 16 24 29 -25 18 -31 -39 -21 -28 -49 -79 55 -72 110 76 74 34 130 75 -25 64 -61 234 hvcurveto
          -144 -20 -33 -89 -49 -56 -47 -12 rlinecurve
          -53 callsubr
          hintmask 0100110001111111
          1048 -589 rmoveto
          -16 -19 -4 -24 -27 -44 5 1 -17 vhcurveto
          191 423 rlineto
          -275 hlineto
          -63 -33 -51 -39 -37 30 -18 27 22 22 13 29 hvcurveto
          hintmask 1000101001111111
          40 -17 -15 10 vvcurveto
          hintmask 0001100101111111
          -104 callsubr
          hintmask 0010010001111111
          -92 callgsubr
          vhcurveto
          hintmask 0100101001111111
          -80 callsubr
          -767 168 rmoveto
          -68 callgsubr
          39 callsubr
        </CharString>
        <CharString name="backslash">
          75 43 callsubr
          439 -250 rmoveto
          72 hlineto
          -425 1000 rlineto
          -72 hlineto
          endchar
        </CharString>
        <CharString name="bar">
          -216 -229 -21 1001 -20 hstem
          71 93 vstem
          164 751 rmoveto
          -93 -1001 93 hlineto
          endchar
        </CharString>
        <CharString name="braceleft">
          54 callsubr
          77 66 -66 184 -142 24 -24 67 cntrmask 11100000
          hintmask 11101000
          261 -181 rmoveto
          -2 -16 -13 -2 -15 hhcurveto
          hintmask 11110000
          -61 -13 31 54 hvcurveto
          hintmask 11100010
          100 43 108 67 vvcurveto
          33 -10 24 -19 22 vhcurveto
          19 22 10 24 33 vvcurveto
          hintmask 11110000
          67 -43 108 100 vvcurveto
          54 13 31 61 vhcurveto
          hintmask 11101000
          15 13 -2 -2 16 hvcurveto
          54 vlineto
          5 -20 -16 3 -23 hhcurveto
          -97 -28 -54 -69 hvcurveto
          hintmask 11100100
          -85 42 -115 -76 vvcurveto
          -43 -14 -30 -48 -9 -11 1 2 -12 vhcurveto
          -56 vlineto
          2 12 11 1 9 hhcurveto
          48 14 -30 -43 hvcurveto
          hintmask 11101000
          -76 -42 -115 -85 vvcurveto
          -69 28 -54 97 23 16 3 5 20 vhcurveto
          endchar
        </CharString>
        <CharString name="braceright">
          54 callsubr
          24 184 -109 67 -24 24 cntrmask 11100000
          hintmask 11110000
          24 -235 rmoveto
          -5 20 16 -3 23 hhcurveto
          97 28 54 69 hvcurveto
          hintmask 11101000
          85 -42 115 76 vvcurveto
          43 14 30 48 9 11 -1 -2 12 vhcurveto
          56 vlineto
          -2 -12 -11 -1 -9 hhcurveto
          -48 -14 30 43 hvcurveto
          hintmask 11110000
          76 42 115 85 vvcurveto
          69 -28 54 -97 -23 -16 -3 -5 -20 vhcurveto
          -54 vlineto
          2 16 13 2 15 hhcurveto
          hintmask 11100100
          61 13 -31 -54 hvcurveto
          hintmask 11101000
          -100 -43 -108 -67 vvcurveto
          -33 10 -24 19 -22 vhcurveto
          -19 -22 -10 -24 -33 vvcurveto
          hintmask 11100100
          -67 43 -108 -100 vvcurveto
          -54 -13 -31 -61 vhcurveto
          hintmask 11110000
          -15 -13 2 2 -16 hvcurveto
          endchar
        </CharString>
        <CharString name="bracketleft">
          -155 -250 62 876 62 hstemhm
          71 93 -93 203 hintmask 11100000
          275 -188 rmoveto
          -111 876 hlineto
          hintmask 11010000
          110 62 -203 -1000 204 hlineto
          endchar
        </CharString>
        <CharString name="bracketright">
          -155 -250 62 876 62 hstemhm
          21 204 -93 93 hintmask 11100000
          21 688 rmoveto
          hintmask 11010000
          111 -876 hlineto
          hintmask 11100000
          -111 -62 204 1000 -204 hlineto
          endchar
        </CharString>
        <CharString name="breve">
          -20 568 45 -45 135 hstemhm
          -81 79 208 76 hintmask 01110000
          206 703 rmoveto
          hintmask 10110000
          -60 -52 -30 -52 vhcurveto
          hintmask 01110000
          -16 callsubr
          endchar
        </CharString>
        <CharString name="brokenbar">
          -216 -229 -21 1002 -20 hstem
          71 93 vstem
          71 222 rmoveto
          -472 93 472 vlineto
          79 vmoveto
          451 -93 -451 vlineto
          endchar
        </CharString>
        <CharString name="bullet">
          -25 callsubr
        </CharString>
        <CharString name="c">
          10 callsubr
          43 callgsubr
          hintmask 11011000
          -97 callgsubr
          hintmask 10111000
          -72 callsubr
          vhcurveto
          endchar
        </CharString>
        <CharString name="c.end">
          -68 -6 86 253 172 -53 53 hstemhm
          24 142 118 79 hintmask 11011000
          281 345 rmoveto
          -8 14 17 -4 10 hhcurveto
          24 15 25 35 47 -28 65 -104 -167 -38 -168 -113 -166 83 -64 113 113 27 56 87 3 hvcurveto
          60 callgsubr
          hvcurveto
          hintmask 10111000
          -72 callsubr
          vhcurveto
          endchar
        </CharString>
        <CharString name="c_x">
          328 -6 82 -82 97 253 165 -57 57 -57 112 -64 -20 hstemhm
          31 146 115 75 248 138 hintmask 1010001110000000
          289 356 rmoveto
          -8 13 13 -4 12 hhcurveto
          22 18 16 36 42 -17 71 -116 -160 -43 -172 -109 -178 106 -56 115 106 115 52 87 66 hvcurveto
          -97 43 38 -42 68 hhcurveto
          50 91 6 callsubr
          23 hvcurveto
          -42 hlineto
          hintmask 0100101110000000
          -50 -5 -28 -38 -39 hhcurveto
          -44 -18 49 39 -15 hvcurveto
          -20 49 rlineto
          63 85 49 94 66 vvcurveto
          64 -39 27 -37 vhcurveto
          hintmask 1001001110000000
          -32 -30 -21 -34 -28 20 -29 42 8 -2 1 1 9 hvcurveto
          1 -5 0 -4 -5 vvcurveto
          -39 -28 -47 -48 -65 vhcurveto
          hintmask 1000011110000000
          -83 211 -28 callsubr
          122 -310 rlineto
          -75 -50 -88 -39 -71 hhcurveto
          -69 -60 34 124 89 26 133 50 27 12 -29 -37 -9 -1 -15 -2 -10 hvcurveto
          endchar
        </CharString>
        <CharString name="c_z">
          330 0 65 -65 80 -80 155 -140 -21 339 167 -145 145 -48 48 5 -20 57 callsubr
          79 52 101 173 103 hintmask 1000100011110000
          720 91 rmoveto
          -20 -11 -6 -16 vhcurveto
          65 callsubr
          -237 hlineto
          -63 -33 -51 -39 hvcurveto
          hintmask 1000010011110000
          -77 callgsubr
          12 22 2 29 vhcurveto
          36 hlineto
          -160 -446 rlineto
          265 hlineto
          68 33 51 42 hvcurveto
          hintmask 0010100011110000
          -92 callgsubr
          -80 callsubr
          -432 254 rmoveto
          -8 14 17 -4 10 hhcurveto
          24 15 25 35 hvcurveto
          hintmask 0001000111110000
          47 -28 65 -104 -167 -38 -168 -113 -166 83 -64 113 113 27 56 87 3 vhcurveto
          hintmask 0100001011110000
          60 callgsubr
          -72 callsubr
          hvcurveto
          endchar
        </CharString>
        <CharString name="cacute">
          10 callsubr
          56 189 43 callgsubr
          hintmask 11011100
          -97 callgsubr
          hintmask 10111100
          -72 callsubr
          vhcurveto
          -78 216 -101 callgsubr
        </CharString>
        <CharString name="caron">
          -157 44 callgsubr
          -59 750 rmoveto
          100 -189 rlineto
          21 hlineto
          172 189 rlineto
          -44 hlineto
          -140 -80 -77 80 rlineto
          endchar
        </CharString>
        <CharString name="ccaron">
          10 callsubr
          245 -20 43 callgsubr
          hintmask 11011100
          -97 callgsubr
          hintmask 10111100
          -72 callsubr
          vhcurveto
          -156 405 rmoveto
          100 -189 rlineto
          21 hlineto
          172 189 rlineto
          -44 hlineto
          -140 -80 -77 80 rlineto
          endchar
        </CharString>
        <CharString name="ccedilla">
          -67 62 callsubr
          52 84 255 172 -53 53 43 callgsubr
          hintmask 10111011
          288 345 rmoveto
          -8 14 17 -4 10 hhcurveto
          24 15 25 35 47 -28 65 -104 -167 -38 -168 -113 -162 78 -64 109 -4 hvcurveto
          5 35 40 -23 -2 -10 113 14 57 85 34 84 rlinecurve
          -34 hlineto
          -57 -38 -38 -44 -79 hhcurveto
          -67 -36 31 124 hvcurveto
          hintmask 10110111
          -72 callsubr
          vhcurveto
          88 -473 23 callgsubr
          11 62 rlineto
          -1 -11 -11 -1 -12 hhcurveto
          -9 hlineto
          -16 -113 34 callsubr
          hintmask 01111011
          -46 callsubr
        </CharString>
        <CharString name="ccircumflex">
          10 callsubr
          0 56 189 -20 43 callgsubr
          hintmask 11001110
          -97 callgsubr
          hintmask 10101110
          -72 callsubr
          vhcurveto
          hintmask 10011110
          102 216 rmoveto
          -100 189 rlineto
          -21 hlineto
          -172 -189 rlineto
          44 hlineto
          140 80 77 -80 rlineto
          endchar
        </CharString>
        <CharString name="cedilla">
          -224 62 callsubr
          87 -20 hstemhm
          175 77 hintmask 10111000
          252 -128 23 callgsubr
          13 72 -40 23 -21 -148 34 callsubr
          hintmask 01111000
          -46 callsubr
        </CharString>
        <CharString name="cent">
          -59 -6 -21 482 141 122 -20 hstemhm
          28 106 76 39 -39 154 -63 51 hintmask 11111010
          210 -27 rmoveto
          39 173 hlineto
          hintmask 11110100
          75 8 35 26 5 84 rrcurveto
          hintmask 11111010
          -30 -47 -32 -9 -53 -1 rrcurveto
          350 vlineto
          36 -3 16 -30 -30 vvcurveto
          -13 -3 -14 -5 -12 vhcurveto
          52 2 7 27 23 vvcurveto
          58 -47 27 -56 4 vhcurveto
          122 -39 -122 vlineto
          -115 -9 -67 -88 -139 vvcurveto
          -156 85 -54 97 -5 vhcurveto
          -76 220 rmoveto
          81 27 78 49 25 vhcurveto
          -337 vlineto
          -58 20 -18 67 66 vvcurveto
          endchar
        </CharString>
        <CharString name="circumflex">
          -158 44 callgsubr
          174 561 rmoveto
          -100 189 rlineto
          -21 hlineto
          -172 -189 rlineto
          44 hlineto
          140 80 77 -80 rlineto
          endchar
        </CharString>
        <CharString name="circunflex">
          -158 44 callgsubr
          174 561 rmoveto
          -100 189 rlineto
          -21 hlineto
          -172 -189 rlineto
          44 hlineto
          140 80 77 -80 rlineto
          endchar
        </CharString>
        <CharString name="colon">
          -180 56 159 81 159 hstem
          56 159 vstem
          56 135 rmoveto
          -104 callgsubr
          240 vmoveto
          -104 callgsubr
          endchar
        </CharString>
        <CharString name="comma">
          -217 -105 -21 285 -20 hstemhm
          39 153 -105 105 -78 78 hintmask 11100000
          39 89 rmoveto
          hintmask 11001000
          -67 75 -7 -35 vvcurveto
          hintmask 11010000
          15 callgsubr
          vhcurveto
          hintmask 11100000
          -38 -33 -33 -37 hvcurveto
          endchar
        </CharString>
        <CharString name="copyright">
          103 76 42 64 52 197 53 60 43 hstem
          35 46 55 55 285 43 vstem
          136 336 rmoveto
          -83 65 -71 81 49 46 26 42 28 vhcurveto
          -44 29 rlineto
          -28 -15 -29 -17 -31 hhcurveto
          -53 -42 47 60 60 46 30 45 36 36 -20 -40 7 hvcurveto
          47 18 rlineto
          65 -20 -51 30 -52 hhcurveto
          -73 -76 -58 -90 hvcurveto
          141 -260 -61 callgsubr
          endchar
        </CharString>
        <CharString name="currency">
          7 185 -21 26 56 200 56 27 -20 hstem
          73 57 200 56 vstem
          45 492 rmoveto
          57 -57 rlineto
          -18 -25 -11 -31 -34 vvcurveto
          -33 11 -31 18 -25 vhcurveto
          -56 -56 36 -36 56 56 rlineto
          -19 26 32 -11 34 hhcurveto
          34 31 11 18 25 hvcurveto
          55 -55 36 36 -55 55 rlineto
          19 26 11 31 34 vvcurveto
          34 -11 32 -19 26 vhcurveto
          55 55 -36 36 -56 -56 rlineto
          18 -25 -31 11 -33 hhcurveto
          -34 -31 -11 -19 -26 hvcurveto
          -56 56 rlineto
          147 -82 rmoveto
          55 45 -45 -55 -55 -45 -45 -55 -55 -45 45 55 55 45 45 55 hvcurveto
          endchar
        </CharString>
        <CharString name="d">
          75 -27 callsubr
          195 -20 -61 callsubr
          0 123 hintmask 11111000
          315 680 rmoveto
          -228 vlineto
          47 -17 -44 6 -33 hhcurveto
          -139 -52 -157 -122 -174 92 -58 84 71 37 46 46 21 hvcurveto
          -57 14 35 -35 70 hhcurveto
          54 -14 callsubr
          hintmask 11110100
          -44 callgsubr
          -84 callsubr
          540 vlineto
          hintmask 11111000
          -144 -521 rmoveto
          -58 -36 -30 -29 -25 -49 2 142 -35 callgsubr
          endchar
        </CharString>
        <CharString name="d.end">
          83 -27 callsubr
          195 -20 hstem
          -58 callsubr
          vstem
          315 680 rmoveto
          -228 vlineto
          -86 callsubr
          -3 -6 -5 -1 -9 hhcurveto
          -39 -13 13 56 hvcurveto
          540 vlineto
          -193 -257 rmoveto
          32 13 -27 -11 4 hvcurveto
          -227 vlineto
          -58 -36 -29 -88 callsubr
          endchar
        </CharString>
        <CharString name="dagger">
          -40 -229 -21 566 112 322 -20 hstem
          167 72 vstem
          239 55 callsubr
          -566 72 566 151 112 -151 hlineto
          endchar
        </CharString>
        <CharString name="daggerdbl">
          -22 -229 -21 351 112 103 112 322 -20 hstem
          176 72 vstem
          248 55 callsubr
          -103 -146 -112 146 -351 72 351 151 112 -151 103 151 112 -151 hlineto
          endchar
        </CharString>
        <CharString name="dcroat">
          75 -27 callsubr
          76 40 79 -20 -61 callsubr
          0 123 hintmask 11111100
          315 680 rmoveto
          -59 -32 -40 32 -129 vlineto
          47 -17 -44 6 -33 hhcurveto
          -139 -52 -157 -122 -174 92 -58 84 71 37 46 46 21 hvcurveto
          -57 14 35 -35 70 hhcurveto
          54 -14 callsubr
          hintmask 11111010
          -44 callgsubr
          -84 callsubr
          421 63 40 -63 79 vlineto
          hintmask 11111100
          -193 -257 -4 callsubr
        </CharString>
        <CharString name="degree">
          -132 374 37 256 35 hstem
          42 72 104 59 vstem
          166 702 -100 callgsubr
          endchar
        </CharString>
        <CharString name="dieresis">
          -59 573 122 hstem
          56 45 callsubr
          vstem
          56 634 rmoveto
          -105 callgsubr
          180 -69 callgsubr
        </CharString>
        <CharString name="divide">
          -37 0 159 47 79 50 159 hstem
          150 159 vstem
          150 79 rmoveto
          -104 callgsubr
          335 vmoveto
          -104 callgsubr
          230 -129 rmoveto
          -350 -79 350 hlineto
          endchar
        </CharString>
        <CharString name="dollar">
          -66 -6 -21 477 162 -36 36 106 -20 hstemhm
          40 71 -71 91 31 36 56 101 -84 64 hintmask 1011101010000000
          335 506 rmoveto
          88 -82 16 -55 2 vhcurveto
          106 -36 -108 vlineto
          -63 -9 -59 -46 -60 vvcurveto
          -72 64 -34 58 -40 vhcurveto
          -198 vlineto
          -26 13 -25 27 41 vvcurveto
          26 10 21 20 4 vhcurveto
          13 -2 -17 12 -28 hhcurveto
          -35 -24 -28 -45 -83 58 -35 69 -8 hvcurveto
          -136 36 134 vlineto
          hintmask 1011101100000000
          95 1 62 44 82 vvcurveto
          108 -91 35 -66 42 vhcurveto
          157 vlineto
          hintmask 1101101010000000
          48 -1 25 -32 -31 vvcurveto
          -14 -4 -18 -12 -7 vhcurveto
          -16 15 12 -7 16 hhcurveto
          25 12 23 33 hvcurveto
          hintmask 1101011100000000
          -81 -291 rmoveto
          -37 -13 -32 -43 -2 vhcurveto
          179 vlineto
          32 -27 24 -33 -48 vvcurveto
          -123 300 rmoveto
          19 10 22 21 12 vhcurveto
          -121 vlineto
          -19 18 -12 21 29 vvcurveto
          endchar
        </CharString>
        <CharString name="dotlessi">
          -6 97 409 59 callsubr
          -60 callgsubr
          -351 -52 callsubr
          340 vlineto
          endchar
        </CharString>
        <CharString name="dotlessi.end">
          -173 -25 callgsubr
          -73 callgsubr
          -144 228 hintmask 11010000
          -5 callgsubr
          hintmask 11100000
          1 callgsubr
          endchar
        </CharString>
        <CharString name="e">
          10 callgsubr
          hstem
          31 146 119 77 vstem
          -95 callgsubr
          21 310 rmoveto
          -65 callgsubr
          endchar
        </CharString>
        <CharString name="e.end">
          -54 -6 95 113 48 202 53 hstem
          30 146 114 78 vstem
          262 -78 callgsubr
          28 296 -37 callgsubr
        </CharString>
        <CharString name="e_x">
          314 -8 callsubr
          hstemhm
          33 146 0 115 0 77 263 138 -60 60 hintmask 1010011011000000
          -54 callgsubr
          hintmask 1011001011000000
          -50 callgsubr
          -101 45 39 -37 66 hhcurveto
          50 91 6 callsubr
          22 hvcurveto
          -42 hlineto
          hintmask 0110101011000000
          -42 callsubr
          -14 34 rlineto
          68 89 56 101 70 vvcurveto
          -24 callgsubr
          hintmask 1010010100100000
          36 callgsubr
          -241 -115 rmoveto
          -70 -48 -60 -67 -5 vhcurveto
          hintmask 1011000101000000
          3 callgsubr
        </CharString>
        <CharString name="e_x.end">
          334 -8 callsubr
          hstemhm
          33 146 115 77 248 138 hintmask 1010011110000000
          -54 callgsubr
          hintmask 1011001110000000
          -50 callgsubr
          -98 43 40 49 callgsubr
          hintmask 0110101110000000
          -3 -5 -8 -3 -18 hhcurveto
          -44 -14 29 59 -23 33 callgsubr
          -100 callsubr
          -48 -66 vhcurveto
          hintmask 1010011110000000
          -84 213 rlineto
          -242 -115 rmoveto
          -70 -48 -60 -67 -5 vhcurveto
          hintmask 1011001110000000
          3 callgsubr
        </CharString>
        <CharString name="e_z">
          345 -6 77 -77 95 -95 161 -134 -21 202 48 105 57 callgsubr
          hstemhm
          32 146 114 78 52 -38 callsubr
          hintmask 0100110011110000
          264 -78 callgsubr
          469 2 rmoveto
          hintmask 1000100111110000
          -16 -19 -4 -24 -27 -44 5 1 -17 vhcurveto
          48 callgsubr
          hintmask 1000110011110000
          -77 callgsubr
          hintmask 0001101011110000
          -104 callsubr
          hintmask 0010110011110000
          -92 callgsubr
          -80 callsubr
          -441 294 -37 callgsubr
        </CharString>
        <CharString name="eacute">
          10 callgsubr
          56 189 hstem
          31 146 119 77 vstem
          -95 callgsubr
          -83 483 rmoveto
          75 hlineto
          81 189 rlineto
          -105 hlineto
          53 -362 rmoveto
          -65 callgsubr
          endchar
        </CharString>
        <CharString name="eacute.end">
          -54 -6 95 113 48 202 53 56 189 hstem
          30 146 114 78 vstem
          262 -78 callgsubr
          -88 472 rmoveto
          75 hlineto
          81 189 rlineto
          -105 hlineto
          65 -365 -37 callgsubr
        </CharString>
        <CharString name="eacute_x">
          347 -8 callsubr
          81 189 hstemhm
          33 146 0 115 0 77 263 138 -60 60 hintmask 1010011101100000
          -54 callgsubr
          hintmask 1011001101100000
          -50 callgsubr
          -101 45 39 -37 66 hhcurveto
          50 91 6 callsubr
          22 hvcurveto
          -42 hlineto
          hintmask 0110100101100000
          -42 callsubr
          -14 34 rlineto
          68 89 56 101 70 vvcurveto
          -24 callgsubr
          hintmask 1010011010010000
          36 callgsubr
          -342 64 callgsubr
          50 -365 rmoveto
          -70 -48 -60 -67 -5 vhcurveto
          hintmask 1011001010100000
          3 callgsubr
        </CharString>
        <CharString name="ecircumflex">
          -67 -6 84 0 124 48 202 53 56 189 -20 hstemhm
          31 146 119 77 hintmask 01111110
          275 78 rmoveto
          -72 -24 35 89 -2 hvcurveto
          99 5 97 63 119 vvcurveto
          21 -3 95 -127 -167 -45 -166 -116 vhcurveto
          -163 82 -66 115 136 64 93 92 37 vhcurveto
          -34 hlineto
          -57 -38 -37 -44 -81 hhcurveto
          114 483 rmoveto
          -100 189 rlineto
          -21 hlineto
          -172 -189 rlineto
          44 hlineto
          140 80 77 -80 rlineto
          -61 -173 rmoveto
          hintmask 10111110
          -65 callgsubr
          endchar
        </CharString>
        <CharString name="edieresis">
          10 callgsubr
          68 122 hstemhm
          31 146 -73 45 callsubr
          -110 77 hintmask 11111001
          -95 callgsubr
          21 310 rmoveto
          -65 callgsubr
          hintmask 11110110
          -192 246 rmoveto
          -105 callgsubr
          180 -69 callgsubr
        </CharString>
        <CharString name="egrave">
          10 callgsubr
          56 189 hstem
          31 146 119 77 vstem
          -95 callgsubr
          -74 483 rmoveto
          75 hlineto
          -69 189 rlineto
          -105 hlineto
          194 -362 rmoveto
          -65 callgsubr
          endchar
        </CharString>
        <CharString name="eight">
          100 -6 84 621 51 hstemhm
          37 138 -107 128 155 126 -97 140 hintmask 11100100
          277 78 rmoveto
          -56 -46 65 74 57 28 76 62 28 hvcurveto
          47 -21 68 -54 -84 vvcurveto
          -68 -44 -73 -59 vhcurveto
          4 -84 rmoveto
          152 87 121 109 85 -54 78 -99 30 hvcurveto
          hintmask 11011000
          74 39 36 67 59 vvcurveto
          88 -83 80 -126 -132 -68 -87 -86 -62 36 -58 76 -40 vhcurveto
          hintmask 11101000
          -101 -31 -42 -88 -76 vvcurveto
          -116 98 -112 146 vhcurveto
          -8 457 rmoveto
          hintmask 11011000
          -51 37 -26 54 52 vvcurveto
          57 31 48 48 49 27 -49 -49 -50 -28 -63 -50 -37 vhcurveto
          endchar
        </CharString>
        <CharString name="ellipsis">
          266 -4 159 hstem
          39 159 76 159 86 159 vstem
          39 75 rmoveto
          -104 callgsubr
          235 hmoveto
          -104 callgsubr
          245 hmoveto
          -104 callgsubr
          endchar
        </CharString>
        <CharString name="emdash">
          18 54 callgsubr
          351 hlineto
          endchar
        </CharString>
        <CharString name="endash">
          -72 222 79 hstem
          319 301 rmoveto
          -260 -79 261 hlineto
          endchar
        </CharString>
        <CharString name="eogonek">
          -68 -193 59 128 84 124 48 206 53 hstemhm
          33 146 49 75 -10 78 hintmask 11111100
          303 -61 rmoveto
          89 103 -11 61 162 vhcurveto
          -34 hlineto
          -57 -37 -39 -44 -79 hhcurveto
          -59 -23 22 102 -14 hvcurveto
          hintmask 11111010
          105 6 84 76 99 vvcurveto
          36 -2 90 -133 -160 -43 -169 -112 -170 83 -64 116 15 14 1 2 12 vhcurveto
          hintmask 11111100
          -30 -31 -15 -36 -30 vvcurveto
          -40 34 -53 63 52 24 39 23 20 vhcurveto
          -2 12 -1 7 -1 12 rrcurveto
          -13 -18 -19 -21 -24 hhcurveto
          -33 -20 37 36 hvcurveto
          hintmask 11111010
          -10 449 rmoveto
          -71 -48 -63 -66 -4 vhcurveto
          99 25 107 52 19 18 -16 -52 vhcurveto
          endchar
        </CharString>
        <CharString name="equal">
          42 101 112 103 112 hstem
          430 428 rmoveto
          -367 -112 367 hlineto
          -103 vmoveto
          -367 -112 367 hlineto
          endchar
        </CharString>
        <CharString name="eth">
          87 -33 callsubr
          443 62 195 -20 hstemhm
          42 146 139 144 hintmask 10111100
          471 415 rmoveto
          77 -18 57 -28 43 vhcurveto
          55 9 -9 41 -75 -13 -29 31 -36 22 -36 18 rlinecurve
          -45 hlineto
          30 -32 18 -26 12 -28 -69 -12 rcurveline
          6 -39 74 12 rlineto
          4 -25 2 -29 -36 vvcurveto
          -24 vlineto
          25 -9 -30 19 -55 hhcurveto
          -139 -52 -157 -122 -174 92 -58 84 71 37 46 46 21 hvcurveto
          hintmask 01111100
          -56 20 43 -30 54 hhcurveto
          54 86 16 163 23 hvcurveto
          -42 hlineto
          hintmask 10111100
          -50 -5 -19 -38 -39 hhcurveto
          -42 -9 17 52 hvcurveto
          -193 283 rmoveto
          26 16 -18 -12 7 hvcurveto
          -234 vlineto
          -58 -36 -30 -88 callsubr
          endchar
        </CharString>
        <CharString name="exclam">
          -185 0 159 541 -20 hstemhm
          53 159 -136 115 hintmask 11010000
          176 231 rmoveto
          30 469 rlineto
          -144 hlineto
          29 -469 rlineto
          hintmask 11100000
          -38 -152 rmoveto
          -104 callgsubr
          endchar
        </CharString>
        <CharString name="exclamdown">
          -196 -227 -21 541 159 hstemhm
          49 159 -138 114 hintmask 11010000
          85 221 rmoveto
          -30 -469 rlineto
          144 hlineto
          -29 469 rlineto
          hintmask 11100000
          38 152 19 callgsubr
        </CharString>
        <CharString name="f">
          33 callsubr
          -96 53 90 144 vstem
          340 600 rmoveto
          82 -7 -51 67 -93 hhcurveto
          -60 -82 -28 -142 hvcurveto
          -571 vlineto
          -82 -27 -61 -27 -72 vvcurveto
          -78 70 -54 80 57 80 27 143 vhcurveto
          540 73 40 -73 79 vlineto
          67 30 15 26 32 7 -23 -38 7 vhcurveto
          -336 -711 -70 callsubr
        </CharString>
        <CharString name="f_f_t">
          332 -250 75 -75 -48 callsubr
          176 73 hstemhm
          -97 59 85 147 88 146 136 143 hintmask 1011111110000000
          54 -250 rmoveto
          35 47 11 44 29 hvcurveto
          -34 25 42 -21 53 hhcurveto
          67 76 32 138 hvcurveto
          540 136 -281 vlineto
          -131 63 -54 78 50 96 6 callsubr
          22 vhcurveto
          -42 hlineto
          -49 -5 -22 -39 -49 hhcurveto
          -33 -15 17 52 hvcurveto
          300 61 40 -61 180 vlineto
          34 -91 -100 35 -83 hhcurveto
          -42 -44 -9 -35 -29 hvcurveto
          30 -34 -42 14 -49 30 callgsubr
          70 -53 81 vhcurveto
          140 710 rmoveto
          88 -408 hlineto
          -88 -15 rlineto
          370 463 rmoveto
          -137 110 hlineto
          64 28 12 22 14 44 -5 -11 29 vhcurveto
          -375 -805 rmoveto
          3 16 2 18 21 vvcurveto
          88 vlineto
          89 20 rlineto
          -111 vlineto
          -66 -19 -26 -36 -18 -21 8 32 vhcurveto
          93 635 rmoveto
          -88 87 hlineto
          41 9 48 53 16 12 -5 -7 11 vhcurveto
          -8 -23 -5 -27 -35 vvcurveto
          -320 -690 rmoveto
          43 46 27 46 16 vhcurveto
          -58 vlineto
          hintmask 0111111110000000
          62 callgsubr
        </CharString>
        <CharString name="f_i_x">
          463 -250 89 155 97 361 48 -48 112 -11 39 callgsubr
          309 138 hintmask 1110101011100000
          303 618 rmoveto
          -42 35 -23 35 34 34 22 44 114 -105 16 -84 -91 -114 -29 -186 vhcurveto
          -526 vlineto
          -64 callgsubr
          hintmask 1110011011100000
          -57 callsubr
          -6 callsubr
          -129 56 -56 77 92 85 64 73 51 vhcurveto
          -96 43 39 -41 -35 callsubr
          -42 callsubr
          -19 47 rlineto
          63 86 50 95 66 vvcurveto
          hintmask 1101011011100000
          -100 callsubr
          -48 -66 vhcurveto
          hintmask 1110100101100000
          -73 callsubr
          -501 -613 rmoveto
          39 36 30 56 19 vhcurveto
          -58 vlineto
          -57 -21 -21 -20 -13 -38 8 40 vhcurveto
          endchar
        </CharString>
        <CharString name="f_i_z">
          451 -250 89 155 -71 callsubr
          145 -54 54 -40 40 53 196 -54 54 hstemhm
          -98 37 callsubr
          -12 -38 callsubr
          hintmask 110000011011100110000000
          -45 -83 callgsubr
          -64 callgsubr
          hintmask 101001000111100110000000
          -9 callsubr
          hintmask 101001001011001010000000
          -60 callsubr
          hintmask 101001001011010110000000
          1 callgsubr
          383 -409 rmoveto
          hintmask 110001001011100110000000
          -106 callsubr
          hintmask 100010101011100110000000
          -104 callsubr
          hintmask 100101001011100110000000
          -92 callgsubr
          vhcurveto
          hintmask 101001001011100110000000
          56 callsubr
        </CharString>
        <CharString name="f_l_x">
          477 -250 89 155 98 360 48 -48 112 122 63 hstemhm
          -97 53 91 144 136 143 294 138 hintmask 1110111110000000
          539 -60 callgsubr
          34 callgsubr
          520 vlineto
          -95 callsubr
          -491 vlineto
          -49 callsubr
          hintmask 1101111110000000
          -100 callsubr
          -49 -66 vhcurveto
          hintmask 1110111110000000
          -84 213 rlineto
          -724 -614 -50 callsubr
          endchar
        </CharString>
        <CharString name="f_l_z">
          486 -250 89 155 -71 callsubr
          145 -54 54 -40 40 186 63 hstemhm
          -97 53 91 144 136 143 -143 228 8 -38 callsubr
          hintmask 1010000111110110
          470 680 rmoveto
          -95 callsubr
          -521 -26 callsubr
          vhcurveto
          hintmask 1010010011101110
          15 callsubr
          hintmask 1010010011110110
          -515 -274 -50 callsubr
          918 205 rmoveto
          hintmask 1100010011110110
          -106 callsubr
          hintmask 1000101011110110
          -104 callsubr
          hintmask 1001010011110110
          -92 callgsubr
          vhcurveto
          hintmask 1010010011110110
          56 callsubr
        </CharString>
        <CharString name="f_t">
          96 -250 -48 callsubr
          186 63 hstemhm
          -97 53 91 144 0 137 0 143 0 124 hintmask 1111110100000000
          471 460 rmoveto
          61 40 -61 180 hlineto
          36 -97 -92 33 -90 hhcurveto
          -65 -80 -26 -141 hvcurveto
          -574 vlineto
          -79 -26 -65 -27 -74 vvcurveto
          -79 75 -52 69 66 78 26 141 vhcurveto
          543 137 -281 49 callsubr
          hintmask 1111110010000000
          -44 callgsubr
          -42 -10 17 52 hvcurveto
          hintmask 1111101010000000
          -144 340 rmoveto
          -137 110 hlineto
          64 28 12 23 13 44 -5 -11 29 vhcurveto
          -372 -784 rmoveto
          45 39 25 53 19 vhcurveto
          -58 vlineto
          -59 -22 -19 -21 51 callsubr
          endchar
        </CharString>
        <CharString name="f_u">
          321 13 callsubr
          104 144 vstem
          191 -60 callgsubr
          79 vlineto
          67 30 15 26 32 7 -23 -38 7 vhcurveto
          47 hlineto
          82 -7 -51 67 -93 hhcurveto
          -60 -82 -28 -142 hvcurveto
          -571 vlineto
          -82 -27 -61 -27 -72 vvcurveto
          -78 70 -54 80 57 80 27 143 vhcurveto
          540 123 -311 -55 callgsubr
          41 59 11 84 33 vhcurveto
          -59 13 35 -36 71 hhcurveto
          55 -44 callsubr
          -48 -5 -21 -40 -51 hhcurveto
          -35 -11 -52 callgsubr
          -144 63 callsubr
          -27 -38 -36 -26 -15 19 50 vhcurveto
          -13 callsubr
          -501 -611 -70 callsubr
        </CharString>
        <CharString name="f_u.end">
          331 13 callsubr
          103 144 vstem
          191 -60 callgsubr
          79 vlineto
          67 30 15 26 32 7 -23 -38 7 vhcurveto
          47 hlineto
          82 -7 -51 67 -93 hhcurveto
          -60 -82 -28 -142 hvcurveto
          -571 vlineto
          -82 -27 -61 -27 -72 vvcurveto
          -78 70 -54 80 57 80 27 143 vhcurveto
          540 123 -311 -55 callgsubr
          41 58 11 83 34 vhcurveto
          -57 12 33 -37 67 -24 callsubr
          18 callgsubr
          vlineto
          -501 -611 -70 callsubr
        </CharString>
        <CharString name="f_x">
          225 -250 89 132 104 -81 97 369 40 -40 104 97 88 hstemhm
          -96 53 0 90 0 144 104 130 87 138 hintmask 1101011011100000
          191 -60 callgsubr
          79 vlineto
          67 30 15 26 32 7 -23 -38 7 vhcurveto
          47 hlineto
          82 -7 -51 67 -93 hhcurveto
          -60 -82 -28 -142 hvcurveto
          -571 vlineto
          -82 -27 -61 -27 -72 vvcurveto
          -78 70 -54 80 57 80 27 143 vhcurveto
          540 114 vlineto
          96 -221 -40 callsubr
          hintmask 1010111011100000
          -66 callgsubr
          hintmask 1101011101100000
          -89 205 rlineto
          -472 -611 -70 callsubr
        </CharString>
        <CharString name="ff">
          60 33 callsubr
          -96 53 90 144 100 144 vstem
          431 749 rmoveto
          -40 -51 -12 -52 -28 hvcurveto
          38 -25 -41 26 -57 hhcurveto
          -60 -82 -28 -142 hvcurveto
          -571 vlineto
          -82 -27 -61 -27 -72 vvcurveto
          -78 70 -54 80 38 48 12 51 28 vhcurveto
          -38 23 42 -25 60 hhcurveto
          62 80 27 143 hvcurveto
          540 100 40 -100 82 vlineto
          68 31 11 23 34 6 -24 -37 7 vhcurveto
          47 hlineto
          88 -8 -54 61 -90 hhcurveto
          -240 -289 rmoveto
          73 40 -73 79 hlineto
          53 26 28 26 23 25 -23 -48 vhcurveto
          -534 vlineto
          -100 -18 rlineto
          47 -198 rmoveto
          -19 -22 5 16 -12 hvcurveto
          4 17 2 20 23 vvcurveto
          91 vlineto
          100 19 rlineto
          -113 vlineto
          -66 -21 -12 -32 vhcurveto
          -281 50 -70 callsubr
        </CharString>
        <CharString name="ffi">
          313 -250 75 -75 -48 callsubr
          53 196 -73 73 -54 54 hstemhm
          -97 59 85 146 0 85 0 145 121 128 16 123 hintmask 1011001110111000
          422 -60 callgsubr
          82 vlineto
          57 17 56 65 32 25 -14 -26 7 vhcurveto
          1 -1 -5 0 -2 hhcurveto
          -17 -8 -19 -22 hvcurveto
          hintmask 1011100110111000
          -47 39 -15 35 33 30 14 53 106 -117 23 -82 -56 -54 -10 -41 -37 vhcurveto
          35 -35 -46 16 -52 30 callgsubr
          71 -53 79 35 45 11 42 30 vhcurveto
          -33 25 41 -20 53 hhcurveto
          66 75 31 136 hvcurveto
          543 121 -311 vlineto
          -51 callgsubr
          -495 -40 rmoveto
          85 -408 hlineto
          -85 -16 rlineto
          31 -211 rmoveto
          -16 -18 7 23 -4 hvcurveto
          4 19 3 21 25 vvcurveto
          88 vlineto
          86 19 rlineto
          -110 vlineto
          -66 -19 -26 -36 vhcurveto
          54 675 rmoveto
          -85 87 hlineto
          hintmask 0111010101011000
          41 10 48 53 19 14 -6 -11 12 vhcurveto
          -15 -31 -8 -40 -54 vvcurveto
          -316 -645 rmoveto
          43 46 27 46 16 vhcurveto
          -58 vlineto
          62 callgsubr
        </CharString>
        <CharString name="ffl">
          328 -250 75 -75 -48 callsubr
          176 73 hstemhm
          -97 59 85 147 84 146 136 143 0 124 hintmask 1011111110000000
          47 -250 rmoveto
          40 47 11 41 29 hvcurveto
          -32 26 41 -20 54 hhcurveto
          63 77 32 138 hvcurveto
          540 93 40 -94 110 vlineto
          64 28 12 23 13 44 -5 -11 29 vhcurveto
          -491 49 callsubr
          hintmask 1011111101000000
          -44 callgsubr
          -42 -11 17 52 hvcurveto
          520 vlineto
          36 -97 -92 33 -90 hhcurveto
          -37 -42 -9 -33 -29 hvcurveto
          28 -33 -41 14 -50 hhcurveto
          -66 -79 -26 -141 hvcurveto
          -574 vlineto
          -79 -26 -65 -27 -74 vvcurveto
          -79 75 -52 69 vhcurveto
          147 710 rmoveto
          84 -408 hlineto
          -84 -15 rlineto
          -7 -181 rmoveto
          5 18 2 22 24 vvcurveto
          88 vlineto
          85 19 rlineto
          -110 vlineto
          -67 -22 -25 -27 -10 -23 5 26 -10 vhcurveto
          91 644 rmoveto
          -87 87 hlineto
          42 12 47 54 14 11 -4 -6 9 vhcurveto
          -8 -22 -5 -29 -36 vvcurveto
          -316 -693 rmoveto
          45 39 25 53 19 vhcurveto
          -58 vlineto
          hintmask 0111111110000000
          -59 -23 -19 -20 51 callsubr
          endchar
        </CharString>
        <CharString name="fi">
          81 -250 -48 callsubr
          53 39 callgsubr
          15 123 hintmask 1111001011000000
          -45 -83 callgsubr
          hintmask 1110110111000000
          -64 callgsubr
          57 17 56 65 32 25 -14 -26 6 vhcurveto
          -24 -4 -10 -16 -17 vvcurveto
          9 -118 rmoveto
          -351 vlineto
          -55 callsubr
        </CharString>
        <CharString name="fi.end">
          93 -250 -48 callsubr
          53 196 -54 54 hstemhm
          -96 37 callsubr
          hintmask 1111011100000000
          -43 -83 callgsubr
          -64 callgsubr
          hintmask 1110111100000000
          -9 callsubr
          hintmask 1111011001000000
          -60 callsubr
          hintmask 1111011010000000
          1 callgsubr
          endchar
        </CharString>
        <CharString name="five">
          67 -6 74 322 85 125 117 32 -20 hstem
          36 110 199 141 vstem
          425 749 rmoveto
          -24 -56 -48 -8 -51 hhcurveto
          -55 -28 9 8 -72 hvcurveto
          -60 -396 rlineto
          23 32 54 29 60 hhcurveto
          78 66 -50 -112 -70 -26 -90 -76 -47 -50 34 60 43 25 19 51 6 hvcurveto
          35 -14 -29 16 -40 hhcurveto
          -50 -53 -33 -91 -138 120 -25 89 176 65 125 115 129 -80 112 -144 -41 -39 -9 -22 -41 hvcurveto
          30 181 rlineto
          -5 41 80 -20 51 hhcurveto
          70 25 38 49 26 -7 16 -6 20 hvcurveto
          endchar
        </CharString>
        <CharString name="fl">
          95 -250 -48 callsubr
          186 63 hstem
          -97 53 0 91 0 144 0 136 0 143 0 124 vstem
          470 680 rmoveto
          -95 callsubr
          -521 vlineto
          -56 callsubr
          -44 callgsubr
          -84 callsubr
          -515 -274 -50 callsubr
          endchar
        </CharString>
        <CharString name="fl.end">
          105 -250 -48 callsubr
          186 63 hstemhm
          -96 53 91 144 136 143 -143 228 hintmask 11111110
          471 680 rmoveto
          -95 callsubr
          -521 -26 callsubr
          vhcurveto
          hintmask 11111101
          15 callsubr
          hintmask 11111110
          -515 -274 -50 callsubr
          endchar
        </CharString>
        <CharString name="florin">
          -148 33 callsubr
          -58 53 90 144 102 47 vstem
          229 460 rmoveto
          74 40 -74 79 hlineto
          67 30 15 26 32 14 -23 -38 vhcurveto
          47 hlineto
          103 -35 46 -103 -75 -80 -24 -146 vhcurveto
          -79 -60 -40 60 -452 vlineto
          -82 -27 -61 -27 -72 vvcurveto
          -78 70 -54 80 57 80 27 143 vhcurveto
          -234 -30 rmoveto
          39 39 28 51 18 vhcurveto
          -58 vlineto
          -59 -20 -19 -21 -19 -30 16 35 vhcurveto
          endchar
        </CharString>
        <CharString name="four">
          62 21 -21 270 79 401 -20 hstem
          101 101 67 145 vstem
          269 270 rmoveto
          -270 145 270 63 79 -63 401 vlineto
          -145 -20 rlineto
          -381 -155 vlineto
          28 93 60 102 91 vvcurveto
          98 -50 17 -69 vhcurveto
          11 -27 7 -21 -63 vvcurveto
          -124 -73 -152 -11 -93 vhcurveto
          endchar
        </CharString>
        <CharString name="g">
          56 21 callsubr
          hstemhm
          27 146 7 59 callgsubr
          hintmask 11011110
          -1 callgsubr
          hintmask 11101110
          -90 callgsubr
          71 vlineto
          59 19 67 37 12 132 rrcurveto
          -42 hlineto
          -10 -88 -30 -33 -56 -22 rrcurveto
          hintmask 11011110
          464 vlineto
          hintmask 11101110
          -192 -57 32 callsubr
          -74 callsubr
        </CharString>
        <CharString name="g.end">
          51 21 callsubr
          hstemhm
          27 146 7 59 callgsubr
          hintmask 11011110
          -1 callgsubr
          hintmask 11101110
          -90 callgsubr
          hintmask 11011110
          580 vlineto
          hintmask 11101110
          -192 -57 32 callsubr
          -74 callsubr
        </CharString>
        <CharString name="g_p">
          523 -18 callgsubr
          82 -62 97 332 62 -5 -20 57 -20 hstemhm
          27 146 7 59 callgsubr
          96 144 137 139 hintmask 1100111111100000
          554 537 rmoveto
          -477 vlineto
          -32 -5 -32 -7 -32 -7 rrcurveto
          459 -144 -45 vlineto
          hintmask 1011011111100000
          3 callsubr
          -79 vlineto
          -64 -23 -70 -41 -71 vvcurveto
          -76 65 -40 70 66 77 27 143 vhcurveto
          71 vlineto
          33 8 31 2 32 1 rrcurveto
          -252 12 callgsubr
          211 vlineto
          hintmask 1101011111100000
          -2 28 30 -1 34 53 callsubr
          -88 -50 -35 -18 -25 47 callsubr
          309 vlineto
          32 11 24 17 23 hhcurveto
          24 55 -10 -161 -79 -22 -107 -71 hvcurveto
          -476 367 -2 callsubr
          -226 vlineto
          hintmask 1011011111100000
          -47 -7 -35 -24 -26 hhcurveto
          -25 -48 2 132 83 27 115 66 hvcurveto
          -33 -573 rmoveto
          35 38 23 43 18 vhcurveto
          -29 vlineto
          -59 -18 -30 -21 -24 -18 22 20 vhcurveto
          endchar
        </CharString>
        <CharString name="g_x">
          462 -18 callgsubr
          97 -77 97 341 53 -53 112 -64 -20 hstemhm
          27 146 6 54 81 144 291 138 hintmask 1100011111000000
          -1 callgsubr
          hintmask 1011001111000000
          3 callsubr
          -88 vlineto
          -16 callgsubr
          hintmask 1100101111000000
          74 vlineto
          67 22 88 36 56 79 rrcurveto
          -96 43 38 -41 64 17 callsubr
          -27 -38 -39 hhcurveto
          -44 -19 50 38 -15 hvcurveto
          -18 45 rlineto
          64 86 51 96 67 vvcurveto
          -24 callgsubr
          1 -5 0 -4 -5 vvcurveto
          -40 -30 -48 -49 -67 vhcurveto
          hintmask 1010011111000000
          -85 215 25 callsubr
          -192 -57 -2 callsubr
          -226 vlineto
          -47 -7 -35 -24 -26 hhcurveto
          -25 -48 2 132 83 27 115 66 hvcurveto
          -33 -573 -53 callgsubr
        </CharString>
        <CharString name="g_z">
          456 -250 78 172 71 -71 155 -141 97 244 57 callgsubr
          hstemhm
          27 146 7 59 callgsubr
          75 -38 callsubr
          hintmask 1100001111110000
          -1 callgsubr
          hintmask 1001100111110000
          -90 callgsubr
          hintmask 1100001111110000
          580 vlineto
          386 -409 rmoveto
          -16 -19 -4 -24 -27 -44 5 1 -17 vhcurveto
          48 callgsubr
          hintmask 1100100111110000
          -77 callgsubr
          hintmask 1100010111110000
          -104 callsubr
          hintmask 1010100111110000
          -92 callgsubr
          -80 callsubr
          -578 352 32 callsubr
          hintmask 1001100111110000
          -74 callsubr
        </CharString>
        <CharString name="gbreve">
          56 21 callsubr
          88 45 -45 135 hstemhm
          27 146 -94 79 22 59 callgsubr
          -92 76 hintmask 1101101011000000
          -1 callgsubr
          hintmask 1110101011000000
          -90 callgsubr
          71 vlineto
          59 19 67 37 12 132 rrcurveto
          -42 hlineto
          -10 -88 -30 -33 -56 -22 rrcurveto
          hintmask 1101101011000000
          464 vlineto
          hintmask 1110011011000000
          -192 -57 32 callsubr
          -42 -5 -27 -32 -43 hhcurveto
          -15 -51 4 125 91 27 112 66 hvcurveto
          hintmask 1110011010100000
          100 260 rmoveto
          hintmask 1110101011000000
          -60 -52 -30 -52 vhcurveto
          hintmask 1110010110100000
          -16 callsubr
          -209 -832 rmoveto
          hintmask 1110101011000000
          32 35 24 46 19 vhcurveto
          -29 vlineto
          -59 -17 -30 -24 -18 -22 18 25 vhcurveto
          endchar
        </CharString>
        <CharString name="germandbls">
          -1 -229 -21 250 61 551 88 hstemhm
          53 144 109 66 -31 104 hintmask 11111000
          197 530 rmoveto
          68 30 14 25 24 30 -14 -51 -55 -35 -25 -32 -16 vhcurveto
          -5 -58 rlineto
          hintmask 11110100
          81 -18 26 -54 -96 vvcurveto
          -86 -21 -78 -53 vhcurveto
          -59 vlineto
          -1 11 12 -1 8 hhcurveto
          63 84 73 149 111 -47 64 -96 30 hvcurveto
          hintmask 11111000
          44 24 26 46 59 vvcurveto
          94 -65 50 -102 -71 -81 -24 -146 vhcurveto
          -780 12 callgsubr
          endchar
        </CharString>
        <CharString name="grave">
          -250 561 189 hstem
          -36 561 rmoveto
          75 hlineto
          -69 -43 callgsubr
        </CharString>
        <CharString name="greater">
          -89 122 -21 328 -20 hstem
          59 374 rmoveto
          219 -120 -219 -96 -2 -57 277 124 rlineto
          54 vlineto
          -278 150 rlineto
          endchar
        </CharString>
        <CharString name="guillemotleft">
          63 90 -21 380 -20 hstem
          196 449 -36 callgsubr
          157 45 -36 callgsubr
          endchar
        </CharString>
        <CharString name="guillemotright">
          66 90 -21 380 -20 hstem
          319 69 -36 callsubr
          -157 -45 -36 callsubr
          endchar
        </CharString>
        <CharString name="guilsinglleft">
          -145 90 -21 380 -20 hstem
          196 449 -36 callgsubr
          endchar
        </CharString>
        <CharString name="guilsinglright">
          -142 90 -21 380 -20 hstem
          111 69 -36 callsubr
          endchar
        </CharString>
        <CharString name="h">
          54 -33 callsubr
          413 91 196 -20 -73 callgsubr
          108 139 hintmask 10111100
          301 303 rmoveto
          -27 -2 -71 -24 vvcurveto
          -113 43 -74 103 -30 callsubr
          252 -10 callsubr
          hintmask 01111100
          -680 144 321 vlineto
          46 4 15 46 40 hhcurveto
          33 18 -31 -79 hvcurveto
          endchar
        </CharString>
        <CharString name="h.end">
          68 -33 callsubr
          413 91 196 4 callgsubr
          hintmask 10111010
          -49 callgsubr
          hintmask 01111100
          -40 callgsubr
          -31 -42 -8 -48 -32 vhcurveto
          252 -10 callsubr
          -680 144 321 vlineto
          22 callgsubr
          endchar
        </CharString>
        <CharString name="hungarumlaut">
          -15 561 189 hstem
          1 561 -63 callsubr
          79 -189 -63 callsubr
          endchar
        </CharString>
        <CharString name="hyphen">
          8 callgsubr
        </CharString>
        <CharString name="i">
          -25 callgsubr
          74 159 -94 callsubr
          13 callgsubr
          endchar
        </CharString>
        <CharString name="i.end">
          -173 -25 callgsubr
          74 58 callsubr
          -144 228 hintmask 11110000
          36 633 rmoveto
          -104 callgsubr
          11 -133 rmoveto
          44 callsubr
          vhcurveto
          hintmask 11101000
          -60 callsubr
          hintmask 11110000
          1 callgsubr
          endchar
        </CharString>
        <CharString name="i_x">
          184 -6 97 361 112 -64 -20 74 58 callsubr
          294 138 hintmask 10111100
          47 -60 callgsubr
          -6 callsubr
          -129 56 -56 77 92 85 64 73 51 vhcurveto
          -96 43 39 -41 -35 callsubr
          -50 -4 -28 -38 -39 hhcurveto
          -44 -19 50 38 -15 -69 callsubr
          13 callgsubr
          endchar
        </CharString>
        <CharString name="i_x.end">
          201 -6 97 361 112 -64 -20 74 58 callsubr
          294 138 hintmask 10111100
          47 -60 callgsubr
          -6 callsubr
          -129 56 -56 77 92 85 64 73 51 vhcurveto
          -97 43 39 49 callgsubr
          -3 -6 -7 -3 -18 hhcurveto
          -44 -15 29 59 -23 -69 callsubr
          13 callgsubr
          endchar
        </CharString>
        <CharString name="i_z">
          186 14 callsubr
          145 -54 54 54 159 48 callsubr
          hintmask 0100101101100000
          36 633 rmoveto
          -104 callgsubr
          11 -133 rmoveto
          44 callsubr
          vhcurveto
          hintmask 0100101010100000
          -60 callsubr
          hintmask 0100101101100000
          1 callgsubr
          383 -409 rmoveto
          hintmask 1000101101100000
          -106 callsubr
          hintmask 0001011101100000
          -104 callsubr
          hintmask 0010101101100000
          -92 callgsubr
          vhcurveto
          hintmask 0100101101100000
          56 callsubr
        </CharString>
        <CharString name="iacute">
          -25 callgsubr
          81 189 -94 callsubr
          -105 61 -101 callgsubr
        </CharString>
        <CharString name="iacute.end">
          -173 -25 callgsubr
          81 189 -73 callgsubr
          -144 228 hintmask 11101000
          -5 callgsubr
          hintmask 11110000
          1 callgsubr
          -114 61 -101 callgsubr
        </CharString>
        <CharString name="iacute_x">
          184 -6 97 361 112 -64 -20 81 189 -73 callgsubr
          294 138 hintmask 10111100
          47 -60 callgsubr
          -6 callsubr
          -129 56 -56 77 92 85 64 73 51 vhcurveto
          -96 43 39 -41 -35 callsubr
          -50 -4 -28 -38 -39 hhcurveto
          -44 -19 50 38 -15 -69 callsubr
          -113 61 -101 callgsubr
        </CharString>
        <CharString name="iacute_z">
          186 14 callsubr
          145 -54 54 61 189 48 callsubr
          hintmask 0100101010100000
          -5 callgsubr
          hintmask 0100101101100000
          1 callgsubr
          383 -409 rmoveto
          hintmask 1000101101100000
          -106 callsubr
          hintmask 0001011101100000
          -104 callsubr
          hintmask 0010101101100000
          -92 callgsubr
          vhcurveto
          hintmask 0100101101100000
          -80 callsubr
          -497 470 -101 callgsubr
        </CharString>
        <CharString name="icircumflex">
          -25 callgsubr
          270 -20 -94 callsubr
          74 61 rmoveto
          -100 189 rlineto
          -21 hlineto
          -172 -189 rlineto
          44 hlineto
          140 80 77 -80 rlineto
          endchar
        </CharString>
        <CharString name="idieresis">
          -25 callgsubr
          93 122 hstemhm
          -26 122 -49 144 -37 122 -85 123 hintmask 11101000
          47 -60 callgsubr
          -351 vlineto
          -56 callsubr
          hintmask 11110010
          -89 callsubr
          hintmask 11101000
          hintmask 11110100
          -217 134 rmoveto
          -105 callgsubr
          180 -69 callgsubr
        </CharString>
        <CharString name="igrave">
          -25 callgsubr
          81 189 -94 callsubr
          -104 61 rmoveto
          75 hlineto
          -69 -43 callgsubr
        </CharString>
        <CharString name="ij">
          56 -15 callgsubr
          74 58 callsubr
          -11 53 -53 95 39 144 hintmask 11110011
          314 -60 callgsubr
          -504 vlineto
          -66 -22 -68 -93 callsubr
          hintmask 11111001
          -411 hmoveto
          44 callsubr
          vhcurveto
          hintmask 11110011
          -60 callsubr
          hintmask 11111001
          1 callgsubr
          13 callgsubr
          269 hmoveto
          -104 callgsubr
          hintmask 11110101
          -72 -761 rmoveto
          -96 callsubr
        </CharString>
        <CharString name="ij.end">
          51 -15 callgsubr
          74 58 callsubr
          -11 53 -53 95 39 144 hintmask 11110011
          314 -60 callgsubr
          -504 vlineto
          -66 -22 -68 -59 callgsubr
          hintmask 11111001
          -411 hmoveto
          44 callsubr
          vhcurveto
          hintmask 11110011
          -60 callsubr
          hintmask 11111001
          1 callgsubr
          13 callgsubr
          269 hmoveto
          -104 callgsubr
          hintmask 11110101
          -72 -761 rmoveto
          -96 callsubr
        </CharString>
        <CharString name="j">
          -211 -250 78 672 -20 74 159 hstem
          -87 59 callgsubr
          vstem
          47 -60 callgsubr
          -504 vlineto
          -65 -22 -69 -93 callsubr
          -153 -72 callgsubr
          -72 -761 rmoveto
          -96 callsubr
        </CharString>
        <CharString name="j.end">
          -216 -250 78 672 -20 74 159 hstem
          -87 59 callgsubr
          vstem
          47 -60 callgsubr
          -504 vlineto
          -65 -22 -69 -59 callgsubr
          -153 -72 callgsubr
          -72 -761 rmoveto
          -96 callsubr
        </CharString>
        <CharString name="j_x">
          176 -18 callgsubr
          97 361 112 -64 -20 74 159 hstemhm
          -88 54 81 144 300 138 -60 60 hintmask 1101111100000000
          47 -60 callgsubr
          -508 vlineto
          -16 callgsubr
          74 vlineto
          67 22 88 36 56 79 rrcurveto
          -96 43 38 -41 64 hhcurveto
          54 91 6 callsubr
          22 hvcurveto
          -42 hlineto
          -42 callsubr
          -15 37 rlineto
          67 88 54 100 69 vvcurveto
          hintmask 1110011100000000
          -24 callgsubr
          hintmask 1101111010000000
          1 -5 0 -4 -5 vvcurveto
          -41 -32 -51 -53 -71 vhcurveto
          -88 223 25 callsubr
          -152 -72 callgsubr
          -73 -763 -53 callgsubr
        </CharString>
        <CharString name="j_z">
          164 -250 78 172 -23 callsubr
          54 159 hstemhm
          -87 59 callgsubr
          50 -38 callsubr
          hintmask 1101011111000000
          47 -60 callgsubr
          -504 vlineto
          -65 -22 -69 -59 callgsubr
          361 -409 rmoveto
          -106 callsubr
          hintmask 1100111111000000
          -104 callsubr
          hintmask 1011011111000000
          -92 callgsubr
          -80 callsubr
          -514 542 rmoveto
          -104 callgsubr
          -72 -761 rmoveto
          -96 callsubr
        </CharString>
        <CharString name="k">
          67 -33 callsubr
          283 80 -80 217 200 -20 -73 callgsubr
          123 137 hintmask 01101110
          352 -60 callgsubr
          -161 -152 rlineto
          352 -10 callsubr
          0 callsubr
          8 -30 -47 hvcurveto
          -24 -2 -34 -16 vvcurveto
          hintmask 10101110
          -12 callgsubr
          98 -68 33 -75 -9 -9 0 -1 -9 vhcurveto
          hintmask 10011110
          170 138 rlineto
          endchar
        </CharString>
        <CharString name="k.end">
          83 -33 callsubr
          283 82 -82 217 200 -20 -73 callgsubr
          122 136 -136 221 hintmask 01101101
          47 680 rmoveto
          0 callsubr
          7 -37 -46 hvcurveto
          -22 -2 -25 -24 vvcurveto
          hintmask 10101101
          -77 48 -58 84 72 19 45 42 vhcurveto
          10 -1 0 6 vvcurveto
          -5 -8 -14 -1 -11 hhcurveto
          -45 -8 39 42 hvcurveto
          hintmask 10101110
          21 2 21 18 vvcurveto
          95 -61 38 -73 -11 -12 -1 -2 -11 vhcurveto
          hintmask 10011110
          170 138 rlineto
          -99 hlineto
          -161 -152 rlineto
          352 vlineto
          endchar
        </CharString>
        <CharString name="k.salt">
          67 -33 callsubr
          283 81 39 103 -91 91 194 -20 -73 callgsubr
          121 139 hintmask 10101111
          314 206 rmoveto
          -24 -2 -34 -16 vvcurveto
          -12 callgsubr
          97 -64 35 -77 -29 -30 -5 -17 -28 vhcurveto
          54 46 28 19 43 hhcurveto
          hintmask 01110111
          17 19 -12 23 hhcurveto
          27 14 20 23 25 -21 35 -38 -52 -34 -18 -125 -104 hvcurveto
          337 -10 callsubr
          0 callsubr
          8 -30 -47 hvcurveto
          endchar
        </CharString>
        <CharString name="l">
          -6 97 609 59 callsubr
          680 rmoveto
          -531 -52 callsubr
          540 vlineto
          endchar
        </CharString>
        <CharString name="l.end">
          -178 -6 97 609 -20 -73 callgsubr
          -144 225 hintmask 11010000
          -4 callgsubr
          hintmask 11100000
          -84 callsubr
          540 vlineto
          endchar
        </CharString>
        <CharString name="l_x">
          198 -6 97 361 112 -64 -20 220 -20 -73 callgsubr
          294 138 hintmask 11011100
          48 179 rmoveto
          -49 callsubr
          -100 callsubr
          -49 -66 vhcurveto
          hintmask 10111100
          -84 213 -28 callsubr
          34 callgsubr
          540 -10 callsubr
          endchar
        </CharString>
        <CharString name="l_z">
          184 14 callsubr
          145 -54 54 200 -20 -73 callgsubr
          -144 225 -11 -38 callsubr
          hintmask 0100101010100000
          -4 callgsubr
          hintmask 0100101101100000
          -84 callsubr
          540 vlineto
          381 -609 rmoveto
          hintmask 1000101101100000
          -106 callsubr
          hintmask 0001011101100000
          -104 callsubr
          hintmask 0010101101100000
          -92 callgsubr
          vhcurveto
          hintmask 0100101101100000
          56 callsubr
        </CharString>
        <CharString name="less">
          -93 122 -21 328 -20 hstem
          300 429 rmoveto
          -275 -150 rlineto
          -41 vlineto
          276 -137 rlineto
          57 vlineto
          -214 96 215 120 rlineto
          endchar
        </CharString>
        <CharString name="logicalnot">
          15 51 250 -79 79 hstemhm
          293 111 hintmask 01100000
          404 301 rmoveto
          -363 -79 252 hlineto
          hintmask 10100000
          -171 111 vlineto
          endchar
        </CharString>
        <CharString name="lslash">
          -6 97 609 59 callsubr
          680 rmoveto
          -328 vlineto
          -61 -45 12 -58 49 36 rlineto
          -136 -52 callsubr
          230 vlineto
          113 83 -9 61 -104 -77 rlineto
          243 vlineto
          endchar
        </CharString>
        <CharString name="m">
          301 -33 callsubr
          414 90 -4 -20 25 -34 callgsubr
          109 138 hintmask 10100111
          549 302 rmoveto
          -25 -2 -72 -24 vvcurveto
          -113 44 -74 100 61 68 27 158 27 callsubr
          -9 -37 -46 hhcurveto
          -41 -11 29 57 hvcurveto
          34 4 74 35 vvcurveto
          140 -64 44 -76 -40 -51 -12 -73 -33 vhcurveto
          hintmask 10001111
          67 -27 -44 19 -50 hhcurveto
          -34 -43 -9 -48 -32 hvcurveto
          hintmask 01010111
          -65 callsubr
          hintmask 01100111
          50 4 19 43 36 hhcurveto
          34 10 -37 -32 -29 callgsubr
          endchar
        </CharString>
        <CharString name="m.end">
          315 -33 callsubr
          414 90 -4 -20 25 -34 callgsubr
          109 138 -138 219 hintmask 1010011010000000
          -17 callgsubr
          hintmask 1010011100000000
          36 4 73 35 vvcurveto
          140 -64 44 -76 -40 -51 -12 -72 -32 vhcurveto
          hintmask 1000111100000000
          55 callgsubr
          hintmask 0101011100000000
          -65 callsubr
          hintmask 0110011100000000
          52 4 20 41 36 hhcurveto
          35 8 -40 -29 -29 callgsubr
          endchar
        </CharString>
        <CharString name="m_x">
          693 0 91 -76 -21 420 90 -52 112 -64 -20 25 -34 callgsubr
          111 132 299 138 hintmask 1000101111000000
          754 -60 callgsubr
          124 -314 rlineto
          -55 -33 -61 -40 -46 hhcurveto
          -37 -20 23 62 hvcurveto
          38 4 66 44 vvcurveto
          hintmask 1010001111000000
          135 -64 45 -78 -37 -51 -12 -72 -33 vhcurveto
          hintmask 1000011111000000
          61 -24 -48 24 -49 hhcurveto
          -35 -43 -9 -48 -32 hvcurveto
          hintmask 1000101111000000
          -65 callsubr
          hintmask 1010001111000000
          50 4 18 43 39 hhcurveto
          33 9 -40 -29 hvcurveto
          -345 144 321 vlineto
          50 4 18 42 36 hhcurveto
          33 20 -31 -78 hvcurveto
          -32 -2 -60 -36 vvcurveto
          hintmask 0110001111000000
          -98 30 -84 112 71 87 65 73 53 vhcurveto
          -97 44 39 -41 -35 callsubr
          hintmask 1001001111000000
          -33 callgsubr
          49 39 -15 hvcurveto
          -18 46 rlineto
          64 85 50 96 69 vvcurveto
          61 -39 28 -37 -32 -30 -21 -34 -28 20 -29 42 8 -2 1 1 9 vhcurveto
          1 -5 0 -4 -5 vvcurveto
          -39 -30 -48 -49 -67 vhcurveto
          hintmask 1000101111000000
          -84 214 rlineto
          endchar
        </CharString>
        <CharString name="m_z">
          674 14 callsubr
          149 -90 90 -58 58 -4 -20 25 -34 callgsubr
          109 138 -138 219 -15 -38 callsubr
          hintmask 0100100001101010
          -17 callgsubr
          hintmask 1000010001110110
          36 4 73 35 vvcurveto
          140 -64 44 -76 -40 -51 -12 -72 -32 vhcurveto
          hintmask 1000000011110110
          55 callgsubr
          hintmask 0001000101110110
          -65 callsubr
          hintmask 0001010001110110
          52 4 20 41 36 hhcurveto
          35 8 -40 -29 -29 callgsubr
          hintmask 0100100001110110
          513 -211 rmoveto
          hintmask 1000000101110110
          -16 -19 -4 -24 -27 -44 5 1 -17 vhcurveto
          48 callgsubr
          hintmask 1000100001110110
          -77 callgsubr
          hintmask 0001001001110110
          -104 callsubr
          hintmask 0010100001110110
          -92 callgsubr
          vhcurveto
          hintmask 0100100001110110
          56 callsubr
        </CharString>
        <CharString name="minus">
          17 54 callgsubr
          350 hlineto
          endchar
        </CharString>
        <CharString name="mu">
          54 -145 -21 160 -28 callgsubr
          hstem
          -51 callsubr
          104 144 vstem
          295 -60 callgsubr
          63 callsubr
          -27 -38 -36 -26 -15 19 50 vhcurveto
          340 -144 -666 12 callgsubr
          124 vlineto
          40 2 52 16 31 77 rrcurveto
          -59 13 35 -36 71 hhcurveto
          55 -44 callsubr
          -48 -5 -21 -40 -51 hhcurveto
          -35 -11 -52 callgsubr
          vlineto
          endchar
        </CharString>
        <CharString name="multiply">
          -6 121 -21 319 -20 hstem
          43 355 rmoveto
          115 -96 -115 -95 51 -64 129 106 129 -106 50 65 -115 94 115 95 -50 65 -129 -107 -129 107 rlineto
          endchar
        </CharString>
        <CharString name="n">
          31 callsubr
          26 callgsubr
          hintmask 10101100
          -85 callsubr
          hintmask 01011100
          -65 callsubr
          hintmask 10101100
          22 callsubr
          endchar
        </CharString>
        <CharString name="n.end">
          68 -6 97 -70 -21 413 91 -4 4 callgsubr
          hintmask 10101010
          -49 callgsubr
          hintmask 10101100
          -40 callgsubr
          -31 -42 -8 -48 -32 vhcurveto
          hintmask 01011100
          -65 callsubr
          hintmask 10101100
          22 callgsubr
          endchar
        </CharString>
        <CharString name="n_z">
          431 14 callsubr
          149 -91 91 -58 58 -4 4 callgsubr
          -11 -38 callsubr
          hintmask 0100100010101000
          -49 callgsubr
          hintmask 1000010011011000
          -40 callgsubr
          -31 -42 -8 -48 -32 vhcurveto
          hintmask 0001000111011000
          -65 callsubr
          hintmask 0100010011011000
          22 callgsubr
          517 -213 rmoveto
          hintmask 1000000111011000
          -16 -19 -4 -24 -27 -44 5 1 -17 vhcurveto
          48 callgsubr
          hintmask 1000100011011000
          -77 callgsubr
          hintmask 0001001011011000
          -104 callsubr
          hintmask 0010100011011000
          -92 callgsubr
          vhcurveto
          hintmask 0100100011011000
          56 callsubr
        </CharString>
        <CharString name="nacute">
          31 callsubr
          81 189 26 callgsubr
          hintmask 10101110
          -85 callsubr
          hintmask 01011110
          -65 callsubr
          hintmask 10101110
          22 callsubr
          -73 259 -101 callgsubr
        </CharString>
        <CharString name="nine">
          100 -6 81 -81 186 131 77 294 68 hstemhm
          30 114 -60 60 229 134 hintmask 10110110
          320 445 rmoveto
          -45 -21 -33 -12 -30 hhcurveto
          -56 -36 43 88 70 32 93 81 51 65 -58 -197 -183 -56 -169 -97 -37 -32 27 33 13 5 14 7 8 hvcurveto
          hintmask 01110110
          7 -13 -12 3 -9 hhcurveto
          -29 -16 -30 -32 -55 48 -69 94 197 84 213 225 241 -117 77 -119 hvcurveto
          hintmask 10111010
          -157 -84 -106 -124 -92 46 -117 141 72 51 46 46 14 -6 15 -14 13 hvcurveto
          endchar
        </CharString>
        <CharString name="ntilde">
          31 callsubr
          89 78 -41 41 -41 74 26 callgsubr
          hintmask 1010100110000000
          -85 callsubr
          hintmask 0101100110000000
          -65 callsubr
          hintmask 1010010110000000
          22 callsubr
          125 368 -41 callsubr
          hintmask 1010001110000000
          -92 callsubr
          hintmask 1010100110000000
          -63 callgsubr
          endchar
        </CharString>
        <CharString name="numbersign">
          106 -6 -21 138 102 113 102 290 -20 hstem
          159 57 120 57 vstem
          336 -27 rmoveto
          57 138 125 102 -125 113 125 102 -125 290 -57 -290 -120 290 -57 -290 -119 -102 119 -113 -119 -102 119 -138 57 138 120 hlineto
          -120 215 rmoveto
          120 -113 -120 hlineto
          endchar
        </CharString>
        <CharString name="o">
          1 callsubr
          hstem
          30 147 149 86 vstem
          -107 callgsubr
          endchar
        </CharString>
        <CharString name="o.end">
          30 -6 94 357 60 -77 callsubr
          hintmask 11110000
          -75 callgsubr
          hintmask 11101000
          -33 13 -20 27 -6 vhcurveto
          -14 vlineto
          -109 -24 -82 -57 vhcurveto
          endchar
        </CharString>
        <CharString name="o_ae">
          637 -6 84 -84 97 111 48 -21 61 5 210 -59 59 6 callgsubr
          107 128 -86 86 73 140 110 147 113 78 hintmask 1001011101110000
          244 505 rmoveto
          -173 -41 -171 -114 -169 89 -57 98 144 51 123 154 16 -1 15 -1 14 hvcurveto
          47 125 2 83 112 hhcurveto
          64 22 -46 -53 -19 -2 -23 -4 -19 hvcurveto
          2 -12 -15 2 -20 hhcurveto
          -117 -80 -35 -96 -132 82 -33 83 71 28 46 45 15 hvcurveto
          -64 34 61 -27 74 hhcurveto
          136 64 95 61 callsubr
          hintmask 1010011101110000
          -52 -29 31 93 -5 hvcurveto
          107 6 84 77 97 vvcurveto
          81 -44 42 -89 -51 -39 -17 -27 -30 vhcurveto
          31 -40 -52 13 -69 hhcurveto
          -127 -25 -93 -50 -103 hvcurveto
          100 -19 -54 43 -87 hhcurveto
          1 -417 rmoveto
          -30 -38 22 120 93 23 122 59 14 23 -8 -39 14 -30 callgsubr
          hintmask 1010101011110000
          -29 13 -30 29 -2 vhcurveto
          -16 vlineto
          -109 -24 -82 -57 vhcurveto
          750 299 rmoveto
          -68 -47 -65 -67 -4 vhcurveto
          90 2 27 116 49 hhcurveto
          18 18 -16 -53 hvcurveto
          hintmask 0101101101110000
          -282 -158 rmoveto
          7 7 -1 7 hhcurveto
          -107 -19 -30 -27 -20 -43 6 58 51 42 23 46 vhcurveto
          endchar
        </CharString>
        <CharString name="o_s">
          323 -6 79 -79 94 47 87 223 60 26 -20 -77 callsubr
          46 -26 callgsubr
          hintmask 1011111011000000
          -107 callsubr
          53 55 19 52 24 hvcurveto
          37 26 42 34 36 54 rrcurveto
          -42 hlineto
          -15 -15 -22 -18 -23 -14 -1 101 -38 41 -66 257 rrcurveto
          -93 callgsubr
          endchar
        </CharString>
        <CharString name="o_s.end">
          60 callsubr
          26 -20 -77 callsubr
          46 -26 callgsubr
          hintmask 1011111011000000
          -107 callsubr
          71 74 35 100 28 callgsubr
          hvcurveto
          -93 callgsubr
          endchar
        </CharString>
        <CharString name="o_s_x">
          695 45 callgsubr
          223 60 -60 119 -64 -20 -77 callsubr
          46 -26 callgsubr
          209 138 hintmask 1011001101110000
          244 505 rmoveto
          -105 callsubr
          50 52 17 47 26 hvcurveto
          38 21 66 26 44 37 rrcurveto
          -104 45 39 -44 66 -59 callsubr
          hintmask 0110101101110000
          -50 -5 -28 -38 -39 hhcurveto
          -44 -18 49 39 -15 hvcurveto
          -20 51 rlineto
          62 84 48 94 65 vvcurveto
          -24 callgsubr
          1 -5 0 -4 -5 vvcurveto
          -38 -28 -47 -47 -64 vhcurveto
          hintmask 1010011101110000
          -7 callgsubr
          -37 -17 rlinecurve
          6 vlineto
          28 callgsubr
          vhcurveto
          -144 -20 -34 -91 -38 -57 -46 -10 rlinecurve
          hintmask 1011001101110000
          106 -18 -55 46 -89 hhcurveto
          1 -417 -87 callsubr
          hintmask 1011001011110000
          -71 callgsubr
          endchar
        </CharString>
        <CharString name="o_s_z">
          688 16 callgsubr
          51 -20 -77 callsubr
          46 -26 callgsubr
          -8 -38 callsubr
          hintmask 1000110011101101
          -107 callsubr
          71 74 35 100 28 callgsubr
          hvcurveto
          408 -440 -79 callgsubr
          -831 -3 -87 callsubr
          hintmask 0100110011011101
          -71 callgsubr
          endchar
        </CharString>
        <CharString name="o_x">
          35 callgsubr
          -77 callsubr
          63 129 90 138 hintmask 0101001101100000
          -47 callgsubr
          hintmask 1001001101100000
          -21 callsubr
          hintmask 0010101101100000
          -67 callsubr
          hintmask 1000011101100000
          37 callgsubr
          hintmask 1001001101100000
          99 -20 -55 53 -90 hhcurveto
          15 -417 -29 callsubr
          -11 -14 -22 vvcurveto
          hintmask 1001001011100000
          -33 13 -20 27 -6 vhcurveto
          -18 vlineto
          -103 -30 -83 -44 vhcurveto
          endchar
        </CharString>
        <CharString name="oacute">
          1 callsubr
          56 189 hstem
          30 147 149 86 vstem
          -107 callgsubr
          -40 473 -101 callgsubr
        </CharString>
        <CharString name="oacute.end">
          26 -6 94 357 60 56 189 -77 callsubr
          hintmask 11111000
          -75 callgsubr
          hintmask 11110100
          -33 13 -20 27 -6 vhcurveto
          -14 vlineto
          -109 -24 -82 -57 vhcurveto
          -46 473 -101 callgsubr
        </CharString>
        <CharString name="oacute_s">
          323 -6 79 -79 94 47 87 223 60 56 189 -77 callsubr
          46 -26 callgsubr
          hintmask 1011111011000000
          -107 callsubr
          53 55 19 52 24 hvcurveto
          37 26 42 34 36 54 rrcurveto
          -42 hlineto
          -15 -15 -22 -18 -23 -14 -1 101 -38 41 -66 257 rrcurveto
          -93 callgsubr
          -57 473 -101 callgsubr
        </CharString>
        <CharString name="oacute_s.end">
          60 callsubr
          56 189 -77 callsubr
          46 -26 callgsubr
          hintmask 1011111011000000
          -107 callsubr
          71 74 35 100 28 callgsubr
          hvcurveto
          -93 callgsubr
          -38 473 -101 callgsubr
        </CharString>
        <CharString name="oacute_s_x">
          695 45 callgsubr
          223 60 -60 119 -64 -20 81 189 -77 callsubr
          46 -26 callgsubr
          209 138 hintmask 1011001110111000
          -107 callsubr
          50 52 17 47 26 hvcurveto
          38 21 66 26 44 37 rrcurveto
          -104 45 39 -44 66 -59 callsubr
          hintmask 0110100110111000
          -50 -5 -28 -38 -39 hhcurveto
          -44 -18 49 39 -15 hvcurveto
          -20 51 rlineto
          62 84 48 94 65 vvcurveto
          -24 callgsubr
          1 -5 0 -4 -5 vvcurveto
          -38 -28 -47 -47 -64 vhcurveto
          hintmask 1010011110111000
          -7 callgsubr
          -37 -17 rlinecurve
          6 vlineto
          28 callgsubr
          vhcurveto
          -423 -443 rmoveto
          -30 -38 22 120 hvcurveto
          hintmask 1011001110111000
          93 23 122 59 15 23 -9 -43 15 vhcurveto
          -22 callsubr
          hintmask 1011001101111000
          -71 callgsubr
          -20 473 -101 callgsubr
        </CharString>
        <CharString name="oacute_s_z">
          689 16 callgsubr
          81 189 6 callgsubr
          110 125 -86 86 47 -26 callgsubr
          -8 -38 callsubr
          hintmask 1000110011101101
          237 505 rmoveto
          -162 -45 -169 -113 -169 89 -60 113 108 72 101 157 17 -1 17 -1 16 hvcurveto
          56 19 45 46 33 72 rrcurveto
          54 -188 31 -33 -89 vvcurveto
          -41 -16 -15 -33 -38 -26 28 -76 callsubr
          23 16 17 21 31 -20 18 -41 -29 -26 -28 -45 -83 51 -72 119 71 74 35 100 28 callgsubr
          hvcurveto
          -144 -20 -35 -94 -40 -57 -48 -7 rlinecurve
          99 -20 -55 53 -90 hhcurveto
          840 -414 -79 callgsubr
          -825 -3 -29 callsubr
          -10 -14 -22 vvcurveto
          hintmask 0100110011011101
          -32 12 -21 27 -6 vhcurveto
          -18 vlineto
          -103 -30 -83 -44 vhcurveto
          -47 473 -101 callgsubr
        </CharString>
        <CharString name="oacute_x">
          35 callgsubr
          81 189 -77 callsubr
          63 129 90 138 hintmask 0101001110110000
          -47 callgsubr
          hintmask 1001001110110000
          -21 callsubr
          hintmask 0010100110110000
          -67 callsubr
          hintmask 1000011110110000
          37 callgsubr
          hintmask 1001001110110000
          99 -20 -55 53 -90 hhcurveto
          15 -417 -29 callsubr
          -11 -14 -22 vvcurveto
          hintmask 1001001101110000
          -33 13 -20 27 -6 vhcurveto
          -18 vlineto
          -103 -30 -83 -44 vhcurveto
          -58 473 -101 callgsubr
        </CharString>
        <CharString name="ocircumflex">
          1 callsubr
          0 56 189 -20 6 callgsubr
          149 86 hintmask 11011100
          -107 callgsubr
          hintmask 10111100
          135 473 rmoveto
          -100 189 rlineto
          -21 hlineto
          -172 -189 rlineto
          44 hlineto
          140 80 77 -80 rlineto
          endchar
        </CharString>
        <CharString name="odieresis">
          1 callsubr
          68 122 6 callgsubr
          -89 45 callsubr
          -64 86 hintmask 11110010
          -107 callgsubr
          hintmask 11101100
          -157 546 rmoveto
          -105 callgsubr
          180 -69 callgsubr
        </CharString>
        <CharString name="oe">
          217 -6 78 -78 97 -70 -21 284 225 -58 58 1 -20 hstemhm
          32 136 105 200 -144 144 127 60 hintmask 0100011101000000
          234 510 rmoveto
          -113 -89 -79 -174 -174 41 -89 161 54 51 33 64 31 hvcurveto
          hintmask 0011001101000000
          -58 34 55 -33 67 hhcurveto
          129 75 101 103 35 hvcurveto
          -45 hlineto
          hintmask 1000101101000000
          -74 -19 -72 -58 -49 hhcurveto
          -43 -56 22 107 -8 hvcurveto
          84 12 103 60 104 vvcurveto
          87 -56 45 -98 -66 -43 -35 -49 -26 vhcurveto
          hintmask 0100011101000000
          48 -24 -41 37 -72 hhcurveto
          26 -419 rmoveto
          -51 -41 25 135 hvcurveto
          hintmask 1000101101000000
          79 18 121 65 28 14 -19 -33 10 vhcurveto
          -20 -9 -10 -24 -24 vvcurveto
          hintmask 0101001011000000
          -30 18 -28 35 vhcurveto
          2 -18 1 -18 -17 vvcurveto
          -76 -19 -64 -50 vhcurveto
          340 289 rmoveto
          -64 -47 -66 -81 -1 vhcurveto
          87 3 23 120 53 hhcurveto
          40 9 -57 -19 hvcurveto
          endchar
        </CharString>
        <CharString name="ogonek">
          -160 -193 59 -59 198 hstemhm
          68 77 hintmask 10100000
          121 5 rmoveto
          -35 -33 -18 -41 -30 vvcurveto
          4 callsubr
          30 callsubr
          hvcurveto
          hintmask 01100000
          32 23 33 23 10 vhcurveto
          endchar
        </CharString>
        <CharString name="ograve">
          1 callsubr
          56 189 hstem
          30 147 149 86 vstem
          -107 callgsubr
          -32 473 rmoveto
          75 hlineto
          -69 -43 callgsubr
        </CharString>
        <CharString name="ohungarumlaut">
          1 callsubr
          56 189 hstem
          30 147 149 86 vstem
          -107 callgsubr
          -82 473 -63 callsubr
          79 -189 -63 callsubr
          endchar
        </CharString>
        <CharString name="one">
          -118 21 -21 598 53 97 -20 hstem
          112 144 vstem
          256 748 rmoveto
          -72 -106 -79 -25 -55 hhcurveto
          -53 96 -598 144 vlineto
          endchar
        </CharString>
        <CharString name="onehalf">
          237 -50 -21 85 52 -47 -21 381 30 341 -20 hstemhm
          76 85 246 59 93 84 -84 101 hintmask 1101111100000000
          472 14 callgsubr
          -51 700 -7 callsubr
          304 -149 -20 callgsubr
          -9 callgsubr
          hintmask 1011111010000000
          40 callsubr
          hintmask 1101111100000000
          56 callgsubr
        </CharString>
        <CharString name="onequarter">
          228 -50 -21 221 39 561 -20 hstem
          76 85 269 64 40 85 vstem
          453 14 callgsubr
          341 221 -46 callgsubr
          -229 479 -7 callsubr
          endchar
        </CharString>
        <CharString name="onesuperior">
          -224 366 -21 404 -20 hstem
          80 85 vstem
          165 749 -7 callsubr
          endchar
        </CharString>
        <CharString name="ordfeminine">
          -96 467 45 199 34 -5 -20 hstemhm
          40 77 82 84 hintmask 10111000
          285 740 rmoveto
          -86 -11 hlineto
          hintmask 11011000
          9 -12 -16 7 -24 hhcurveto
          -77 -30 -81 -68 -63 25 -66 67 43 22 30 27 12 hvcurveto
          -35 12 16 -19 40 hhcurveto
          15 25 3 47 6 hvcurveto
          -2 -5 -6 0 -4 hhcurveto
          -23 -3 16 22 hvcurveto
          hintmask 10111000
          hintmask 11011000
          -112 155 rmoveto
          7 11 -3 -6 11 hvcurveto
          -142 vlineto
          -25 -7 -13 -23 -18 hhcurveto
          -16 -28 18 70 51 18 60 35 hvcurveto
          endchar
        </CharString>
        <CharString name="ordmasculine">
          -144 466 53 -53 224 24 31 hstemhm
          41 78 70 31 -9 43 hintmask 01111000
          243 671 rmoveto
          15 -3 -6 4 -14 hhcurveto
          -17 -14 -19 -17 -12 4 -12 16 -3 hvcurveto
          hintmask 10110100
          1 -10 1 -11 -10 vvcurveto
          -40 -10 -37 -37 -25 -20 16 69 43 11 67 39 13 10 -7 -12 7 vhcurveto
          hintmask 10111000
          10 4 11 5 13 vvcurveto
          17 -31 11 -29 -66 -53 -44 -96 -98 30 -41 84 vhcurveto
          hintmask 10110100
          47 52 43 86 10 -1 11 -4 18 hvcurveto
          23 12 4 26 2 20 -8 11 rcurveline
          -11 -14 -3 -9 -13 -9 rrcurveto
          endchar
        </CharString>
        <CharString name="oslash">
          -12 -82 -21 97 94 357 59 101 -20 6 callgsubr
          48 51 6 130 -86 86 hintmask 11111110
          277 -103 rmoveto
          103 vlineto
          82 24 53 94 134 vvcurveto
          19 -1 19 -2 17 vhcurveto
          71 22 62 47 19 41 rrcurveto
          -32 hlineto
          -26 -22 -53 -33 -49 -5 -18 82 -41 49 -66 13 rrcurveto
          104 -51 -101 vlineto
          -153 -8 -42 -163 -110 vvcurveto
          -166 85 -60 110 -3 vhcurveto
          -97 vlineto
          27 191 rmoveto
          -38 -37 15 129 90 27 123 54 18 21 -8 -39 14 hvcurveto
          -16 -1 -13 -18 -23 vvcurveto
          -34 14 -22 29 -4 vhcurveto
          hintmask 11111101
          -7 1 -7 -8 vvcurveto
          -103 -30 -83 -44 vhcurveto
          endchar
        </CharString>
        <CharString name="otilde">
          1 callsubr
          64 -14 callgsubr
          30 147 hintmask 11010100
          -107 callgsubr
          176 582 -41 callsubr
          hintmask 11001100
          -92 callsubr
          hintmask 11100100
          -63 callgsubr
          endchar
        </CharString>
        <CharString name="p">
          17 -229 -21 244 87 352 72 32 -20 hstem
          -51 callsubr
          137 139 vstem
          47 537 rmoveto
          -787 12 callgsubr
          243 vlineto
          -18 15 28 -17 50 hhcurveto
          142 41 138 129 180 -80 64 -90 -49 -34 -19 -24 -23 hvcurveto
          75 vlineto
          45 -456 rmoveto
          -24 -14 12 11 -7 hvcurveto
          279 vlineto
          33 11 25 17 24 hhcurveto
          18 59 -10 -148 -91 -22 -103 -70 hvcurveto
          endchar
        </CharString>
        <CharString name="p.calt">
          54 -229 -21 244 97 322 91 -91 124 26 callgsubr
          hintmask 11101100
          301 300 rmoveto
          -20 -1 -79 -18 vvcurveto
          -117 43 -72 102 -30 callsubr
          hintmask 11011100
          89 -144 -787 12 callgsubr
          535 vlineto
          48 4 16 44 39 hhcurveto
          33 18 -30 -83 hvcurveto
          endchar
        </CharString>
        <CharString name="p.salt">
          31 -229 -21 265 -21 419 91 -91 124 -73 callgsubr
          155 111 hintmask 11101100
          559 282 rmoveto
          -32 -6 -35 -7 -35 -9 rrcurveto
          140 -1 -60 104 -101 hhcurveto
          -29 -43 -9 -47 -32 hvcurveto
          hintmask 11011100
          89 -144 -787 12 callgsubr
          535 vlineto
          54 5 15 38 44 hhcurveto
          68 23 -91 -93 hvcurveto
          -6 vlineto
          -72 -31 -55 -45 -63 vvcurveto
          -52 36 -38 54 89 46 105 107 10 vhcurveto
          36 10 36 6 33 2 rrcurveto
          -281 -132 rmoveto
          23 25 24 38 22 vhcurveto
          -6 -1 -5 -1 -5 vhcurveto
          -71 -12 -18 -2 -8 hhcurveto
          -16 -7 8 12 hvcurveto
          endchar
        </CharString>
        <CharString name="paragraph">
          67 -60 -21 830 -20 hstem
          224 93 40 95 vstem
          316 682 rmoveto
          23 -19 17 -31 -62 vvcurveto
          -227 vlineto
          -3 -10 -13 -1 -17 hhcurveto
          1 -51 rmoveto
          13 3 13 3 14 5 rrcurveto
          -380 95 593 vlineto
          175 -111 62 -117 -139 -62 -105 -105 -114 73 -116 128 -22 vhcurveto
          -368 94 vlineto
          endchar
        </CharString>
        <CharString name="parenleft">
          -172 43 callsubr
          38 76 vstem
          245 750 rmoveto
          -137 -73 -70 -221 -206 vvcurveto
          -195 68 -181 139 -124 vhcurveto
          26 29 rlineto
          -109 122 -48 167 178 vvcurveto
          197 55 213 98 54 vhcurveto
          endchar
        </CharString>
        <CharString name="parenright">
          -171 43 callsubr
          165 77 vstem
          34 -250 rmoveto
          137 73 71 220 206 vvcurveto
          196 -69 181 -138 124 vhcurveto
          -27 -29 rlineto
          107 -120 50 -167 -180 vvcurveto
          -198 -54 -212 -98 -54 vhcurveto
          endchar
        </CharString>
        <CharString name="percent">
          185 50 callgsubr
          26 72 104 59 115 72 104 59 vstem
          518 750 rmoveto
          -72 hlineto
          -315 -750 rlineto
          72 hlineto
          -53 702 -100 callgsubr
          402 -221 -100 callgsubr
          endchar
        </CharString>
        <CharString name="period">
          -214 0 159 hstem
          39 159 vstem
          39 79 rmoveto
          -104 callgsubr
          endchar
        </CharString>
        <CharString name="periodcentered">
          -25 callsubr
        </CharString>
        <CharString name="perthousand">
          484 50 callgsubr
          27 72 104 59 115 72 104 59 65 72 104 59 vstem
          519 750 rmoveto
          -72 hlineto
          -315 -750 rlineto
          72 hlineto
          -53 702 -100 callgsubr
          402 -221 -100 callgsubr
          352 153 -100 callgsubr
          endchar
        </CharString>
        <CharString name="plus">
          -8 103 -21 123 112 122 -20 hstem
          164 113 vstem
          278 439 rmoveto
          -112 -122 -129 -112 127 -123 113 123 129 112 -128 hlineto
          endchar
        </CharString>
        <CharString name="plusminus">
          27 68 79 162 112 122 -20 hstem
          184 111 vstem
          297 543 rmoveto
          -113 -122 -129 -112 129 -123 111 123 129 112 -128 hlineto
          126 -274 rmoveto
          -367 -79 367 hlineto
          endchar
        </CharString>
        <CharString name="q">
          35 -229 -21 244 52 callsubr
          -5 -20 hstemhm
          30 146 138 144 hintmask 11011100
          -1 callgsubr
          hintmask 11101100
          45 -17 -43 5 -33 hhcurveto
          -139 -52 -157 -122 -174 92 -58 84 52 33 24 31 23 hvcurveto
          -299 12 callgsubr
          hintmask 11011100
          714 vlineto
          hintmask 11101100
          -192 -57 rmoveto
          29 14 -23 -12 5 hvcurveto
          -246 vlineto
          -47 -6 -32 -24 -26 hhcurveto
          -84 callgsubr
          hvcurveto
          endchar
        </CharString>
        <CharString name="question">
          -31 0 159 296 245 -54 54 hstemhm
          24 105 -23 159 10 120 hintmask 11010100
          395 548 rmoveto
          55 -19 97 -164 -146 -42 -76 -63 -69 42 -37 46 28 25 14 28 11 vhcurveto
          -31 11 -16 31 31 vvcurveto
          hintmask 10110100
          38 24 38 48 44 30 -27 -74 vhcurveto
          hintmask 11001100
          -124 -122 -51 -108 vvcurveto
          -9 1 -10 2 -11 vhcurveto
          66 hlineto
          17 138 156 15 163 vvcurveto
          -289 -469 rmoveto
          -104 callgsubr
          endchar
        </CharString>
        <CharString name="questiondown">
          -35 -247 54 -54 245 296 159 hstemhm
          23 120 10 159 -23 105 hintmask 01110100
          23 -95 rmoveto
          -55 19 -97 164 146 42 76 63 69 -42 37 -46 -28 -25 -14 -28 -11 vhcurveto
          31 -11 16 -31 -31 vvcurveto
          hintmask 10111000
          -38 -24 -38 -48 -44 -30 27 74 vhcurveto
          124 122 51 108 vvcurveto
          9 -1 10 -2 11 vhcurveto
          -66 hlineto
          -17 -138 -156 -15 -163 vvcurveto
          289 469 19 callgsubr
        </CharString>
        <CharString name="quotedbl">
          -102 29 callgsubr
          136 -189 rmoveto
          75 hlineto
          51 -43 callgsubr
        </CharString>
        <CharString name="quotedblbase">
          -15 -67 52 callgsubr
          38 137 83 137 vstem
          38 76 -75 callsubr
        </CharString>
        <CharString name="quotedblleft">
          -22 535 52 callgsubr
          34 137 83 137 vstem
          391 584 rmoveto
          -68 callsubr
          -220 hmoveto
          -68 callsubr
          endchar
        </CharString>
        <CharString name="quotedblright">
          -23 535 52 callgsubr
          42 137 83 137 vstem
          42 678 -75 callsubr
        </CharString>
        <CharString name="quoteleft">
          -242 535 52 callgsubr
          34 137 vstem
          171 584 rmoveto
          -68 callsubr
          endchar
        </CharString>
        <CharString name="quoteright">
          -243 535 52 callgsubr
          42 137 vstem
          42 678 -32 callgsubr
          endchar
        </CharString>
        <CharString name="quotesinglbase">
          -235 -67 52 callgsubr
          38 137 vstem
          38 76 -32 callgsubr
          endchar
        </CharString>
        <CharString name="quotesingle">
          -259 29 callgsubr
          endchar
        </CharString>
        <CharString name="r">
          -75 21 -21 357 148 -85 85 -5 -20 -73 callgsubr
          hintmask 10011000
          47 -60 callgsubr
          -500 144 380 vlineto
          hintmask 10101000
          23 21 19 17 20 hhcurveto
          hintmask 11001000
          38 -22 -63 60 hhcurveto
          41 17 30 29 42 -36 47 -50 -42 -37 -32 -35 -29 hvcurveto
          hintmask 10011000
          62 vlineto
          endchar
        </CharString>
        <CharString name="r_x">
          338 -29 104 -81 97 -70 -21 357 143 -80 80 -48 112 -59 -20 -73 callgsubr
          194 240 -217 130 87 138 hintmask 1001000101100000
          401 -60 callgsubr
          113 -261 -40 callsubr
          hintmask 0100010101100000
          -66 callgsubr
          hintmask 0011000101100000
          -89 205 rlineto
          -495 hmoveto
          -500 144 380 vlineto
          hintmask 1000100101100000
          23 21 19 17 20 hhcurveto
          hintmask 1001000110000000
          38 -22 -63 60 hhcurveto
          41 17 30 29 hvcurveto
          hintmask 1000001101100000
          42 -36 47 -50 -42 -37 -32 -35 -29 vhcurveto
          hintmask 1000100101100000
          62 vlineto
          endchar
        </CharString>
        <CharString name="r_z">
          208 0 65 -65 77 -77 155 197 148 -82 82 -57 57 -73 callgsubr
          383 103 hintmask 10001011
          255 418 rmoveto
          hintmask 10010011
          30 -14 -66 56 hhcurveto
          38 19 26 34 hvcurveto
          hintmask 10000111
          21 -4 5 -2 5 vhcurveto
          93 hlineto
          -160 -443 rlineto
          265 hlineto
          68 33 51 42 hvcurveto
          hintmask 00110011
          -92 callgsubr
          -80 callsubr
          hintmask 10010011
          -20 -11 -6 -16 vhcurveto
          hintmask 01010011
          65 callsubr
          -334 hlineto
          -48 -31 -32 -30 -29 hvcurveto
          62 -144 -500 144 378 vlineto
          hintmask 10001011
          24 19 14 16 31 hhcurveto
          endchar
        </CharString>
        <CharString name="registered">
          103 79 42 321 41 64 43 hstem
          35 46 100 46 116 46 87 43 vstem
          277 79 -61 callgsubr
          100 -142 rmoveto
          46 123 59 hlineto
          62 -125 47 7 -65 125 rlineto
          35 10 24 30 37 vvcurveto
          54 -40 30 -70 vhcurveto
          -97 hlineto
          45 -41 rmoveto
          55 hlineto
          33 28 -10 -35 -37 -42 -7 -29 hvcurveto
          -45 hlineto
          endchar
        </CharString>
        <CharString name="ring">
          -295 552 35 93 33 hstem
          -134 40 81 37 vstem
          -51 713 -39 callsubr
        </CharString>
        <CharString name="s">
          -69 -6 79 0 57 401 -20 hstemhm
          26 callsubr
          hintmask 10111000
          -99 callgsubr
          hintmask 01111000
          50 callsubr
        </CharString>
        <CharString name="s.end">
          -58 -6 79 0 57 401 -20 hstemhm
          26 callsubr
          hintmask 10111000
          7 callgsubr
          73 95 36 105 98 -20 11 callgsubr
          -141 -361 -96 callgsubr
          hintmask 01111000
          50 callsubr
        </CharString>
        <CharString name="s_x">
          290 -6 79 379 112 -64 -20 hstemhm
          26 callsubr
          209 138 hintmask 11011100
          7 callgsubr
          48 58 16 41 34 vhcurveto
          35 22 74 29 50 41 rrcurveto
          -105 45 39 -44 66 36 callsubr
          -44 -18 49 39 -15 hvcurveto
          -20 51 rlineto
          62 84 48 94 65 vvcurveto
          -24 callgsubr
          1 -5 0 -4 -5 vvcurveto
          -38 -28 -47 -47 -64 vhcurveto
          hintmask 10111100
          -7 callgsubr
          -38 -17 rlinecurve
          1 4 0 4 4 vvcurveto
          98 -20 11 callgsubr
          -141 -361 -45 callgsubr
        </CharString>
        <CharString name="s_z">
          293 -6 77 -77 161 -134 -21 446 54 31 -20 hstemhm
          26 callsubr
          2 -38 callsubr
          hintmask 1001111110000000
          7 callgsubr
          73 95 36 105 98 -20 11 callgsubr
          400 -440 rmoveto
          -106 callsubr
          12 22 2 29 vhcurveto
          74 hlineto
          hintmask 0011111110000000
          -196 -446 rlineto
          276 hlineto
          68 33 51 42 hvcurveto
          hintmask 0101111110000000
          -92 callgsubr
          -80 callsubr
          -541 79 -45 callgsubr
        </CharString>
        <CharString name="sacute">
          -69 -6 79 488 189 hstem
          26 callsubr
          vstem
          -99 callgsubr
          -10 7 13 -3 10 hhcurveto
          22 13 20 20 hvcurveto
          13 391 -101 callgsubr
        </CharString>
        <CharString name="scaron">
          -69 -6 79 677 -20 hstem
          26 callsubr
          vstem
          -99 callgsubr
          -10 7 13 -3 10 hhcurveto
          22 13 20 20 hvcurveto
          -66 580 rmoveto
          100 -189 rlineto
          21 hlineto
          172 189 rlineto
          -44 hlineto
          -140 -80 -77 80 rlineto
          endchar
        </CharString>
        <CharString name="section">
          69 -54 50 578 176 -37 37 hstemhm
          45 87 -27 120 72 118 -47 69 -35 93 hintmask 10101010
          437 639 rmoveto
          103 -116 8 -38 -89 -89 -43 -107 -25 5 -22 8 -20 vhcurveto
          hintmask 11010100
          -44 -21 -29 -40 -54 -157 252 2 -193 vvcurveto
          -47 -15 -27 -54 -70 -26 45 49 38 15 17 52 5 vhcurveto
          22 -21 -28 28 -40 hhcurveto
          -43 -31 -33 -66 -135 129 -20 69 116 65 57 100 12 -1 11 -2 11 hvcurveto
          hintmask 10101001
          55 15 28 55 65 203 -270 -2 152 vvcurveto
          48 27 40 48 vhcurveto
          hintmask 11010010
          45 23 -34 -34 -21 -8 -24 -15 -10 hvcurveto
          -13 15 13 -3 12 hhcurveto
          34 18 24 41 hvcurveto
          hintmask 11010001
          -35 -412 rmoveto
          -14 -2 -13 -4 -10 vhcurveto
          -62 135 -193 49 84 vvcurveto
          12 4 8 6 5 vhcurveto
          84 -91 167 -35 -130 vvcurveto
          endchar
        </CharString>
        <CharString name="semicolon">
          -179 -105 -21 285 137 0 159 hstemhm
          54 159 -103 103 -76 76 hintmask 10110000
          54 375 rmoveto
          -104 callgsubr
          8 -286 rmoveto
          hintmask 11000100
          -67 75 -7 -35 vvcurveto
          hintmask 11001000
          15 callgsubr
          -38 -33 -33 -37 vhcurveto
          endchar
        </CharString>
        <CharString name="seven">
          22 12 -21 577 181 -104 79 hstemhm
          15 77 15 146 89 130 hintmask 10111100
          472 733 rmoveto
          -6 -28 -28 -3 -26 hhcurveto
          hintmask 11011100
          -84 -116 25 -80 hhcurveto
          -57 -38 -11 -57 -61 33 -51 44 -1 hvcurveto
          hintmask 10111100
          60 44 17 61 34 111 -10 -15 vhcurveto
          -86 -235 -199 -175 vvcurveto
          -88 42 -81 93 18 21 5 11 21 vhcurveto
          -23 49 -26 25 102 230 219 231 89 vvcurveto
          endchar
        </CharString>
        <CharString name="six">
          101 -6 91 301 77 122 165 -60 60 hstemhm
          44 134 229 60 -60 114 hintmask 11011100
          231 329 rmoveto
          45 21 33 12 30 hhcurveto
          56 36 -43 -88 -82 -32 -88 -81 -51 -65 35 197 183 56 190 97 37 32 -27 -33 -13 -5 -14 -7 -8 hvcurveto
          hintmask 11101100
          -7 13 12 -3 9 hhcurveto
          29 16 30 32 55 -48 48 -94 -197 -84 -213 -225 -241 117 -77 119 hvcurveto
          hintmask 11101010
          157 84 121 139 92 -46 117 -141 -72 -51 -46 -46 -15 6 -14 14 -13 hvcurveto
          endchar
        </CharString>
        <CharString name="slash">
          75 43 callsubr
          512 750 rmoveto
          -72 hlineto
          -425 -1000 rlineto
          72 hlineto
          endchar
        </CharString>
        <CharString name="space">
          -236 endchar
        </CharString>
        <CharString name="sterling">
          37 21 -21 322 78 350 -20 hstem
          98 150 vstem
          400 423 -41 callsubr
          -34 -28 11 9 -32 hvcurveto
          330 vlineto
          -150 -31 rlineto
          -299 vlineto
          -37 -16 -26 -28 -11 -41 6 -2 rcurveline
          17 15 20 9 26 hhcurveto
          7 -359 295 hlineto
          46 27 46 74 12 -1 13 -1 13 hvcurveto
          -90 -78 -60 19 -66 -8 rrcurveto
          232 vlineto
          -1 6 6 0 7 hhcurveto
          76 62 53 47 2 hvcurveto
          endchar
        </CharString>
        <CharString name="t">
          -6 97 369 40 158 -20 -73 callgsubr
          0 123 hintmask 11110000
          47 40 callgsubr
          54 -81 callsubr
          vhcurveto
          hintmask 11101000
          -44 callgsubr
          -84 callsubr
          300 61 40 -61 158 vlineto
          endchar
        </CharString>
        <CharString name="t.end">
          -169 -6 97 369 40 158 -20 hstemhm
          51 144 -144 225 hintmask 11110000
          51 40 callgsubr
          vhcurveto
          hintmask 11101000
          49 37 29 55 7 0 7 -1 7 hvcurveto
          -4 -5 -8 -4 -15 hhcurveto
          hintmask 11110000
          -84 callsubr
          300 60 40 -60 158 vlineto
          endchar
        </CharString>
        <CharString name="t_x">
          183 -6 97 361 48 -48 112 94 -20 -73 callgsubr
          293 138 hintmask 10111100
          47 179 rmoveto
          -129 51 -56 77 92 87 64 73 53 vhcurveto
          -97 43 39 -40 -35 callsubr
          -42 callsubr
          -19 47 rlineto
          63 86 50 95 66 vvcurveto
          -100 callsubr
          -48 -66 vhcurveto
          hintmask 11011100
          -84 213 rlineto
          -210 158 hlineto
          -144 -20 rlineto
          -138 -32 -40 32 vlineto
          144 hmoveto
          85 hlineto
          109 -276 rlineto
          -54 -32 -57 -38 -50 hhcurveto
          -34 -21 16 52 hvcurveto
          endchar
        </CharString>
        <CharString name="t_z">
          249 0 71 -71 91 -91 155 -140 -21 361 145 -54 54 -40 40 158 -20 -73 callgsubr
          -144 225 54 -38 callsubr
          hintmask 0100100110110000
          637 91 rmoveto
          hintmask 1000100110110000
          -106 callsubr
          hintmask 1000010110110000
          -104 callsubr
          hintmask 0010100110110000
          -92 callgsubr
          vhcurveto
          hintmask 0100100110110000
          -80 callsubr
          -590 547 rmoveto
          -138 -32 vlineto
          hintmask 0001001110110000
          -40 32 -311 -26 callsubr
          vhcurveto
          hintmask 0100100101110000
          49 37 29 55 7 0 7 -1 7 hvcurveto
          -4 -5 -8 -4 -15 hhcurveto
          hintmask 1000001110110000
          -84 callsubr
          300 60 40 -60 158 vlineto
          endchar
        </CharString>
        <CharString name="thorn">
          22 -229 -21 244 87 352 72 195 -20 hstem
          46 143 138 140 vstem
          46 -250 rmoveto
          143 36 rlineto
          245 vlineto
          -19 14 29 -18 51 53 callsubr
          -89 -53 -35 -20 -26 -23 hvcurveto
          -13 151 -77 49 -83 41 rrcurveto
          -45 hlineto
          61 -63 16 -54 -98 vvcurveto
          188 -404 rmoveto
          -24 -14 14 12 -7 hvcurveto
          273 vlineto
          35 11 26 18 23 hhcurveto
          24 54 -10 -159 -78 -21 -105 -72 hvcurveto
          endchar
        </CharString>
        <CharString name="three">
          84 -6 80 183 51 204 237 -60 60 hstemhm
          32 114 -83 109 160 123 -105 156 hintmask 11101001
          218 257 rmoveto
          36 -13 -34 15 -38 hhcurveto
          -67 -34 -48 -76 -171 172 -19 60 157 85 128 118 88 -48 57 -112 32 hvcurveto
          hintmask 11100110
          75 42 34 71 60 vvcurveto
          88 -72 71 -131 -113 -76 -53 -82 -62 43 -40 47 24 26 11 23 20 vhcurveto
          -35 10 -16 46 29 vvcurveto
          hintmask 11011010
          38 26 20 40 62 32 -49 -52 -68 -53 -75 -95 -27 vhcurveto
          hintmask 11101001
          116 -13 50 -87 -92 vvcurveto
          -71 -30 -81 -80 -39 -55 19 82 40 13 42 59 vhcurveto
          endchar
        </CharString>
        <CharString name="threequarters">
          329 -50 -21 221 39 33 34 -34 165 114 -20 119 29 121 -20 hstemhm
          25 67 -54 54 100 76 -59 88 237 64 40 85 hintmask 1101111100111000
          548 14 callgsubr
          -156 431 0 callgsubr
          hintmask 1101111011011000
          -17 callsubr
          47 callgsubr
          hintmask 1110111100111000
          18 callsubr
          506 -210 -46 callgsubr
          endchar
        </CharString>
        <CharString name="threesuperior">
          -104 342 34 -34 165 114 128 -29 29 hstemhm
          40 67 -54 54 100 76 -59 88 hintmask 01101001
          147 480 0 callgsubr
          hintmask 10100110
          -17 callsubr
          hintmask 10011010
          47 callgsubr
          hintmask 10101001
          18 callsubr
          endchar
        </CharString>
        <CharString name="tilde">
          -48 569 -14 callgsubr
          hintmask 01000000
          290 670 -41 callsubr
          hintmask 00100000
          -92 callsubr
          hintmask 10000000
          -63 callgsubr
          endchar
        </CharString>
        <CharString name="trademark">
          44 433 221 -103 103 -35 35 -22 22 4 -20 hstemhm
          50 29 49 44 hintmask 10000110
          445 433 rmoveto
          -15 221 rlineto
          -47 hlineto
          -32 -174 -34 173 rlineto
          -40 hlineto
          -22 -220 rlineto
          24 hlineto
          14 154 26 -154 rlineto
          49 hlineto
          27 151 16 -151 rlineto
          -239 195 rmoveto
          hintmask 00100110
          -4 20 21 -5 17 hhcurveto
          hintmask 00001110
          13 6 21 18 hvcurveto
          -4 -8 -13 -1 -15 -29 -35 5 -12 hhcurveto
          -63 -24 -30 -34 hvcurveto
          hintmask 01000110
          -31 13 -12 27 vhcurveto
          -4 6 -7 1 29 vvcurveto
          hintmask 00010110
          34 21 10 28 1 vhcurveto
          hintmask 10000110
          -199 44 vlineto
          endchar
        </CharString>
        <CharString name="two">
          59 -11 115 -79 79 -79 97 390 237 -60 60 hstemhm
          38 111 154 146 -146 176 hintmask 00110110
          147 122 rmoveto
          -11 hlineto
          47 132 266 84 214 vvcurveto
          100 -59 97 -169 -134 -45 -61 -68 -68 46 -40 47 27 24 13 21 18 vhcurveto
          -40 12 -15 49 30 vvcurveto
          hintmask 01001101
          26 12 26 48 73 21 -61 -62 vhcurveto
          -218 -265 -97 -190 vvcurveto
          -41 12 -17 2 -6 vhcurveto
          7 19 31 21 23 hhcurveto
          hintmask 10010101
          98 59 -36 92 hhcurveto
          82 23 29 65 54 -16 25 -3 11 hvcurveto
          -47 -28 -23 -22 -73 hhcurveto
          hintmask 00110110
          -66 -69 18 -54 hhcurveto
          endchar
        </CharString>
        <CharString name="twosuperior">
          -107 338 68 -52 52 215 128 -30 30 hstemhm
          48 59 93 84 -84 101 hintmask 10101100
          106 416 -20 callgsubr
          hintmask 01011010
          -9 callgsubr
          hintmask 10101010
          40 callsubr
          56 callgsubr
        </CharString>
        <CharString name="u">
          54 -25 callgsubr
          hstem
          -51 callsubr
          104 144 vstem
          295 -60 callgsubr
          63 callsubr
          -27 -38 -36 -26 -15 19 50 vhcurveto
          340 -144 65 callgsubr
          84 33 vhcurveto
          -59 13 35 -36 71 hhcurveto
          55 -44 callsubr
          -48 -5 -21 -40 -51 hhcurveto
          -35 -11 -52 callgsubr
          vlineto
          endchar
        </CharString>
        <CharString name="u.end">
          63 -25 callgsubr
          hstem
          47 46 callgsubr
          vstem
          -98 callgsubr
          41 58 11 83 34 vhcurveto
          -57 12 33 -37 67 -24 callsubr
          340 vlineto
          endchar
        </CharString>
        <CharString name="u_v">
          465 -33 callsubr
          415 105 -20 -20 -73 callgsubr
          103 143 -122 122 113 146 67 144 -59 59 hintmask 1001101110000000
          47 -60 callgsubr
          -1 callsubr
          41 59 12 85 34 vhcurveto
          hintmask 0101101110000000
          -91 122 500 vlineto
          hintmask 1001110110000000
          -143 -321 hlineto
          -67 callgsubr
          vlineto
          hintmask 1010110110000000
          622 20 rmoveto
          -33 -17 -24 -20 -23 21 -38 33 7 9 2 2 6 hvcurveto
          3 -16 rlineto
          hintmask 1001110101000000
          4 -23 2 -25 -27 vvcurveto
          -110 -32 -127 -79 -41 0 34 35 vhcurveto
          340 -174 -41 vlineto
          28 -13 rlineto
          -286 vlineto
          -109 64 -57 88 160 45 190 142 vhcurveto
          hintmask 1010110110000000
          137 -42 57 -52 vhcurveto
          endchar
        </CharString>
        <CharString name="u_x">
          447 -6 97 361 112 -64 -34 callgsubr
          296 138 hintmask 10111100
          47 -60 callgsubr
          65 callgsubr
          85 34 vhcurveto
          -60 22 58 -36 55 hhcurveto
          81 71 38 95 55 hvcurveto
          -93 42 39 -40 63 hhcurveto
          54 90 6 callsubr
          22 hvcurveto
          -42 hlineto
          -42 callsubr
          -18 46 rlineto
          64 86 50 95 67 vvcurveto
          hintmask 11011100
          -83 callsubr
          -30 -48 -49 -67 vhcurveto
          hintmask 10111100
          24 callsubr
          -46 -9 33 30 hvcurveto
          346 -144 -88 callgsubr
          vlineto
          endchar
        </CharString>
        <CharString name="u_x.end">
          450 -33 callsubr
          452 112 -64 -34 callgsubr
          296 138 hintmask 10011110
          47 -60 callgsubr
          65 callgsubr
          85 34 vhcurveto
          -60 22 58 -36 55 hhcurveto
          81 70 38 95 55 hvcurveto
          hintmask 01101110
          -93 42 38 -34 63 hhcurveto
          49 42 21 57 6 0 6 -1 7 hvcurveto
          hintmask 10101110
          53 callgsubr
          -18 46 rlineto
          64 86 50 95 67 vvcurveto
          -83 callsubr
          -30 -48 -49 -67 vhcurveto
          hintmask 10011110
          24 callsubr
          -49 -6 37 32 hvcurveto
          18 callgsubr
          vlineto
          endchar
        </CharString>
        <CharString name="uacute">
          54 -25 callgsubr
          81 189 hstem
          -51 callsubr
          104 144 vstem
          295 -60 callgsubr
          63 callsubr
          -27 -38 -36 -26 -15 19 50 vhcurveto
          340 -144 65 callgsubr
          84 33 vhcurveto
          -59 13 35 -36 71 hhcurveto
          55 -44 callsubr
          -48 -5 -21 -40 -51 hhcurveto
          -35 -11 -52 callgsubr
          vlineto
          -234 61 -101 callgsubr
        </CharString>
        <CharString name="uacute.end">
          64 -25 callgsubr
          81 189 hstem
          47 46 callgsubr
          vstem
          -98 callgsubr
          41 58 11 83 34 vhcurveto
          -57 12 33 -37 67 -24 callsubr
          340 vlineto
          -253 61 -101 callgsubr
        </CharString>
        <CharString name="ucircumflex">
          54 -6 97 409 61 189 -20 hstem
          -51 callsubr
          104 144 vstem
          295 -60 callgsubr
          63 callsubr
          -27 -38 -36 -26 -15 19 50 vhcurveto
          340 -144 65 callgsubr
          84 33 vhcurveto
          -59 13 35 -36 71 hhcurveto
          55 -44 callsubr
          -48 -5 -21 -40 -51 hhcurveto
          -35 -11 -52 callgsubr
          vlineto
          -51 61 rmoveto
          -100 189 rlineto
          -21 hlineto
          -172 -189 rlineto
          44 hlineto
          140 80 77 -80 rlineto
          endchar
        </CharString>
        <CharString name="udieresis">
          54 -25 callgsubr
          93 122 -73 callgsubr
          -96 45 callsubr
          -102 144 hintmask 11110010
          295 -60 callgsubr
          63 callsubr
          -27 -38 -36 -26 -15 19 50 vhcurveto
          340 -144 65 callgsubr
          84 33 vhcurveto
          -59 13 35 -36 71 hhcurveto
          55 -44 callsubr
          -48 -5 -21 -40 -51 hhcurveto
          -35 -11 -52 callgsubr
          vlineto
          hintmask 11101100
          -164 134 -97 callsubr
        </CharString>
        <CharString name="ugrave">
          54 -25 callgsubr
          81 189 hstem
          -51 callsubr
          104 144 vstem
          295 -60 callgsubr
          63 callsubr
          -27 -38 -36 -26 -15 19 50 vhcurveto
          340 -144 65 callgsubr
          84 33 vhcurveto
          -59 13 35 -36 71 hhcurveto
          55 -44 callsubr
          -48 -5 -21 -40 -51 hhcurveto
          -35 -11 -52 callgsubr
          vlineto
          -231 61 rmoveto
          75 hlineto
          -69 -43 callgsubr
        </CharString>
        <CharString name="uhungarumlaut">
          54 -25 callgsubr
          81 189 hstem
          -51 callsubr
          104 144 vstem
          295 -60 callgsubr
          63 callsubr
          -27 -38 -36 -26 -15 19 50 vhcurveto
          340 -144 65 callgsubr
          84 33 vhcurveto
          -59 13 35 -36 71 hhcurveto
          55 -44 callsubr
          -48 -5 -21 -40 -51 hhcurveto
          -35 -11 -52 callgsubr
          vlineto
          -177 61 -63 callsubr
          -181 -189 -63 callsubr
          endchar
        </CharString>
        <CharString name="underscore">
          -10 0 79 hstem
          396 79 rmoveto
          -351 -79 351 hlineto
          endchar
        </CharString>
        <CharString name="uni00AD">
          8 callgsubr
        </CharString>
        <CharString name="v">
          -37 -6 97 324 105 -20 -20 -73 callgsubr
          68 146 -60 60 hintmask 11011000
          309 29 callsubr
          hintmask 10110100
          5 -25 3 -29 -32 vvcurveto
          -113 -34 -135 -77 -31 -12 21 48 vhcurveto
          340 -144 -340 vlineto
          -101 57 -65 95 157 49 185 153 vhcurveto
          hintmask 11011000
          117 -29 71 -67 vhcurveto
          endchar
        </CharString>
        <CharString name="w">
          210 -6 97 324 105 -20 -34 callgsubr
          68 146 -60 60 hintmask 11011100
          556 29 callsubr
          hintmask 10111010
          5 -25 3 -29 -32 vvcurveto
          -113 -34 -135 -77 -31 -12 21 48 vhcurveto
          18 callgsubr
          -144 -1 callsubr
          39 55 10 74 34 vhcurveto
          -53 23 48 -31 66 hhcurveto
          157 49 185 153 hvcurveto
          hintmask 11011100
          117 -29 71 -67 vhcurveto
          endchar
        </CharString>
        <CharString name="x">
          71 19 callsubr
          394 243 rmoveto
          58 81 43 87 62 vvcurveto
          -24 callgsubr
          1 -5 0 -4 -5 vvcurveto
          -35 -23 -42 -40 -55 vhcurveto
          -26 78 rlineto
          hintmask 01101100
          56 -19 -36 63 -43 callsubr
          51 -52 66 hhcurveto
          46 92 26 159 21 hvcurveto
          -42 hlineto
          -54 -5 -28 -34 -40 hhcurveto
          -32 -24 22 65 -22 hvcurveto
          endchar
        </CharString>
        <CharString name="x.end">
          88 19 callsubr
          398 249 rmoveto
          56 79 41 84 63 vvcurveto
          61 -39 28 -37 -32 -30 -21 -34 -28 20 -29 42 8 -2 1 1 9 vhcurveto
          1 -5 0 -4 -5 vvcurveto
          -34 -23 -41 -37 -53 vhcurveto
          -28 74 rlineto
          hintmask 01101100
          55 -21 -35 64 -43 callsubr
          47 -52 64 hhcurveto
          45 49 25 60 6 0 6 -1 6 hvcurveto
          -3 -7 -10 -3 -16 hhcurveto
          -35 -16 15 72 -28 hvcurveto
          endchar
        </CharString>
        <CharString name="y">
          35 -15 callgsubr
          -73 callgsubr
          -31 59 callgsubr
          hintmask 11110100
          -98 callgsubr
          34 45 7 50 34 vhcurveto
          -55 vlineto
          hintmask 11101100
          -66 -22 -68 -93 callsubr
          -225 -628 rmoveto
          -96 callsubr
        </CharString>
        <CharString name="y.end">
          31 -15 callgsubr
          -73 callgsubr
          -31 59 callgsubr
          hintmask 11110100
          -98 callgsubr
          34 45 7 50 34 vhcurveto
          -55 vlineto
          hintmask 11101100
          -66 -22 -68 -59 callgsubr
          -225 -628 rmoveto
          -96 callsubr
        </CharString>
        <CharString name="y_p">
          502 -18 callgsubr
          82 357 67 5 -20 52 -20 -73 callgsubr
          -32 54 81 144 95 144 137 139 hintmask 1110110111000000
          533 537 rmoveto
          -477 vlineto
          -32 -5 -32 -6 -31 -8 rrcurveto
          459 -144 7 callsubr
          65 -54 74 34 42 9 47 32 vhcurveto
          -49 vlineto
          hintmask 1101101111000000
          -64 -23 -71 -40 -72 vvcurveto
          -76 65 -40 70 66 78 27 143 vhcurveto
          71 vlineto
          33 7 30 3 32 1 rrcurveto
          -252 12 callgsubr
          211 vlineto
          -2 28 31 -1 34 hhcurveto
          143 40 142 114 195 -79 60 -89 -51 -34 -19 -24 47 callsubr
          308 vlineto
          hintmask 1110101111000000
          33 11 25 17 22 hhcurveto
          25 54 -10 -161 -79 -21 -107 -72 hvcurveto
          -508 -206 -53 callgsubr
        </CharString>
        <CharString name="y_x">
          421 -250 78 167 96 362 103 -56 -20 -73 callgsubr
          -32 54 81 144 270 137 -55 55 hintmask 1101101100000000
          294 -60 callgsubr
          7 callsubr
          64 -53 74 34 43 8 47 32 vhcurveto
          -58 vlineto
          hintmask 1110011100000000
          -16 callgsubr
          74 vlineto
          67 22 87 36 56 78 rrcurveto
          -95 43 39 -40 63 hhcurveto
          54 91 21 163 22 hvcurveto
          -42 hlineto
          -42 callsubr
          -20 49 rlineto
          65 90 31 67 57 vvcurveto
          58 -34 -45 callsubr
          hintmask 1101011010000000
          1 -4 4 -4 -16 vvcurveto
          -36 -23 -54 -40 -57 vhcurveto
          -85 216 -28 callsubr
          121 -308 -63 -93 -57 -37 -64 -24 rlinecurve
          462 vlineto
          -225 -630 -53 callgsubr
        </CharString>
        <CharString name="y_z">
          437 -18 callgsubr
          -71 callsubr
          145 -54 54 -73 callgsubr
          -31 59 callgsubr
          76 -38 callsubr
          hintmask 1010010101110000
          -98 callgsubr
          34 45 7 50 34 vhcurveto
          -55 vlineto
          hintmask 1010010011110000
          -66 -22 -68 -59 callgsubr
          387 -409 rmoveto
          hintmask 1100010101110000
          -106 callsubr
          hintmask 1000101101110000
          -104 callsubr
          hintmask 1001010101110000
          -92 callgsubr
          vhcurveto
          hintmask 1010010011110000
          -80 callsubr
          -612 -219 rmoveto
          -96 callsubr
        </CharString>
        <CharString name="yacute">
          35 -15 callgsubr
          81 189 -73 callgsubr
          -31 59 callgsubr
          hintmask 11111010
          -98 callgsubr
          34 45 7 50 34 vhcurveto
          -55 vlineto
          hintmask 11110110
          -66 -22 -68 -93 callsubr
          -234 64 callgsubr
          -42 -878 rmoveto
          -96 callsubr
        </CharString>
</ttFont>
